<svg width="32" height="32" viewBox="0 0 32 32" fill="none" xmlns="http://www.w3.org/2000/svg">
<circle cx="16" cy="16" r="16" fill="black"/>
<path fill-rule="evenodd" clip-rule="evenodd" d="M21.5127 10.0881C21.698 10.0101 21.9009 9.98319 22.1001 10.0102C22.2994 10.0372 22.4878 10.1171 22.6457 10.2416C22.8036 10.3661 22.9252 10.5307 22.9979 10.7182C23.0707 10.9056 23.0918 11.1092 23.0592 11.3076L21.3582 21.6253C21.1932 22.6206 20.1012 23.1913 19.1884 22.6956C18.4249 22.2808 17.2909 21.6418 16.2709 20.9751C15.7609 20.6413 14.1987 19.5726 14.3907 18.8121C14.5557 18.1618 17.1807 15.7183 18.6807 14.2656C19.2694 13.6948 19.0009 13.3656 18.3057 13.8906C16.5784 15.1941 13.8072 17.1763 12.8907 17.7343C12.0822 18.2263 11.6607 18.3103 11.1567 18.2263C10.2372 18.0733 9.38442 17.8363 8.68842 17.5476C7.74792 17.1576 7.79367 15.8646 8.68767 15.4881L21.5127 10.0881Z" fill="#2DAEF7"/>
</svg>
