<svg width="467" height="45" viewBox="0 0 467 45" fill="none" xmlns="http://www.w3.org/2000/svg">
<path d="M153.984 8.6C159.637 8.6 162.464 10.7547 162.464 15.064C162.464 16.9627 161.792 18.52 160.448 19.736C159.125 20.952 157.547 21.56 155.712 21.56C153.877 21.56 152.32 21.2613 151.04 20.664V23.768C151.04 26.0507 151.104 27.608 151.232 28.44C151.381 29.272 151.584 29.7947 151.84 30.008C152.331 30.4133 153.109 30.616 154.176 30.616L154.24 31H145.6L145.664 30.616C146.731 30.616 147.509 30.4133 148 30.008C148.533 29.56 148.8 27.48 148.8 23.768V15.832C148.8 13.5493 148.725 11.992 148.576 11.16C148.448 10.328 148.256 9.80533 148 9.592C147.509 9.18667 146.731 8.984 145.664 8.984L145.6 8.6H153.984ZM151.04 9.336V19.864C152.149 20.4613 153.451 20.76 154.944 20.76C156.459 20.76 157.675 20.2907 158.592 19.352C159.509 18.392 159.968 16.9627 159.968 15.064C159.968 12.696 159.2 11.1173 157.664 10.328C156.405 9.66667 154.891 9.336 153.12 9.336H151.04ZM175.03 8.312C178.464 8.312 181.206 9.368 183.254 11.48C185.323 13.5707 186.358 16.2907 186.358 19.64C186.358 22.968 185.355 25.752 183.35 27.992C181.366 30.2107 178.667 31.32 175.254 31.32C171.84 31.32 169.088 30.2 166.998 27.96C164.928 25.72 163.894 22.936 163.894 19.608C163.894 16.2587 164.886 13.5387 166.87 11.448C168.875 9.35733 171.595 8.312 175.03 8.312ZM175.222 30.584C177.952 30.584 180.022 29.6027 181.43 27.64C182.859 25.656 183.574 23.0533 183.574 19.832C183.574 16.6107 182.827 14.008 181.334 12.024C179.84 10.04 177.728 9.048 174.998 9.048C172.288 9.048 170.219 10.0293 168.79 11.992C167.382 13.9547 166.678 16.5573 166.678 19.8C166.678 23.0213 167.424 25.624 168.918 27.608C170.411 29.592 172.512 30.584 175.222 30.584ZM211.941 15.832V23.768C211.941 26.0507 212.005 27.608 212.132 28.44C212.282 29.272 212.484 29.7947 212.74 30.008C213.231 30.4133 214.01 30.616 215.076 30.616L215.14 31H206.564L206.628 30.616C207.674 30.616 208.442 30.424 208.932 30.04C209.338 29.72 209.572 28.6747 209.636 26.904C209.679 26.2 209.7 25.1547 209.7 23.768V10.232L200.74 30.68L191.492 13.368V23.704C191.492 25.8373 191.588 27.384 191.78 28.344C191.994 29.2827 192.324 29.9013 192.772 30.2C193.22 30.4773 193.967 30.616 195.012 30.616L195.076 31H187.204L187.268 30.616C188.058 30.616 188.644 30.5627 189.028 30.456C189.434 30.328 189.775 30.008 190.052 29.496C190.33 28.984 190.5 28.3013 190.564 27.448C190.65 26.5947 190.692 25.3467 190.692 23.704V15.864C190.692 14.2213 190.65 12.9733 190.564 12.12C190.5 11.2667 190.33 10.584 190.052 10.072C189.775 9.56 189.434 9.25067 189.028 9.144C188.644 9.016 188.058 8.952 187.268 8.952L187.204 8.6H191.492L201.38 27.256L209.54 8.6H215.14L215.076 8.952C214.01 8.952 213.231 9.15467 212.74 9.56C212.207 10.008 211.941 12.0987 211.941 15.832ZM223.449 15.832V23.768C223.449 26.0507 223.513 27.608 223.641 28.44C223.79 29.272 223.993 29.7947 224.249 30.008C224.739 30.4133 225.518 30.616 226.585 30.616L226.649 31H218.009L218.073 30.616C218.606 30.616 219.022 30.5947 219.321 30.552C219.619 30.5093 219.897 30.392 220.153 30.2C220.43 30.008 220.622 29.7947 220.729 29.56C220.857 29.304 220.963 28.888 221.049 28.312C221.155 27.5653 221.209 26.0507 221.209 23.768V15.832C221.209 13.6133 221.145 12.0667 221.017 11.192C220.889 10.3173 220.697 9.77333 220.441 9.56C219.929 9.15467 219.139 8.952 218.073 8.952L218.009 8.6H226.649L226.585 8.952C225.518 8.952 224.739 9.15467 224.249 9.56C223.715 10.008 223.449 12.0987 223.449 15.832ZM249.597 15.8V31.16H248.605L233.533 12.12V23.704C233.533 25.8373 233.629 27.3733 233.821 28.312C234.013 29.2507 234.333 29.8693 234.781 30.168C235.229 30.4667 235.965 30.616 236.989 30.616L237.053 31H229.181L229.245 30.616C230.269 30.616 231.005 30.4667 231.453 30.168C231.901 29.8693 232.221 29.2507 232.413 28.312C232.626 27.3733 232.733 25.8373 232.733 23.704V15.8C232.733 13.6667 232.626 12.1413 232.413 11.224C232.221 10.2853 231.901 9.67733 231.453 9.4C231.026 9.10133 230.29 8.952 229.245 8.952L229.181 8.6H233.533L248.797 27.64V15.8C248.797 13.688 248.69 12.1627 248.477 11.224C248.285 10.2853 247.965 9.67733 247.517 9.4C247.069 9.10133 246.322 8.952 245.277 8.952L245.213 8.6H253.149L253.085 8.952C252.039 8.952 251.293 9.10133 250.845 9.4C250.397 9.67733 250.077 10.2853 249.885 11.224C249.693 12.1627 249.597 13.688 249.597 15.8ZM272.769 31C271.681 31 270.316 29.7307 268.673 27.192C267.969 26.1253 267.233 25.0587 266.465 23.992C265.719 22.9253 264.876 22.008 263.937 21.24C262.999 20.472 262.06 20.0773 261.121 20.056V23.768C261.121 26.968 261.271 28.888 261.569 29.528C261.697 29.784 261.889 30.008 262.145 30.2C262.401 30.392 262.679 30.5093 262.977 30.552C263.297 30.5947 263.713 30.616 264.225 30.616L264.289 31H255.681L255.745 30.616C256.812 30.616 257.591 30.4133 258.081 30.008C258.615 29.56 258.881 27.48 258.881 23.768V15.832C258.881 13.5493 258.807 11.992 258.657 11.16C258.529 10.3067 258.337 9.77333 258.081 9.56C257.591 9.15467 256.812 8.952 255.745 8.952L255.681 8.6H264.289L264.225 8.952C263.713 8.952 263.297 8.97333 262.977 9.016C262.679 9.05866 262.401 9.176 262.145 9.368C261.889 9.56 261.697 9.784 261.569 10.04C261.463 10.296 261.377 10.712 261.313 11.288C261.185 12.2267 261.121 13.7413 261.121 15.832V19.48C262.039 19.3307 263.127 18.7333 264.385 17.688C265.665 16.6213 266.785 15.3627 267.745 13.912C268.705 12.44 269.185 11.1387 269.185 10.008C269.185 9.64533 269.068 9.37867 268.833 9.208C268.62 9.03733 268.215 8.952 267.617 8.952L267.553 8.6H275.489L275.425 8.952C273.185 8.952 271.511 9.73067 270.401 11.288C269.868 12.056 269.356 12.8667 268.865 13.72C268.375 14.552 267.628 15.5227 266.625 16.632C265.644 17.72 264.471 18.7013 263.105 19.576C265.175 19.704 266.86 20.504 268.161 21.976C268.951 22.8293 269.793 23.9707 270.689 25.4C271.607 26.8293 272.321 27.864 272.833 28.504C274.028 29.912 275.468 30.616 277.153 30.616L277.217 31H272.769ZM282.176 15.832V23.768C282.176 26.0507 282.24 27.608 282.368 28.44C282.518 29.272 282.72 29.7947 282.976 30.008C283.467 30.4133 284.246 30.616 285.312 30.616L285.376 31H276.736L276.8 30.616C277.334 30.616 277.75 30.5947 278.048 30.552C278.347 30.5093 278.624 30.392 278.88 30.2C279.158 30.008 279.35 29.7947 279.456 29.56C279.584 29.304 279.691 28.888 279.776 28.312C279.883 27.5653 279.936 26.0507 279.936 23.768V15.832C279.936 13.6133 279.872 12.0667 279.744 11.192C279.616 10.3173 279.424 9.77333 279.168 9.56C278.656 9.15467 277.867 8.952 276.8 8.952L276.736 8.6H285.376L285.312 8.952C284.246 8.952 283.467 9.15467 282.976 9.56C282.443 10.008 282.176 12.0987 282.176 15.832ZM287.78 22.136V20.536H297.668V22.136H287.78ZM306.529 8.6C310.198 8.6 312.95 8.92 314.785 9.56C315.617 9.85867 316.502 10.2853 317.441 10.84C318.38 11.3947 319.137 12.056 319.713 12.824C320.31 13.592 320.801 14.5733 321.185 15.768C321.59 16.9627 321.793 18.3067 321.793 19.8C321.793 21.272 321.59 22.6053 321.185 23.8C320.801 24.9733 320.31 25.944 319.713 26.712C319.137 27.48 318.412 28.152 317.537 28.728C316.684 29.2827 315.873 29.6987 315.105 29.976C314.337 30.2533 313.484 30.4773 312.545 30.648C311.286 30.8827 309.996 31 308.673 31H300.065L300.129 30.616C301.196 30.616 301.974 30.4133 302.465 30.008C302.998 29.56 303.265 27.48 303.265 23.768V15.832C303.265 13.5493 303.19 11.992 303.041 11.16C302.913 10.3067 302.721 9.77333 302.465 9.56C301.974 9.15467 301.196 8.952 300.129 8.952L300.065 8.6H306.529ZM306.689 30.232C306.945 30.2533 307.468 30.264 308.257 30.264C309.068 30.264 309.942 30.1787 310.881 30.008C311.841 29.8373 312.822 29.5173 313.825 29.048C314.849 28.5573 315.724 27.9387 316.449 27.192C317.196 26.4453 317.804 25.4427 318.273 24.184C318.764 22.904 319.009 21.4533 319.009 19.832C319.009 18.1893 318.774 16.7387 318.305 15.48C317.836 14.2213 317.228 13.2187 316.481 12.472C315.734 11.704 314.86 11.0747 313.857 10.584C312.086 9.752 310.134 9.336 308.001 9.336C307.041 9.336 306.209 9.4 305.505 9.528V24.152C305.505 26.456 305.569 27.9813 305.697 28.728C305.825 29.4747 306.156 29.976 306.689 30.232ZM334.839 8.312C338.273 8.312 341.015 9.368 343.063 11.48C345.132 13.5707 346.167 16.2907 346.167 19.64C346.167 22.968 345.164 25.752 343.159 27.992C341.175 30.2107 338.476 31.32 335.063 31.32C331.649 31.32 328.897 30.2 326.807 27.96C324.737 25.72 323.703 22.936 323.703 19.608C323.703 16.2587 324.695 13.5387 326.679 11.448C328.684 9.35733 331.404 8.312 334.839 8.312ZM335.031 30.584C337.761 30.584 339.831 29.6027 341.239 27.64C342.668 25.656 343.383 23.0533 343.383 19.832C343.383 16.6107 342.636 14.008 341.143 12.024C339.649 10.04 337.537 9.048 334.807 9.048C332.097 9.048 330.028 10.0293 328.599 11.992C327.191 13.9547 326.487 16.5573 326.487 19.8C326.487 23.0213 327.233 25.624 328.727 27.608C330.22 29.592 332.321 30.584 335.031 30.584ZM349.605 24.216C349.605 26.2853 350.107 27.864 351.109 28.952C352.133 30.04 353.381 30.584 354.853 30.584C356.325 30.584 357.531 30.232 358.469 29.528C359.408 28.8027 359.877 27.672 359.877 26.136C359.877 24.7493 359.141 23.512 357.669 22.424C357.029 21.9547 356.315 21.496 355.525 21.048C354.736 20.5787 353.947 20.0987 353.157 19.608C352.368 19.1173 351.653 18.6053 351.013 18.072C349.541 16.8347 348.805 15.3947 348.805 13.752C348.805 12.088 349.403 10.7653 350.597 9.784C351.813 8.80267 353.413 8.312 355.397 8.312C357.403 8.312 359.259 8.74933 360.965 9.624C360.965 10.6907 360.805 12.5253 360.485 15.128L360.005 15C360.005 12.9947 359.515 11.5013 358.533 10.52C357.552 9.51733 356.421 9.016 355.141 9.016C353.883 9.016 352.869 9.38933 352.101 10.136C351.333 10.8613 350.949 11.7253 350.949 12.728C350.949 13.7307 351.216 14.5947 351.749 15.32C352.304 16.024 352.987 16.6107 353.797 17.08C354.629 17.5493 355.525 18.072 356.485 18.648C357.445 19.2027 358.331 19.7573 359.141 20.312C359.973 20.8453 360.656 21.5493 361.189 22.424C361.744 23.2987 362.021 24.28 362.021 25.368C362.021 27.3307 361.317 28.8133 359.909 29.816C358.523 30.8187 356.848 31.32 354.885 31.32C353.797 31.32 352.677 31.1493 351.525 30.808C350.395 30.4667 349.467 29.9653 348.741 29.304C348.741 27.9387 348.869 26.2107 349.125 24.12L349.605 24.216ZM363.954 8.6H382.386V13.208L382.066 13.144C382.066 10.5413 379.484 9.24 374.322 9.24V23.768C374.322 26.9253 374.503 28.8453 374.866 29.528C374.994 29.784 375.218 30.008 375.538 30.2C375.858 30.392 376.199 30.5093 376.562 30.552C376.924 30.5947 377.426 30.616 378.066 30.616L378.13 31H368.274L368.338 30.616C368.978 30.616 369.479 30.6053 369.842 30.584C370.226 30.5413 370.567 30.4133 370.866 30.2C371.186 29.9867 371.41 29.7627 371.538 29.528C371.687 29.2933 371.815 28.8773 371.922 28.28C372.028 27.5547 372.082 26.0507 372.082 23.768V9.24C366.919 9.24 364.338 10.5413 364.338 13.144L363.954 13.208V8.6ZM395.298 30.616C396.109 30.616 396.674 30.552 396.994 30.424C397.336 30.296 397.506 29.9653 397.506 29.432C397.506 28.8987 396.941 27.0853 395.81 23.992H386.05C385.133 26.7013 384.674 28.408 384.674 29.112C384.674 29.7947 384.845 30.2213 385.186 30.392C385.549 30.5413 386.189 30.616 387.106 30.616L387.17 31H379.97L380.034 30.616C380.653 30.616 381.133 30.5627 381.474 30.456C381.837 30.3493 382.221 30.072 382.626 29.624C383.053 29.1547 383.458 28.4827 383.842 27.608C384.226 26.7333 384.685 25.5067 385.218 23.928L388.066 15.704C389.069 12.8027 389.57 11.0427 389.57 10.424C389.57 9.80533 389.421 9.41067 389.122 9.24C388.824 9.048 388.248 8.952 387.394 8.952L387.33 8.6H392.61L398.274 23.928C399.234 26.4667 399.874 28.0773 400.194 28.76C400.536 29.4427 400.856 29.88 401.154 30.072C401.688 30.4347 402.36 30.616 403.17 30.616L403.234 31H395.234L395.298 30.616ZM390.818 10.328L386.306 23.224H395.554L390.818 10.328ZM405.112 10.008C405.112 10.3707 405.133 10.6587 405.176 10.872C405.24 11.064 405.282 11.224 405.304 11.352C405.346 11.48 405.4 11.6613 405.464 11.896C405.528 12.1093 405.581 12.3013 405.624 12.472C405.688 12.6213 405.773 12.8453 405.88 13.144C405.986 13.4427 406.072 13.688 406.136 13.88C406.221 14.072 406.328 14.36 406.456 14.744C406.605 15.128 406.722 15.4373 406.808 15.672L411.8 29.272L416.536 15.672C417.474 12.9627 417.944 11.2667 417.944 10.584C417.944 9.90133 417.762 9.464 417.4 9.272C417.037 9.08 416.408 8.984 415.512 8.984L415.448 8.6H423.288L423.224 8.984C422.413 8.984 421.794 9.03733 421.368 9.144C420.962 9.25067 420.525 9.53867 420.056 10.008C419.608 10.4773 419.192 11.1387 418.808 11.992C418.424 12.8453 417.954 14.072 417.4 15.672L412.024 31.16H410.008L404.344 15.672C403.149 12.472 402.306 10.584 401.816 10.008C401.624 9.77333 401.357 9.56 401.016 9.368C400.696 9.176 400.376 9.06933 400.056 9.048C399.757 9.00533 399.341 8.984 398.808 8.984L398.744 8.6H407.384L407.32 8.984C406.509 8.984 405.933 9.05867 405.592 9.208C405.272 9.35733 405.112 9.624 405.112 10.008ZM441.827 31C440.739 31 439.373 29.7307 437.731 27.192C437.027 26.1253 436.291 25.0587 435.523 23.992C434.776 22.9253 433.933 22.008 432.995 21.24C432.056 20.472 431.117 20.0773 430.179 20.056V23.768C430.179 26.968 430.328 28.888 430.627 29.528C430.755 29.784 430.947 30.008 431.203 30.2C431.459 30.392 431.736 30.5093 432.035 30.552C432.355 30.5947 432.771 30.616 433.283 30.616L433.347 31H424.739L424.803 30.616C425.869 30.616 426.648 30.4133 427.139 30.008C427.672 29.56 427.939 27.48 427.939 23.768V15.832C427.939 13.5493 427.864 11.992 427.715 11.16C427.587 10.3067 427.395 9.77333 427.139 9.56C426.648 9.15467 425.869 8.952 424.803 8.952L424.739 8.6H433.347L433.283 8.952C432.771 8.952 432.355 8.97333 432.035 9.016C431.736 9.05866 431.459 9.176 431.203 9.368C430.947 9.56 430.755 9.784 430.627 10.04C430.52 10.296 430.435 10.712 430.371 11.288C430.243 12.2267 430.179 13.7413 430.179 15.832V19.48C431.096 19.3307 432.184 18.7333 433.443 17.688C434.723 16.6213 435.843 15.3627 436.803 13.912C437.763 12.44 438.243 11.1387 438.243 10.008C438.243 9.64533 438.125 9.37867 437.891 9.208C437.677 9.03733 437.272 8.952 436.675 8.952L436.611 8.6H444.547L444.483 8.952C442.243 8.952 440.568 9.73067 439.459 11.288C438.925 12.056 438.413 12.8667 437.923 13.72C437.432 14.552 436.685 15.5227 435.683 16.632C434.701 17.72 433.528 18.7013 432.163 19.576C434.232 19.704 435.917 20.504 437.219 21.976C438.008 22.8293 438.851 23.9707 439.747 25.4C440.664 26.8293 441.379 27.864 441.891 28.504C443.085 29.912 444.525 30.616 446.211 30.616L446.275 31H441.827ZM458.37 30.616C459.18 30.616 459.746 30.552 460.066 30.424C460.407 30.296 460.578 29.9653 460.578 29.432C460.578 28.8987 460.012 27.0853 458.882 23.992H449.122C448.204 26.7013 447.746 28.408 447.746 29.112C447.746 29.7947 447.916 30.2213 448.258 30.392C448.62 30.5413 449.26 30.616 450.178 30.616L450.242 31H443.042L443.106 30.616C443.724 30.616 444.204 30.5627 444.546 30.456C444.908 30.3493 445.292 30.072 445.698 29.624C446.124 29.1547 446.53 28.4827 446.914 27.608C447.298 26.7333 447.756 25.5067 448.29 23.928L451.138 15.704C452.14 12.8027 452.642 11.0427 452.642 10.424C452.642 9.80533 452.492 9.41067 452.194 9.24C451.895 9.048 451.319 8.952 450.466 8.952L450.402 8.6H455.682L461.346 23.928C462.306 26.4667 462.946 28.0773 463.266 28.76C463.607 29.4427 463.927 29.88 464.226 30.072C464.759 30.4347 465.431 30.616 466.242 30.616L466.306 31H458.306L458.37 30.616ZM453.89 10.328L449.378 23.224H458.626L453.89 10.328Z" fill="#F9F9F9"/>
<path fill-rule="evenodd" clip-rule="evenodd" d="M126.294 5.88003C126.037 6.21584 125.618 6.84831 125.364 7.2856C124.619 8.56459 124.294 9.54281 124.294 10.5084C124.294 11.3737 124.573 12.047 125.162 12.6062L125.475 12.9032L125.519 12.2525C125.591 11.178 125.828 10.5706 126.372 10.0697L126.636 9.8258L127.052 10.1744C127.285 10.3689 127.685 10.6225 127.959 10.748C128.521 11.006 128.786 11.2376 129.032 11.6843C129.181 11.9551 129.205 12.0768 129.206 12.5529C129.206 12.8575 129.226 13.1067 129.25 13.1067C129.274 13.1067 129.431 12.9774 129.598 12.8194C130.199 12.2516 130.458 11.5519 130.323 10.8606C130.184 10.1468 129.524 9.20854 128.861 8.78085C128.366 8.46168 127.484 7.66775 127.181 7.26783C127.031 7.07065 126.855 6.77676 126.789 6.61473C126.651 6.27393 126.632 5.59029 126.756 5.39731C126.802 5.327 126.821 5.26953 126.8 5.26953C126.779 5.26953 126.551 5.54423 126.294 5.88003ZM118.152 11.5677C118.238 11.8958 118.138 12.3031 117.87 12.7091C117.743 12.9016 117.35 13.283 116.844 13.703C115.692 14.6604 115.339 15.1794 115.339 15.9137C115.339 16.33 115.597 16.8382 115.957 17.1286L116.19 17.3172L116.221 16.8447C116.266 16.1297 116.463 15.8638 117.228 15.4836C117.476 15.3601 117.794 15.158 117.933 15.0347L118.186 14.8106L118.393 14.995C118.809 15.3672 119.073 16.0819 119.079 16.8513L119.081 17.16L119.274 17.0033C119.54 16.7869 119.794 16.3716 119.924 15.9402C120.126 15.2718 119.923 14.2589 119.373 13.193C119.146 12.754 118.476 11.7528 118.213 11.4597L118.086 11.3177L118.152 11.5677ZM126.834 13.841V15.2569L124.478 15.275L122.122 15.2931L121.751 15.4408C120.791 15.8238 120.351 16.466 120.351 17.4872V17.9252L121.638 17.9438C122.822 17.9608 122.947 17.9725 123.206 18.0904C123.649 18.2914 123.939 18.5392 124.141 18.889L124.328 19.2117L124.346 24.278L124.364 29.3443L124.602 29.4C125.136 29.5253 125.559 29.9799 125.562 30.4317C125.565 30.779 125.38 31.2013 125.154 31.3627L124.946 31.511L129.917 31.4948C134.863 31.4785 134.888 31.4779 135.154 31.3559C136.084 30.9297 136.286 29.9376 135.567 29.3278C135.26 29.0673 134.91 28.9513 134.43 28.9513H134.121L134.103 22.8592L134.085 16.7672L133.867 16.3912C133.614 15.9536 133.251 15.6533 132.723 15.4427C132.35 15.2942 132.333 15.2929 130.509 15.2741L128.672 15.2552L128.814 15.3877C129.105 15.6577 129.377 16.2547 129.554 17.0121C129.636 17.359 129.666 18.107 129.699 20.5746C129.74 23.6462 129.743 23.702 129.887 23.9307C130.064 24.2114 130.445 24.5065 130.694 24.5565C131.307 24.6791 131.646 25.0502 131.646 25.5994C131.646 26.8985 129.578 26.9906 128.785 25.7268C128.385 25.0885 128.371 24.9526 128.343 21.4976C128.329 19.7719 128.284 17.9892 128.242 17.5363C128.115 16.155 127.905 15.2647 127.706 15.2647C127.659 15.2647 127.636 14.7995 127.636 13.8449V12.4252H127.235H126.834V13.841ZM117.41 17.8811C117.41 18.7443 117.391 18.9807 117.315 19.0454C117.044 19.2755 116.934 20.4489 116.882 23.6697C116.838 26.3575 116.83 26.4941 116.694 26.7824C116.616 26.9482 116.475 27.1692 116.381 27.2735C116.176 27.5028 115.598 27.7587 115.286 27.7587C114.73 27.7587 114.336 27.4144 114.337 26.9285C114.337 26.541 114.51 26.3207 114.915 26.1942C115.324 26.0667 115.658 25.8039 115.741 25.5454C115.776 25.4353 115.817 24.2845 115.831 22.9883C115.86 20.3581 115.896 20.0869 116.305 19.3931L116.533 19.0067L115.117 19.024C113.545 19.0432 113.403 19.0713 112.957 19.4504C112.465 19.8689 112.5 19.4701 112.48 24.763L112.462 29.5192H112.184C111.763 29.5192 111.358 29.7118 111.153 30.0098C111.006 30.222 110.983 30.3122 111.009 30.5747C111.059 31.0816 111.454 31.4139 112.084 31.4779C112.275 31.4973 114.87 31.5054 117.85 31.4959L123.268 31.4785L123.552 31.3186C123.862 31.1447 124.091 30.8018 124.091 30.513C124.091 30.1136 123.73 29.7082 123.256 29.5752L123.027 29.5112L123.009 24.7874C122.992 20.306 122.985 20.0533 122.866 19.8648C122.693 19.5873 122.37 19.3088 122.055 19.1641C121.804 19.0488 121.673 19.0395 119.917 19.0129L118.045 18.9845L118.027 17.8913L118.009 16.7981H117.71H117.41V17.8811Z" fill="#F9F9F9"/>
<path d="M21.3846 5.22H14.8066V19H8.35863V5.22H1.78063V0.799999H21.3846V5.22ZM46.1133 0.799999L37.8453 13.098V19H31.3973V13.098L22.9473 0.799999H30.5133L32.3853 3.92C33.4773 5.70533 34.2313 7.41267 34.6473 9.042H34.7513C35.1673 7.44733 35.9039 5.72267 36.9613 3.868L38.7293 0.799999H46.1133ZM67.2147 5.22H60.6367V19H54.1887V5.22H47.6107V0.799999H67.2147V5.22ZM21.4 41H1.76996V22.8H20.724V26.934H8.21796V29.82H18.904V33.824H8.21796V36.554H21.4V41ZM45.6509 31.77C45.6509 34.422 44.8015 36.6233 43.1029 38.374C41.4042 40.1247 39.1682 41 36.3949 41H23.7329V22.8H35.5109C36.8975 22.8 38.1802 22.9647 39.3589 23.294C40.5375 23.6233 41.6035 24.126 42.5569 24.802C43.5275 25.478 44.2815 26.414 44.8189 27.61C45.3735 28.7887 45.6509 30.1753 45.6509 31.77ZM38.7609 31.77C38.7609 28.5287 37.2789 26.908 34.3149 26.908H30.1809V36.58H34.3149C35.7362 36.58 36.8282 36.216 37.5909 35.488C38.3709 34.76 38.7609 33.5207 38.7609 31.77ZM69.0531 41H62.2151L61.3831 38.582H53.3231L52.4131 41H45.6531L53.6091 22.8H60.9671L69.0531 41ZM59.6671 34.24L57.2491 27.792L54.9611 34.24H59.6671Z" fill="white"/>
<line x1="90.5" y1="1" x2="90.5" y2="41" stroke="white"/>
</svg>
