<?xml version="1.0" encoding="utf-8"?>
<!-- Generator: Adobe Illustrator 24.3.0, SVG Export Plug-In . SVG Version: 6.00 Build 0)  -->
<svg version="1.1" id="Слой_1" xmlns="http://www.w3.org/2000/svg" xmlns:xlink="http://www.w3.org/1999/xlink" x="0px" y="0px"
	 viewBox="0 0 273 52" style="enable-background:new 0 0 273 52;" xml:space="preserve">
<style type="text/css">
	.st0{fill:#FFFFFF;}
	.st1{fill:#E70000;}
	.st2{fill:#4FD520;}
	.st3{fill:none;stroke:#222222;}
</style>
<path class="st0" d="M151.5,43c-0.1,0.2-0.2,0.5-0.4,0.8c-0.2,0.4-0.4,0.7-0.6,1c-0.2,0.3-0.4,0.6-0.7,0.9c-0.2,0.2-0.4,0.4-0.6,0.4
	c-0.1,0-0.2,0-0.2-0.1c0-0.1,0-0.1,0-0.2c0-0.1,0-0.2,0-0.2c0-0.1,0-0.2,0.1-0.3c0-0.1,0-0.1,0-0.1c0-0.1,0-0.1,0-0.2
	c0-0.2-0.1-0.4-0.2-0.5c-0.1-0.1-0.3-0.2-0.6-0.2c-0.6,0-1.1,0.2-1.3,0.5c-0.2,0.4-0.3,0.8-0.3,1.4c0,0.4,0.1,0.8,0.3,1
	c0.2,0.2,0.4,0.4,0.6,0.5c0.2,0.1,0.4,0.2,0.6,0.2c0.2,0,0.4,0,0.4,0c0.7,0,1.3-0.1,1.8-0.4c0.6-0.3,1.1-0.7,1.6-1.2
	c0.5-0.5,0.9-1,1.2-1.6c0.4-0.6,0.7-1.2,0.9-1.9c0.2-0.6,0.4-1.3,0.6-1.9c0.1-0.6,0.2-1.2,0.2-1.6c0-0.4-0.1-0.7-0.2-1
	c-0.2-0.3-0.4-0.6-0.6-0.8c-0.3-0.2-0.5-0.4-0.9-0.6c-0.3-0.1-0.7-0.2-1-0.2c-0.8,0-1.4,0.1-1.8,0.2s-0.8,0.4-1,0.6
	s-0.4,0.5-0.5,0.7c-0.1,0.3-0.1,0.5-0.1,0.7c0,0.2,0,0.4,0.1,0.4c0.1,0.1,0.3,0.1,0.4,0.1s0.3,0,0.5-0.1c0.2-0.1,0.3-0.1,0.4-0.2
	c0.2-0.1,0.5-0.2,0.8-0.3c0.3-0.1,0.6-0.2,0.8-0.2c0,0,0.1,0,0.1,0c0.1,0,0.1,0,0.2,0.1c0.1,0,0.1,0.1,0.1,0.2
	c0,0.1,0.1,0.2,0.1,0.4c0,0.2,0,0.4-0.1,0.7c0,0.2-0.1,0.5-0.2,0.7c-0.3,0-0.6,0-0.9,0c-0.3,0-0.5,0-0.9,0s-0.6,0-0.8,0.1
	c-0.2,0-0.3,0.1-0.4,0.2s-0.2,0.2-0.2,0.3c-0.1,0.1-0.1,0.2-0.1,0.4c-0.1,0.3-0.2,0.5-0.2,0.6c-0.1,0.1-0.1,0.3-0.1,0.4
	c0,0.1,0,0.2,0.1,0.3c0.1,0.1,0.2,0.2,0.4,0.2c0.2,0,0.4,0,0.4,0c0.1,0,0.2,0,0.3-0.1c0.1,0,0.3-0.1,0.6-0.1
	C150.5,43,150.9,43,151.5,43z M160.8,41.1c-0.1-0.3-0.2-0.6-0.4-0.8c-0.2-0.2-0.4-0.3-0.6-0.3c-0.2,0-0.3,0-0.5,0.1
	c-0.2,0.1-0.4,0.2-0.6,0.3c-0.2,0.1-0.4,0.2-0.5,0.4c-0.2,0.1-0.3,0.2-0.4,0.3c0-0.2,0.1-0.3,0.1-0.4c0.1-0.1,0.1-0.2,0.1-0.3
	c0-0.1,0-0.1-0.1-0.1c0-0.1-0.1-0.1-0.2-0.1c-0.1,0-0.1-0.1-0.2-0.1c-0.1,0-0.1-0.1-0.2-0.1c-0.1-0.1-0.3-0.1-0.4-0.2
	c-0.1-0.1-0.2-0.1-0.3-0.1c-0.2,0-0.3,0.1-0.4,0.2c-0.1,0.1-0.2,0.2-0.2,0.4c0,0.1-0.1,0.2-0.1,0.3c0,0.1,0,0.1-0.1,0.3
	c0,0.1-0.1,0.3-0.2,0.6c-0.1,0.3-0.2,0.7-0.4,1.2c-0.2,0.6-0.4,1.1-0.5,1.4c-0.1,0.3-0.2,0.6-0.3,0.8c-0.1,0.2-0.1,0.4-0.2,0.5
	c-0.1,0.1-0.1,0.3-0.3,0.6c-0.2,0.4-0.3,0.7-0.3,0.9c0,0.2-0.1,0.3-0.1,0.4c0,0.2,0.1,0.4,0.2,0.5c0.1,0.1,0.3,0.2,0.4,0.3
	c0.2,0.1,0.4,0.2,0.5,0.2c0.1,0.1,0.2,0.1,0.3,0.1c0.1,0,0.3,0,0.4-0.1c0.1-0.1,0.2-0.1,0.3-0.2c0.1-0.1,0.1-0.2,0.2-0.3
	c0.1-0.1,0.1-0.3,0.1-0.4c0.1-0.2,0.1-0.3,0.2-0.4c0.1-0.1,0.1-0.3,0.2-0.4c0.1-0.1,0.1-0.3,0.2-0.5c0.1-0.2,0.2-0.4,0.3-0.7
	c0.1-0.2,0.1-0.4,0.2-0.5c0-0.1,0.1-0.2,0.1-0.3s0.1-0.1,0.1-0.2c0-0.1,0.1-0.2,0.1-0.3c0.2-0.1,0.3-0.2,0.4-0.3
	c0.1-0.1,0.2-0.2,0.3-0.3c0.1-0.1,0.2-0.2,0.3-0.2c0.1-0.1,0.2-0.1,0.2-0.1c0.1,0,0.2,0.1,0.2,0.2c0,0.1,0,0.3-0.1,0.5
	c-0.1,0.2-0.1,0.4-0.2,0.6c-0.1,0.2-0.2,0.4-0.2,0.5c-0.1,0.2-0.1,0.3-0.1,0.3c-0.2,0.4-0.3,0.8-0.4,1c-0.1,0.3-0.2,0.5-0.3,0.6
	c-0.1,0.2-0.1,0.3-0.1,0.4c0,0.1,0,0.2,0,0.3c0,0.2,0.1,0.4,0.2,0.4c0.1,0.1,0.2,0.2,0.4,0.2c0.1,0.1,0.2,0.1,0.4,0.2
	c0.1,0.1,0.3,0.1,0.5,0.1c0.4,0,0.8-0.4,1.1-1.2c0.3-0.8,0.7-1.9,1.1-3.4c0.1-0.1,0.2-0.2,0.3-0.3c0.1-0.1,0.2-0.2,0.3-0.3
	c0.1-0.1,0.2-0.2,0.3-0.2c0.1-0.1,0.2-0.1,0.3-0.1c0.1,0,0.2,0,0.3,0.1c0,0.1,0,0.1,0,0.2c0,0.1,0,0.3-0.1,0.5
	c-0.1,0.2-0.1,0.5-0.2,0.7c-0.1,0.3-0.2,0.5-0.3,0.7c-0.1,0.2-0.1,0.4-0.2,0.5c-0.1,0.3-0.2,0.5-0.3,0.7c-0.1,0.2-0.2,0.3-0.3,0.5
	c-0.1,0.1-0.2,0.3-0.2,0.4c-0.1,0.1-0.1,0.2-0.1,0.3c0,0.2,0.1,0.4,0.2,0.5c0.1,0.1,0.2,0.2,0.4,0.3c0.1,0.1,0.3,0.2,0.4,0.3
	c0.1,0.1,0.3,0.1,0.4,0.1c0.1,0,0.3,0,0.4-0.1c0.1-0.1,0.2-0.1,0.3-0.2c0.1-0.1,0.2-0.2,0.2-0.3c0.1-0.1,0.1-0.2,0.1-0.3
	c0.6-1.3,1-2.4,1.2-3.3c0.2-0.9,0.3-1.5,0.3-1.9c0-0.2,0-0.4-0.1-0.6c-0.1-0.2-0.2-0.4-0.3-0.6c-0.1-0.2-0.3-0.4-0.5-0.5
	c-0.2-0.1-0.4-0.2-0.6-0.2c-0.2,0-0.3,0-0.5,0.1c-0.2,0.1-0.4,0.1-0.5,0.2c-0.2,0.1-0.3,0.2-0.5,0.2C160.9,41,160.8,41.1,160.8,41.1
	z M169.3,41.1c0-0.1-0.1-0.3-0.1-0.4c0-0.1-0.1-0.3-0.2-0.4c-0.1-0.1-0.1-0.2-0.3-0.3c-0.1-0.1-0.2-0.1-0.4-0.1
	c-0.1,0-0.4,0.1-0.6,0.2c-0.2,0.1-0.5,0.3-0.8,0.5c-0.3,0.2-0.5,0.4-0.7,0.6c-0.2,0.2-0.4,0.3-0.4,0.4c-0.6,0.6-1,1.2-1.3,1.9
	c-0.3,0.7-0.4,1.3-0.4,2c0,0.3,0,0.6,0.1,1c0.1,0.3,0.2,0.6,0.4,0.8s0.4,0.5,0.7,0.6c0.3,0.2,0.6,0.2,1,0.2c0.5,0,1.1-0.2,1.6-0.5
	c0.5-0.3,1-0.8,1.4-1.3c0.4-0.5,0.7-1.1,1-1.6c0.2-0.6,0.4-1.2,0.4-1.7c0-0.6-0.1-1-0.4-1.3C170.2,41.5,169.8,41.2,169.3,41.1z
	 M168.5,42.1c0,0.1,0.1,0.2,0.1,0.2c0,0.1,0,0.2,0,0.3c0,0.3-0.1,0.7-0.2,1.1c-0.1,0.4-0.3,0.8-0.5,1.2c-0.2,0.4-0.4,0.7-0.7,0.9
	c-0.2,0.2-0.4,0.4-0.6,0.4c-0.1,0-0.2-0.1-0.2-0.2c0-0.1,0-0.2,0-0.3c0-0.3,0.1-0.7,0.2-1.1c0.1-0.4,0.3-0.7,0.5-1.1
	c0.2-0.4,0.4-0.7,0.7-0.9C168,42.4,168.2,42.2,168.5,42.1z M175.2,42c0,0.2,0,0.3,0.1,0.4c0.1,0.1,0.2,0.1,0.4,0.1
	c0.2,0,0.4,0,0.6-0.1c0.2-0.1,0.5-0.2,0.7-0.3c0.2-0.1,0.4-0.2,0.6-0.3c0.2-0.1,0.4-0.1,0.5-0.1c0.1,0,0.1,0,0.2,0.1
	c0,0.1,0.1,0.2,0.1,0.3c0,0.1-0.1,0.3-0.2,0.4c-0.1,0.1-0.3,0.2-0.5,0.3c-0.2,0.1-0.4,0.2-0.6,0.3c-0.2,0.1-0.4,0.1-0.6,0.2
	c-0.3,0.1-0.5,0.2-0.8,0.4c-0.3,0.1-0.6,0.3-0.8,0.5s-0.5,0.5-0.6,0.8c-0.2,0.3-0.2,0.6-0.2,1c0,0.2,0,0.4,0.1,0.6
	c0.1,0.2,0.2,0.5,0.3,0.7c0.2,0.2,0.4,0.4,0.7,0.6c0.3,0.2,0.7,0.2,1.2,0.2c0.3,0,0.5,0,0.8-0.1c0.3,0,0.5-0.1,0.8-0.2
	c0.4-0.1,0.7-0.3,0.9-0.4c0.2-0.1,0.4-0.2,0.4-0.4c0.1-0.1,0.2-0.2,0.2-0.3c0-0.1,0-0.2,0.1-0.3c0-0.1,0.1-0.3,0.1-0.4
	c0-0.1,0.1-0.2,0.1-0.4c0-0.2-0.1-0.3-0.3-0.4c-0.2-0.1-0.4-0.1-0.6,0c-0.1,0-0.2,0.1-0.3,0.1c-0.1,0-0.1,0.1-0.2,0.1
	c-0.1,0-0.1,0.1-0.3,0.2c-0.1,0.1-0.2,0.1-0.4,0.2c-0.4,0.2-0.7,0.3-0.8,0.3c-0.2,0-0.2,0-0.3,0c-0.1,0-0.2,0-0.3-0.1
	c0-0.1,0-0.2,0-0.3c0-0.1,0.1-0.2,0.2-0.4c0.2-0.1,0.5-0.3,1-0.5c0.2-0.1,0.5-0.2,0.9-0.4c0.4-0.2,0.7-0.4,1.1-0.6
	c0.4-0.2,0.7-0.5,0.9-0.9c0.3-0.3,0.4-0.7,0.4-1.2c0-0.2,0-0.5-0.1-0.7c-0.1-0.2-0.2-0.5-0.4-0.7c-0.2-0.2-0.4-0.4-0.7-0.5
	c-0.3-0.1-0.6-0.2-1-0.2c-0.6,0-1.2,0.1-1.6,0.2c-0.4,0.1-0.7,0.3-1,0.6c-0.2,0.2-0.4,0.4-0.5,0.7C175.2,41.6,175.2,41.8,175.2,42z
	 M183.8,47.2c0,0.1,0,0.2,0,0.3c0,0.2,0,0.3,0.1,0.4s0.1,0.2,0.2,0.2c0.1,0.1,0.2,0.1,0.3,0.1c0.1,0,0.2,0,0.3,0.1
	c0.2,0,0.3,0.1,0.4,0.1c0.1,0,0.2,0,0.3,0c0.1,0,0.2,0,0.3-0.1c0.1-0.1,0.1-0.2,0.2-0.3c0-0.1,0.1-0.2,0.1-0.4c0-0.1,0-0.3,0-0.4
	c0-0.1,0-0.3,0-0.5c0-0.2,0-0.5,0.1-0.7c0-0.3,0.1-0.5,0.2-0.8c0.1-0.3,0.2-0.6,0.3-0.9c0.2-0.6,0.4-1.1,0.5-1.4
	c0.2-0.4,0.3-0.7,0.5-0.9c0.1-0.2,0.2-0.4,0.3-0.6c0.1-0.2,0.1-0.3,0.1-0.5c0-0.2-0.1-0.3-0.2-0.4c-0.1-0.1-0.2-0.2-0.4-0.3
	c-0.1-0.1-0.2-0.2-0.3-0.2c-0.1-0.1-0.2-0.1-0.4-0.2c-0.1,0-0.3,0-0.4,0.2c-0.1,0.1-0.3,0.3-0.4,0.7c-0.1-0.2-0.3-0.3-0.4-0.4
	c-0.1-0.1-0.3-0.1-0.4-0.1c-0.2,0-0.5,0.1-0.8,0.3c-0.3,0.2-0.7,0.4-1,0.6c-0.3,0.2-0.7,0.5-1,0.8c-0.3,0.3-0.5,0.5-0.7,0.6
	c-0.4,0.5-0.8,1.1-1,1.6c-0.2,0.6-0.4,1.1-0.4,1.7c0,0.3,0,0.6,0.1,0.9c0.1,0.3,0.2,0.6,0.3,0.8c0.1,0.2,0.3,0.4,0.6,0.6
	s0.5,0.2,0.8,0.2c0.4,0,0.7-0.1,0.9-0.3C183.3,47.7,183.5,47.5,183.8,47.2L183.8,47.2z M185,42.4c-0.2,0.7-0.4,1.2-0.6,1.7
	c-0.2,0.4-0.4,0.8-0.6,1.1c-0.2,0.3-0.3,0.4-0.5,0.5c-0.1,0.1-0.3,0.2-0.3,0.2c-0.1,0-0.1,0-0.2-0.1c0-0.1-0.1-0.2-0.1-0.3
	c0-0.3,0.1-0.6,0.2-0.9c0.1-0.3,0.3-0.6,0.5-0.9c0.2-0.3,0.5-0.5,0.7-0.8C184.4,42.6,184.7,42.5,185,42.4z M189.4,47.4
	c0.1,0.1,0.1,0.2,0.2,0.2c0.1,0.1,0.1,0.2,0.2,0.2c0.1,0.1,0.1,0.1,0.2,0.2c0.1,0.1,0.2,0.1,0.3,0.1c0.2,0,0.5-0.1,0.8-0.3
	c0.3-0.2,0.6-0.4,1-0.7c0.3-0.3,0.7-0.6,1-1c0.3-0.4,0.6-0.8,0.9-1.2s0.5-0.8,0.6-1.2c0.2-0.4,0.2-0.8,0.2-1.2c0-0.3,0-0.6-0.1-0.9
	c-0.1-0.3-0.2-0.6-0.3-0.8s-0.3-0.4-0.5-0.6s-0.5-0.2-0.7-0.2c-0.4,0-0.7,0.1-1,0.2c0-0.2,0.1-0.3,0.1-0.4c0-0.1,0-0.1,0-0.1
	c0-0.1-0.1-0.2-0.2-0.3c-0.1-0.1-0.2-0.2-0.4-0.3c-0.1-0.1-0.3-0.2-0.5-0.2c-0.2-0.1-0.4-0.1-0.5-0.1c-0.1,0-0.3,0.1-0.4,0.2
	c-0.1,0.1-0.2,0.3-0.2,0.4c-0.1,0.2-0.1,0.3-0.1,0.5c0,0.2-0.1,0.4-0.1,0.5c-0.1,0-0.3,0.1-0.4,0.1c-0.1,0.1-0.3,0.1-0.4,0.2
	c-0.1,0.1-0.2,0.2-0.3,0.3c-0.1,0.1-0.1,0.2-0.1,0.3c0,0.1,0,0.2,0,0.3c0,0.1,0,0.3,0.1,0.4c0,0.1,0.1,0.3,0.1,0.4
	c0.1,0.1,0.1,0.3,0.2,0.3c-0.3,0.9-0.6,1.6-0.9,2.1c-0.2,0.6-0.4,1-0.6,1.4s-0.3,0.6-0.4,0.8c-0.1,0.2-0.2,0.4-0.2,0.5
	c-0.1,0.1-0.1,0.2-0.2,0.4c-0.1,0.1-0.1,0.3-0.2,0.4c-0.1,0.2-0.2,0.4-0.2,0.5c-0.1,0.1-0.1,0.2-0.1,0.3c0,0.1-0.1,0.1-0.1,0.2
	c0,0,0,0.1,0,0.1c0,0.1,0.1,0.2,0.2,0.4c0.1,0.1,0.3,0.3,0.5,0.4c0.2,0.1,0.3,0.3,0.5,0.3c0.2,0.1,0.3,0.1,0.4,0.1
	c0.1,0,0.2,0,0.3-0.1c0.1-0.1,0.2-0.2,0.2-0.3c0.1-0.1,0.1-0.3,0.2-0.4c0.1-0.1,0.1-0.3,0.2-0.4c0.1-0.3,0.2-0.6,0.3-0.8
	c0.1-0.2,0.1-0.3,0.2-0.4c0-0.1,0.1-0.1,0.1-0.2c0-0.1,0.1-0.2,0.1-0.3c0.1-0.1,0.1-0.3,0.1-0.3C189.3,47.6,189.3,47.5,189.4,47.4z
	 M190.1,45.6c0-0.1,0.1-0.3,0.1-0.4c0-0.1,0.1-0.3,0.2-0.5c0.1-0.2,0.2-0.5,0.3-0.9c0.1-0.4,0.3-0.8,0.5-1.4c0,0,0.1-0.1,0.3-0.1
	c0.2-0.1,0.3-0.1,0.5-0.1c0.3,0,0.4,0.1,0.4,0.4c0,0.2-0.1,0.5-0.2,0.7c-0.1,0.3-0.3,0.6-0.5,0.8c-0.2,0.3-0.5,0.6-0.8,0.8
	C190.7,45.2,190.4,45.5,190.1,45.6z M197.9,47.2c0,0.1,0,0.2,0,0.3c0,0.2,0,0.3,0.1,0.4s0.1,0.2,0.2,0.2c0.1,0.1,0.2,0.1,0.3,0.1
	s0.2,0,0.3,0.1c0.2,0,0.3,0.1,0.4,0.1c0.1,0,0.2,0,0.3,0c0.1,0,0.2,0,0.3-0.1c0.1-0.1,0.1-0.2,0.2-0.3c0-0.1,0.1-0.2,0.1-0.4
	c0-0.1,0-0.3,0-0.4c0-0.1,0-0.3,0-0.5c0-0.2,0-0.5,0.1-0.7c0-0.3,0.1-0.5,0.2-0.8c0.1-0.3,0.2-0.6,0.3-0.9c0.2-0.6,0.4-1.1,0.5-1.4
	c0.2-0.4,0.3-0.7,0.5-0.9c0.1-0.2,0.2-0.4,0.3-0.6c0.1-0.2,0.1-0.3,0.1-0.5c0-0.2-0.1-0.3-0.2-0.4c-0.1-0.1-0.2-0.2-0.4-0.3
	c-0.1-0.1-0.2-0.2-0.3-0.2c-0.1-0.1-0.2-0.1-0.4-0.2c-0.1,0-0.3,0-0.4,0.2c-0.1,0.1-0.3,0.3-0.4,0.7c-0.1-0.2-0.3-0.3-0.4-0.4
	c-0.1-0.1-0.3-0.1-0.4-0.1c-0.2,0-0.5,0.1-0.8,0.3c-0.3,0.2-0.7,0.4-1,0.6c-0.3,0.2-0.7,0.5-1,0.8c-0.3,0.3-0.5,0.5-0.7,0.6
	c-0.4,0.5-0.8,1.1-1,1.6c-0.2,0.6-0.4,1.1-0.4,1.7c0,0.3,0,0.6,0.1,0.9c0.1,0.3,0.2,0.6,0.3,0.8c0.1,0.2,0.3,0.4,0.6,0.6
	s0.5,0.2,0.8,0.2c0.4,0,0.7-0.1,0.9-0.3C197.4,47.7,197.6,47.5,197.9,47.2L197.9,47.2z M199,42.4c-0.2,0.7-0.4,1.2-0.6,1.7
	c-0.2,0.4-0.4,0.8-0.6,1.1c-0.2,0.3-0.3,0.4-0.5,0.5s-0.3,0.2-0.3,0.2c-0.1,0-0.1,0-0.2-0.1c0-0.1-0.1-0.2-0.1-0.3
	c0-0.3,0.1-0.6,0.2-0.9c0.1-0.3,0.3-0.6,0.5-0.9c0.2-0.3,0.5-0.5,0.7-0.8C198.5,42.6,198.8,42.5,199,42.4z M205.3,42.7
	c0.1-0.3,0.2-0.6,0.2-0.8c0.1-0.2,0.1-0.4,0.2-0.5c0-0.1,0.1-0.2,0.1-0.3c0-0.1,0-0.2,0-0.2c0-0.1,0-0.2-0.1-0.3
	c0-0.1-0.1-0.1-0.2-0.2c-0.1-0.1-0.2-0.1-0.3-0.1c-0.1,0-0.2-0.1-0.4-0.1c-0.3-0.1-0.5-0.1-0.7-0.1c-0.2,0-0.3,0.2-0.4,0.4
	c-0.1,0.2-0.2,0.5-0.4,0.9c-0.1,0.4-0.3,0.9-0.5,1.5c-0.3,0-0.5,0.1-0.7,0.2c-0.1,0.1-0.3,0.2-0.3,0.3c-0.1,0.1-0.1,0.2-0.1,0.4
	c0,0.1,0,0.2,0,0.3c0,0.2,0,0.4,0,0.5c0,0.1,0,0.2,0,0.3c0,0.1,0,0.1,0.1,0.2c0,0,0.1,0.1,0.2,0.1c-0.1,0.2-0.2,0.4-0.3,0.6
	c-0.1,0.2-0.2,0.4-0.3,0.6c-0.1,0.2-0.2,0.4-0.2,0.5c-0.1,0.2-0.1,0.3-0.1,0.4c0,0.1,0,0.2,0.1,0.3c0.1,0.1,0.1,0.1,0.2,0.2
	c0.1,0,0.1,0.1,0.2,0.1c0.1,0,0.2,0.1,0.2,0.1c0.2,0.1,0.3,0.2,0.4,0.4c0.1,0.1,0.3,0.2,0.5,0.2c0.2,0,0.4-0.1,0.5-0.3
	c0.1-0.2,0.2-0.4,0.3-0.6c0.1-0.2,0.2-0.4,0.2-0.6c0.1-0.2,0.1-0.4,0.2-0.6c0.1-0.2,0.1-0.4,0.2-0.6c0.1-0.2,0.2-0.5,0.3-0.8
	c0.3-0.1,0.6-0.1,0.9-0.1c-0.1,0.2-0.1,0.4-0.2,0.6c-0.1,0.2-0.1,0.4-0.2,0.6c-0.1,0.2-0.1,0.4-0.1,0.6c0,0.2,0,0.4,0,0.5
	c0,0.3,0,0.5,0.1,0.7c0.1,0.2,0.2,0.3,0.3,0.4c0.1,0.1,0.2,0.2,0.4,0.2c0.1,0,0.3,0.1,0.4,0.1c0.1,0,0.3,0.1,0.4,0.1
	c0.2,0,0.3,0,0.4,0c0.1-0.1,0.2-0.2,0.3-0.4c0.1-0.2,0.1-0.6,0.2-1.1c0-0.3,0-0.7,0.1-1.1c0.1-0.4,0.2-0.8,0.3-1.2
	c0.2-0.5,0.4-1,0.5-1.4c0.2-0.4,0.3-0.7,0.5-1c0.1-0.3,0.3-0.5,0.3-0.7c0.1-0.2,0.1-0.4,0.1-0.6c0-0.2-0.1-0.4-0.2-0.4
	c-0.1-0.1-0.3-0.2-0.4-0.3c-0.1-0.1-0.2-0.2-0.3-0.2c-0.1-0.1-0.2-0.1-0.4-0.1c-0.2,0-0.3,0.1-0.4,0.2c-0.1,0.1-0.2,0.3-0.4,0.5
	c-0.1,0.2-0.3,0.5-0.4,0.9c-0.1,0.4-0.3,0.8-0.5,1.3c-0.1,0-0.2,0-0.2,0c-0.1,0-0.2,0-0.2,0c-0.1,0-0.2,0-0.2,0
	C205.4,42.7,205.4,42.7,205.3,42.7z M215.4,41.1c-0.1-0.3-0.2-0.6-0.4-0.8c-0.2-0.2-0.4-0.3-0.6-0.3c-0.1,0-0.3,0-0.5,0.1
	c-0.2,0.1-0.4,0.2-0.6,0.3c-0.2,0.1-0.4,0.2-0.5,0.4c-0.2,0.1-0.3,0.2-0.4,0.3c0-0.2,0.1-0.3,0.1-0.4c0.1-0.1,0.1-0.2,0.1-0.3
	c0-0.1,0-0.1-0.1-0.1c0-0.1-0.1-0.1-0.2-0.1c-0.1,0-0.1-0.1-0.2-0.1c-0.1,0-0.1-0.1-0.2-0.1c-0.1-0.1-0.3-0.1-0.4-0.2
	c-0.1-0.1-0.2-0.1-0.3-0.1c-0.2,0-0.3,0.1-0.4,0.2c-0.1,0.1-0.2,0.2-0.2,0.4c0,0.1-0.1,0.2-0.1,0.3c0,0.1,0,0.1-0.1,0.3
	c0,0.1-0.1,0.3-0.2,0.6c-0.1,0.3-0.2,0.7-0.4,1.2c-0.2,0.6-0.4,1.1-0.5,1.4c-0.1,0.3-0.2,0.6-0.3,0.8c-0.1,0.2-0.1,0.4-0.2,0.5
	c-0.1,0.1-0.1,0.3-0.3,0.6c-0.2,0.4-0.3,0.7-0.3,0.9c0,0.2-0.1,0.3-0.1,0.4c0,0.2,0.1,0.4,0.2,0.5c0.1,0.1,0.3,0.2,0.4,0.3
	c0.2,0.1,0.4,0.2,0.5,0.2c0.1,0.1,0.2,0.1,0.3,0.1c0.1,0,0.3,0,0.4-0.1c0.1-0.1,0.2-0.1,0.3-0.2c0.1-0.1,0.1-0.2,0.2-0.3
	c0.1-0.1,0.1-0.3,0.1-0.4c0.1-0.2,0.1-0.3,0.2-0.4c0.1-0.1,0.1-0.3,0.2-0.4c0.1-0.1,0.1-0.3,0.2-0.5c0.1-0.2,0.2-0.4,0.3-0.7
	c0.1-0.2,0.1-0.4,0.2-0.5c0-0.1,0.1-0.2,0.1-0.3c0-0.1,0.1-0.1,0.1-0.2c0-0.1,0.1-0.2,0.1-0.3c0.2-0.1,0.3-0.2,0.4-0.3
	c0.1-0.1,0.2-0.2,0.3-0.3c0.1-0.1,0.2-0.2,0.3-0.2c0.1-0.1,0.2-0.1,0.2-0.1c0.1,0,0.2,0.1,0.2,0.2c0,0.1,0,0.3-0.1,0.5
	c-0.1,0.2-0.1,0.4-0.2,0.6c-0.1,0.2-0.1,0.4-0.2,0.5c-0.1,0.2-0.1,0.3-0.1,0.3c-0.2,0.4-0.3,0.8-0.4,1c-0.1,0.3-0.2,0.5-0.3,0.6
	c-0.1,0.2-0.1,0.3-0.1,0.4c0,0.1,0,0.2,0,0.3c0,0.2,0.1,0.4,0.2,0.4c0.1,0.1,0.2,0.2,0.4,0.2c0.1,0.1,0.2,0.1,0.4,0.2
	c0.1,0.1,0.3,0.1,0.5,0.1c0.4,0,0.8-0.4,1.1-1.2c0.3-0.8,0.7-1.9,1.1-3.4c0.1-0.1,0.2-0.2,0.3-0.3c0.1-0.1,0.2-0.2,0.3-0.3
	c0.1-0.1,0.2-0.2,0.3-0.2c0.1-0.1,0.2-0.1,0.3-0.1c0.1,0,0.2,0,0.3,0.1c0,0.1,0,0.1,0,0.2c0,0.1,0,0.3-0.1,0.5
	c-0.1,0.2-0.1,0.5-0.2,0.7s-0.2,0.5-0.3,0.7c-0.1,0.2-0.1,0.4-0.2,0.5c-0.1,0.3-0.2,0.5-0.3,0.7c-0.1,0.2-0.2,0.3-0.3,0.5
	c-0.1,0.1-0.2,0.3-0.2,0.4c-0.1,0.1-0.1,0.2-0.1,0.3c0,0.2,0.1,0.4,0.2,0.5c0.1,0.1,0.2,0.2,0.4,0.3c0.1,0.1,0.3,0.2,0.4,0.3
	c0.1,0.1,0.3,0.1,0.4,0.1c0.1,0,0.3,0,0.4-0.1c0.1-0.1,0.2-0.1,0.3-0.2c0.1-0.1,0.2-0.2,0.2-0.3c0.1-0.1,0.1-0.2,0.1-0.3
	c0.6-1.3,1-2.4,1.2-3.3c0.2-0.9,0.3-1.5,0.3-1.9c0-0.2,0-0.4-0.1-0.6c-0.1-0.2-0.2-0.4-0.3-0.6c-0.1-0.2-0.3-0.4-0.5-0.5
	c-0.2-0.1-0.4-0.2-0.6-0.2c-0.2,0-0.3,0-0.5,0.1c-0.2,0.1-0.4,0.1-0.5,0.2c-0.2,0.1-0.3,0.2-0.5,0.2C215.6,41,215.5,41.1,215.4,41.1
	z M222.1,47.2c-0.1,0.2-0.1,0.4,0,0.6c0.1,0.2,0.2,0.3,0.4,0.4c0.2,0.1,0.4,0.2,0.6,0.2c0.2,0.1,0.4,0.1,0.5,0.1
	c0.1,0,0.2,0,0.3-0.1c0.1-0.1,0.1-0.1,0.2-0.2c0-0.1,0.1-0.2,0.1-0.3c0-0.1,0-0.2,0-0.4c0-0.6,0.1-1.2,0.3-1.7
	c0.1-0.6,0.3-1.1,0.5-1.5c0.2-0.5,0.4-0.9,0.6-1.2c0.2-0.4,0.4-0.6,0.5-0.9c0.1-0.2,0.2-0.4,0.3-0.5c0.1-0.1,0.1-0.3,0.1-0.5
	c0-0.1,0-0.2-0.1-0.4c-0.1-0.1-0.2-0.3-0.3-0.4c-0.1-0.1-0.3-0.2-0.4-0.3c-0.1-0.1-0.3-0.1-0.4-0.1c-0.2,0-0.4,0.1-0.5,0.3
	c-0.1,0.2-0.3,0.3-0.3,0.5c-0.3,0.5-0.6,1.1-1,1.9c-0.4,0.8-0.8,1.7-1.2,2.9c-0.3,0.2-0.6,0.4-0.7,0.4c-0.1,0.1-0.3,0.1-0.3,0.1
	c-0.3,0-0.4-0.1-0.4-0.3c0-0.1,0-0.2,0-0.3c0-0.1,0.1-0.3,0.2-0.5c0.1-0.2,0.2-0.5,0.4-0.9c0.2-0.4,0.4-0.8,0.7-1.3
	c0.2-0.4,0.4-0.7,0.5-0.9c0.1-0.2,0.2-0.4,0.3-0.6c0.1-0.1,0.1-0.2,0.1-0.3c0-0.1,0-0.1,0-0.1c0-0.1-0.1-0.2-0.2-0.3
	c-0.1-0.1-0.2-0.2-0.4-0.3c-0.1-0.1-0.3-0.2-0.4-0.2c-0.1-0.1-0.3-0.1-0.3-0.1c-0.2,0-0.4,0.1-0.7,0.4c-0.2,0.3-0.5,0.6-0.7,1
	c-0.2,0.4-0.4,0.9-0.7,1.3c-0.2,0.5-0.4,0.9-0.6,1.4c-0.2,0.4-0.3,0.8-0.4,1.2c-0.1,0.3-0.1,0.6-0.1,0.7c0,0.2,0,0.5,0.1,0.7
	c0.1,0.3,0.2,0.5,0.3,0.7c0.1,0.2,0.3,0.4,0.4,0.5c0.2,0.1,0.4,0.2,0.6,0.2c0.1,0,0.1,0,0.2,0c0.1,0,0.2,0,0.4-0.1
	c0.2-0.1,0.4-0.2,0.6-0.3C221.5,47.6,221.8,47.4,222.1,47.2z M229.6,45.1c-0.1,0.4-0.2,0.7-0.3,0.9c-0.1,0.2-0.1,0.5-0.2,0.6
	c0,0.2-0.1,0.3-0.1,0.5c0,0.1,0,0.3,0,0.4c0,0.1,0,0.3,0.1,0.3c0.1,0.1,0.1,0.2,0.2,0.2c0.1,0.1,0.2,0.1,0.3,0.1
	c0.1,0,0.2,0.1,0.3,0.1c0.2,0.1,0.3,0.1,0.4,0.1c0.1,0,0.2,0.1,0.3,0.1c0.1,0,0.3-0.1,0.4-0.2c0.1-0.1,0.2-0.2,0.2-0.4
	c0.1-0.1,0.1-0.3,0.1-0.5c0-0.2,0-0.3,0.1-0.5c0-0.3,0.1-0.6,0.2-1.1c0.1-0.5,0.2-1,0.4-1.5c0.1-0.5,0.3-1,0.4-1.4
	c0.1-0.4,0.3-0.8,0.3-0.9c0.1-0.2,0.2-0.4,0.2-0.6c0.1-0.2,0.1-0.3,0.1-0.5c0-0.2-0.1-0.4-0.2-0.5c-0.1-0.1-0.3-0.2-0.4-0.3
	c-0.1-0.1-0.2-0.1-0.4-0.2c-0.1-0.1-0.2-0.1-0.4-0.1c-0.2,0-0.3,0.1-0.5,0.2c-0.1,0.1-0.2,0.3-0.3,0.4c0-0.1-0.1-0.3-0.2-0.4
	c-0.1-0.1-0.2-0.2-0.4-0.2c-0.1,0-0.3,0-0.6,0.1c-0.3,0.1-0.5,0.2-0.8,0.3c-0.3,0.1-0.6,0.3-0.9,0.5c-0.3,0.2-0.6,0.4-0.9,0.7
	c-0.3,0.3-0.5,0.5-0.6,0.8c-0.2,0.3-0.2,0.6-0.2,1c0,0.2,0,0.4,0.1,0.6c0.1,0.2,0.2,0.4,0.3,0.6c0.1,0.2,0.3,0.3,0.5,0.4
	c0.2,0.1,0.4,0.2,0.7,0.2c-0.4,0.3-0.7,0.6-1.1,0.8c-0.4,0.2-0.7,0.4-1,0.5c-0.3,0.1-0.5,0.3-0.7,0.4c-0.2,0.1-0.3,0.3-0.3,0.5
	c0,0.1,0.1,0.2,0.2,0.4c0.1,0.2,0.2,0.3,0.4,0.5c0.1,0.2,0.3,0.3,0.4,0.4c0.1,0.1,0.3,0.2,0.4,0.2c0.2,0,0.3-0.1,0.5-0.2
	c0.2-0.1,0.4-0.3,0.7-0.5c0.2-0.2,0.5-0.5,0.7-0.8c0.2-0.3,0.4-0.5,0.6-0.8c0.2-0.3,0.4-0.5,0.5-0.8c0.1-0.2,0.3-0.4,0.3-0.6
	L229.6,45.1z M230.4,42c-0.1,0.2-0.1,0.4-0.2,0.6c-0.1,0.2-0.1,0.4-0.2,0.6c-0.4,0.2-0.6,0.3-0.8,0.4c-0.2,0-0.3,0.1-0.3,0.1
	c-0.2,0-0.3,0-0.4-0.1c0-0.1,0-0.2,0-0.3c0-0.2,0.2-0.5,0.5-0.7C229.4,42.3,229.8,42.1,230.4,42z M238.6,38.4c0-0.1-0.1-0.3-0.2-0.4
	c-0.1-0.2-0.3-0.3-0.4-0.5c-0.2-0.1-0.3-0.3-0.5-0.4c-0.2-0.1-0.3-0.1-0.4-0.1c-0.2,0-0.3,0.1-0.5,0.2c-0.1,0.2-0.3,0.4-0.4,0.7
	c-0.1,0.3-0.3,0.6-0.4,1c-0.1,0.4-0.3,0.8-0.5,1.2c-0.2,0.4-0.3,0.8-0.5,1.2c-0.2,0.4-0.3,0.8-0.4,1.1c-0.1,0.3-0.2,0.6-0.3,0.9
	c-0.1,0.3-0.1,0.4-0.1,0.6c0,0.1,0,0.3,0.1,0.4c0.1,0.1,0.2,0.3,0.4,0.4c0.1,0.1,0.3,0.3,0.4,0.4c0.1,0.1,0.3,0.1,0.4,0.1
	c0.2,0,0.3-0.1,0.4-0.2c0.1-0.1,0.2-0.3,0.3-0.4c0.1-0.2,0.2-0.4,0.2-0.5c0.1-0.2,0.1-0.4,0.2-0.6c0.1-0.4,0.3-0.7,0.4-1
	c0.1-0.3,0.3-0.6,0.4-0.8c0.1-0.3,0.3-0.5,0.4-0.7c0.1-0.2,0.2-0.5,0.4-0.7c0.2-0.5,0.4-0.9,0.6-1.2
	C238.5,38.9,238.6,38.6,238.6,38.4z M235.2,46.8c0-0.3-0.1-0.5-0.3-0.6c-0.2-0.2-0.5-0.3-0.9-0.5c-0.1-0.1-0.2-0.1-0.4-0.1
	c-0.2,0-0.3,0.1-0.5,0.2c-0.1,0.1-0.3,0.3-0.4,0.4c-0.1,0.2-0.2,0.4-0.2,0.6c-0.1,0.2-0.1,0.4-0.1,0.6c0,0.2,0.1,0.4,0.2,0.6
	c0.1,0.2,0.3,0.3,0.5,0.5c0.2,0.1,0.4,0.2,0.6,0.3c0.2,0.1,0.4,0.1,0.6,0.1c0.2,0,0.4-0.1,0.4-0.2c0.1-0.1,0.1-0.3,0.1-0.4
	c0-0.2,0.1-0.4,0.1-0.5c0.1-0.1,0.1-0.3,0.1-0.4c0-0.1,0.1-0.2,0.1-0.3S235.2,47,235.2,46.8z"/>
<path class="st1" d="M124.1,27.9c-0.1,0-0.2,0-0.4,0s-0.4,0-0.6,0.1c-0.2,0-0.4,0-0.6,0.1s-0.4,0-0.6,0c-0.2,0-0.4,0-0.5-0.1
	c-0.1-0.1-0.2-0.3-0.2-0.6c0-0.1,0-0.3,0.1-0.4c0.1-0.2,0.2-0.4,0.3-0.8c0.1-0.3,0.3-0.8,0.6-1.4c0.2-0.6,0.5-1.3,0.9-2.3
	c0.8-2.2,1.5-3.9,1.9-5c0.4-1.2,0.8-2.1,1-2.7c0.2-0.6,0.4-1.1,0.5-1.5c0.1-0.3,0.2-0.7,0.4-1.2c0.1-0.4,0.3-0.7,0.3-0.9
	c0.1-0.2,0.1-0.5,0.1-0.6c0-0.5-0.2-0.9-0.5-1.2c-0.4-0.3-0.7-0.6-1.1-0.9c-0.3-0.3-0.7-0.6-1.1-0.9c-0.4-0.3-0.9-0.5-1.3-0.5
	c-0.4,0-0.7,0.2-0.9,0.5c-0.2,0.3-0.3,0.6-0.4,0.9c-0.3,0.7-0.5,1.4-0.6,1.9c-0.1,0.5-0.3,1-0.4,1.4c-0.1,0.5-0.2,1-0.4,1.6
	c-0.1,0.6-0.3,1.3-0.6,2.2c-0.3,0.9-0.6,2.1-1.1,3.4c-0.5,1.4-1.1,3.1-1.8,5.1c-0.4,1.1-0.7,2-0.9,2.7c-0.2,0.7-0.3,1.3-0.3,1.8
	c0,0.1,0,0.4,0.1,0.9c0.1,0.5,0.2,0.9,0.5,1.4c0.3,0.5,0.7,0.9,1.2,1.3c0.6,0.4,1.3,0.6,2.2,0.6c0.5,0,0.9,0,1.3,0
	c0.4,0,0.9,0,1.5-0.1c0.6,0,1.3,0,2.2-0.1c0.8,0,1.9-0.1,3.2-0.1c1.5,0,2.7-0.1,3.7-0.1c1,0,1.8,0,2.5-0.1c0.7-0.1,1.2-0.2,1.7-0.4
	c0.4-0.1,0.8-0.4,1.1-0.7c0.3-0.4,0.5-0.8,0.8-1.3c0.2-0.6,0.5-1.2,0.8-2.1c0.2-0.7,0.4-1.2,0.6-1.7c0.2-0.5,0.3-0.9,0.5-1.5
	c0.2-0.6,0.4-1.2,0.7-2c0.3-0.8,0.7-1.8,1.2-3.1c0.7-1.8,1.2-3.3,1.7-4.4c0.4-1.1,0.7-2,0.9-2.6c0.2-0.6,0.3-1.1,0.4-1.4
	c0-0.3,0.1-0.5,0.1-0.7c0-0.2-0.1-0.5-0.4-0.8c-0.2-0.3-0.5-0.6-0.8-0.8c-0.3-0.3-0.7-0.5-1-0.6c-0.4-0.2-0.7-0.3-1-0.3
	c-0.4,0-0.7,0.1-0.9,0.3c-0.2,0.1-0.5,0.3-0.6,0.6c-0.2,0.3-0.4,0.6-0.5,0.9c-0.1,0.3-0.2,0.7-0.4,1c-0.2,0.6-0.5,1.3-0.7,2.1
	c-0.2,0.7-0.5,1.4-0.7,2.2c-0.2,0.7-0.4,1.4-0.7,2.1c-0.2,0.7-0.4,1.3-0.6,1.8c-0.9,2.7-1.9,5.5-3.1,8.4c-0.6,0.1-1.1,0.2-1.4,0.3
	c-0.3,0-0.6,0.1-0.9,0.1c-0.1,0-0.3,0-0.4-0.1c-0.1,0-0.2-0.2-0.2-0.5s0.1-0.5,0.2-0.8c0.2-0.4,0.3-0.7,0.4-0.9
	c0.1-0.2,0.2-0.4,0.3-0.6c0.1-0.2,0.2-0.4,0.3-0.6c0.1-0.2,0.3-0.6,0.4-1c0.2-0.5,0.4-1,0.7-1.8c0.3-0.7,0.6-1.7,1.1-2.8
	c0.4-1,0.8-2.1,1.2-3.2c0.4-1.1,0.8-2.3,1.2-3.6c0.1-0.6,0.1-1,0-1.5c-0.2-0.5-0.4-0.8-0.8-1.2c-0.3-0.3-0.7-0.6-1.1-0.8
	c-0.4-0.2-0.8-0.3-1.2-0.3c-0.3,0-0.7,0.2-1.2,0.5c-0.5,0.3-0.9,1-1.3,2c-0.3,0.8-0.6,1.4-0.7,1.8c-0.1,0.4-0.2,0.6-0.3,0.8
	c0,0.2,0,0.3,0,0.4c0,0.1,0,0.3-0.1,0.6c-0.1,0.3-0.2,0.8-0.4,1.4c-0.2,0.6-0.5,1.6-1,2.8c-0.6,1.7-1.2,3.2-1.8,4.7
	C125.5,24.7,124.9,26.3,124.1,27.9z M148.2,30.2c-0.1,0.2-0.1,0.4-0.1,0.6c0,0.4,0.1,0.6,0.2,0.9c0.1,0.2,0.3,0.4,0.5,0.5
	c0.2,0.1,0.5,0.2,0.7,0.3c0.3,0,0.5,0.1,0.7,0.1c0.4,0.1,0.7,0.2,0.9,0.3c0.2,0.1,0.5,0.1,0.7,0.1c0.3,0,0.6-0.1,0.7-0.3
	c0.2-0.2,0.3-0.4,0.4-0.7c0.1-0.3,0.2-0.5,0.2-0.8c0-0.3,0-0.6,0.1-0.9c0-0.3,0.1-0.7,0.1-1.2c0-0.5,0.1-1,0.2-1.6
	c0.1-0.6,0.2-1.2,0.4-1.9c0.2-0.7,0.4-1.4,0.6-2.1c0.4-1.3,0.8-2.4,1.2-3.2c0.4-0.9,0.8-1.6,1-2.1c0.3-0.6,0.6-1,0.7-1.3
	c0.2-0.4,0.3-0.7,0.3-1.1c0-0.4-0.1-0.8-0.4-1c-0.3-0.2-0.6-0.5-0.9-0.7c-0.2-0.2-0.5-0.3-0.7-0.5c-0.3-0.2-0.6-0.3-0.9-0.4
	c-0.3,0-0.6,0.1-0.9,0.4c-0.3,0.2-0.6,0.7-1,1.5c-0.3-0.4-0.7-0.7-1-0.8c-0.3-0.1-0.6-0.2-0.8-0.2c-0.4,0-1,0.2-1.8,0.6
	c-0.7,0.4-1.5,0.9-2.3,1.4c-0.8,0.6-1.5,1.1-2.2,1.7c-0.7,0.6-1.2,1.1-1.5,1.4c-1,1.2-1.8,2.4-2.3,3.6c-0.6,1.3-0.8,2.5-0.8,3.8
	c0,0.7,0.1,1.4,0.2,2.1c0.2,0.7,0.4,1.3,0.8,1.8c0.3,0.5,0.8,1,1.3,1.3c0.5,0.3,1.1,0.5,1.8,0.5c0.8,0,1.5-0.2,2.1-0.6
	c0.6-0.4,1.1-0.9,1.6-1.5L148.2,30.2z M150.8,19.4c-0.5,1.5-0.9,2.8-1.4,3.8c-0.5,1-0.9,1.8-1.3,2.4c-0.4,0.6-0.8,1-1.1,1.2
	c-0.3,0.2-0.6,0.4-0.8,0.4c-0.1,0-0.2-0.1-0.4-0.2c-0.1-0.1-0.1-0.3-0.1-0.7c0-0.6,0.2-1.3,0.5-2c0.3-0.7,0.7-1.4,1.2-2.1
	c0.5-0.6,1.1-1.2,1.7-1.7C149.6,20,150.2,19.6,150.8,19.4z M164.3,25.6c-0.1,0.1-0.2,0.2-0.4,0.4c-0.2,0.1-0.3,0.2-0.5,0.4
	c-0.2,0.1-0.4,0.2-0.6,0.3c-0.2,0.1-0.4,0.1-0.6,0.1c-0.2,0-0.4,0-0.6-0.1c-0.2-0.1-0.3-0.3-0.3-0.5c0-0.1,0-0.3,0.1-0.5
	c0-0.2,0.1-0.5,0.3-0.9c0.1-0.4,0.3-0.9,0.6-1.5c0.3-0.6,0.6-1.4,1-2.4c0.6-1.2,1-2.2,1.3-2.8c0.3-0.6,0.4-1.1,0.4-1.5
	c0-0.3-0.1-0.6-0.4-0.9c-0.3-0.3-0.6-0.6-0.9-0.9c-0.3-0.3-0.7-0.5-1-0.7s-0.6-0.3-0.8-0.3c-0.3,0-0.7,0.3-1,0.8
	c-0.4,0.5-0.7,1.2-1.2,2c-0.4,0.8-0.8,1.7-1.2,2.7c-0.4,1-0.7,2-1,3c-0.3,1-0.5,1.9-0.7,2.8c-0.2,0.9-0.3,1.6-0.3,2.1
	c0,0.7,0.1,1.4,0.3,2s0.4,1.2,0.8,1.6c0.3,0.5,0.7,0.8,1,1.1c0.4,0.3,0.8,0.4,1.3,0.4c0.2,0,0.4,0,0.7-0.1c0.3,0,0.6-0.1,0.9-0.2
	c0.4-0.1,0.8-0.3,1.3-0.6c0.5-0.3,1-0.6,1.7-1c0.3,0.5,0.6,0.9,1.1,1.3c0.5,0.4,0.9,0.6,1.4,0.6c0.3,0,0.7-0.1,1.1-0.3
	c0.4-0.2,0.8-0.4,1.2-0.7c0.4-0.3,0.8-0.6,1.1-0.9c0.4-0.3,0.7-0.6,0.9-0.9c-0.1,0.2-0.1,0.3-0.1,0.5c0,0.2,0,0.3,0,0.5
	c0,0.2,0.1,0.4,0.3,0.7c0.2,0.3,0.5,0.5,0.9,0.8c0.3,0.3,0.7,0.5,1,0.6c0.4,0.2,0.7,0.3,0.9,0.3c0.3,0,0.5-0.1,0.7-0.3
	s0.3-0.5,0.5-0.8c0.1-0.4,0.3-0.8,0.4-1.2c0.1-0.4,0.2-0.9,0.4-1.3c0.4-1.2,0.7-2.3,1-3.3c0.3-0.9,0.6-1.8,0.9-2.4
	c0.3-0.7,0.5-1.3,0.7-1.8c0.2-0.5,0.4-0.9,0.6-1.3c0.2-0.6,0.4-1.1,0.6-1.4c0.2-0.4,0.3-0.7,0.4-1c0.1-0.3,0.2-0.5,0.2-0.6
	c0-0.2,0.1-0.3,0.1-0.4c0-0.3-0.1-0.6-0.3-1c-0.2-0.4-0.5-0.7-0.8-1.1c-0.3-0.3-0.6-0.6-1-0.8c-0.3-0.2-0.6-0.4-0.9-0.4
	c-0.3,0-0.5,0.1-0.8,0.3c-0.2,0.2-0.4,0.4-0.6,0.7c-0.2,0.3-0.3,0.5-0.4,0.8c-0.1,0.3-0.2,0.5-0.3,0.6c-0.3,0.8-0.6,1.5-0.9,2.3
	c-0.3,0.7-0.5,1.4-0.8,2.2c-0.2,0.7-0.5,1.5-0.8,2.2c-0.2,0.7-0.5,1.5-0.8,2.4c-0.1,0.1-0.3,0.3-0.5,0.4c-0.2,0.2-0.4,0.3-0.7,0.5
	c-0.2,0.1-0.5,0.3-0.7,0.4c-0.2,0.1-0.4,0.1-0.6,0.1c-0.2,0-0.4,0-0.5-0.1c-0.1-0.1-0.2-0.2-0.2-0.4c0-0.1,0-0.3,0.1-0.5
	s0.1-0.4,0.2-0.7c0.1-0.3,0.3-0.8,0.5-1.3c0.2-0.5,0.5-1.2,0.8-2.1c0.3-0.7,0.5-1.2,0.6-1.5c0.1-0.3,0.2-0.5,0.3-0.6
	c0-0.1,0.1-0.1,0.1-0.1c0,0,0,0,0.1-0.1c0-0.1,0.1-0.3,0.3-0.5c0.1-0.3,0.3-0.8,0.6-1.5c0.1-0.4,0.2-0.7,0.2-1
	c0-0.3-0.1-0.5-0.2-0.6c-0.1-0.2-0.3-0.4-0.5-0.5s-0.4-0.3-0.5-0.4c-0.3-0.2-0.6-0.4-0.9-0.7c-0.3-0.3-0.6-0.4-1-0.4
	c-0.3,0-0.6,0.1-0.9,0.4c-0.3,0.3-0.7,0.9-1.1,1.7c-0.4,0.8-0.8,2-1.3,3.6S164.9,23.1,164.3,25.6z M186.3,23
	c-0.1,0.4-0.2,0.9-0.3,1.5c-0.1,0.6-0.2,1.1-0.3,1.7c-0.1,0.6-0.2,1.2-0.3,1.7c-0.1,0.6-0.1,1-0.1,1.4c0,0.4,0,0.8,0.1,1
	c0.1,0.2,0.2,0.4,0.4,0.6c0.2,0.2,0.4,0.3,0.6,0.4c0.2,0.1,0.5,0.2,0.7,0.4c0.3,0.2,0.6,0.4,0.9,0.5c0.3,0.2,0.6,0.3,1,0.3
	c0.6,0,1-0.2,1.3-0.5c0.3-0.4,0.4-0.8,0.5-1.4c0.1-0.6,0.1-1.3,0.1-2c0-0.7,0-1.5,0-2.3c0-1.4,0.1-2.7,0.2-3.9
	c0.1-1.2,0.2-2.2,0.4-3.1c0.1-0.9,0.2-1.7,0.3-2.2c0.1-0.6,0.1-1,0.1-1.3c0-0.2-0.1-0.5-0.4-0.7c-0.3-0.2-0.6-0.5-1-0.6
	c-0.4-0.2-0.8-0.3-1.2-0.5c-0.4-0.1-0.7-0.2-0.9-0.2c-0.5,0-1,0.2-1.3,0.6c-0.3,0.4-0.7,0.9-1,1.4c-0.4,0.6-0.8,1.2-1.3,1.9
	c-0.5,0.7-1,1.5-1.5,2.3c-0.5,0.8-1.1,1.6-1.7,2.4c-0.6,0.8-1.1,1.5-1.6,2.3c-0.5,0.7-1,1.3-1.4,1.9c-0.5,0.6-0.8,1-1.2,1.4
	c-0.3,0.3-0.6,0.7-0.9,1.1c-0.3,0.4-0.5,0.8-0.5,1.2c0,0.2,0.1,0.4,0.3,0.8c0.2,0.3,0.4,0.6,0.6,0.9c0.3,0.3,0.5,0.5,0.8,0.8
	c0.3,0.2,0.6,0.4,0.8,0.4c0.2,0,0.4,0,0.6-0.1c0.2-0.1,0.4-0.2,0.6-0.4c0.2-0.1,0.4-0.3,0.5-0.4c0.1-0.1,0.3-0.3,0.3-0.4
	c0.4-0.4,0.8-0.9,1.2-1.5c0.5-0.6,0.9-1.3,1.4-2.1s1-1.6,1.5-2.4c0.5-0.9,1-1.7,1.4-2.6L186.3,23z M200.2,30.2
	c-0.1,0.2-0.1,0.4-0.1,0.6c0,0.4,0.1,0.6,0.2,0.9c0.1,0.2,0.3,0.4,0.5,0.5c0.2,0.1,0.5,0.2,0.7,0.3c0.3,0,0.5,0.1,0.7,0.1
	c0.4,0.1,0.7,0.2,0.9,0.3c0.2,0.1,0.5,0.1,0.7,0.1c0.3,0,0.6-0.1,0.7-0.3c0.2-0.2,0.3-0.4,0.4-0.7c0.1-0.3,0.2-0.5,0.2-0.8
	c0-0.3,0-0.6,0.1-0.9c0-0.3,0.1-0.7,0.1-1.2c0-0.5,0.1-1,0.2-1.6c0.1-0.6,0.2-1.2,0.4-1.9c0.2-0.7,0.4-1.4,0.6-2.1
	c0.4-1.3,0.8-2.4,1.2-3.2c0.4-0.9,0.8-1.6,1-2.1c0.3-0.6,0.6-1,0.7-1.3c0.2-0.4,0.3-0.7,0.3-1.1c0-0.4-0.1-0.8-0.4-1
	c-0.3-0.2-0.6-0.5-0.9-0.7c-0.2-0.2-0.5-0.3-0.7-0.5c-0.3-0.2-0.6-0.3-0.9-0.4c-0.3,0-0.6,0.1-0.9,0.4c-0.3,0.2-0.6,0.7-1,1.5
	c-0.3-0.4-0.7-0.7-1-0.8c-0.3-0.1-0.6-0.2-0.8-0.2c-0.4,0-1,0.2-1.8,0.6c-0.7,0.4-1.5,0.9-2.3,1.4s-1.5,1.1-2.2,1.7
	c-0.7,0.6-1.2,1.1-1.5,1.4c-1,1.2-1.8,2.4-2.3,3.6c-0.6,1.3-0.8,2.5-0.8,3.8c0,0.7,0.1,1.4,0.2,2.1c0.2,0.7,0.4,1.3,0.8,1.8
	c0.3,0.5,0.8,1,1.3,1.3c0.5,0.3,1.1,0.5,1.8,0.5c0.8,0,1.5-0.2,2.1-0.6c0.6-0.4,1.1-0.9,1.6-1.5L200.2,30.2z M202.8,19.4
	c-0.5,1.5-0.9,2.8-1.4,3.8c-0.5,1-0.9,1.8-1.3,2.4c-0.4,0.6-0.8,1-1.1,1.2s-0.6,0.4-0.8,0.4c-0.1,0-0.2-0.1-0.4-0.2
	c-0.1-0.1-0.1-0.3-0.1-0.7c0-0.6,0.2-1.3,0.5-2c0.3-0.7,0.7-1.4,1.2-2.1c0.5-0.6,1.1-1.2,1.7-1.7C201.6,20,202.2,19.6,202.8,19.4z
	 M216.8,20c0.2-0.8,0.4-1.4,0.5-1.9c0.2-0.5,0.3-0.9,0.4-1.2c0.1-0.3,0.2-0.6,0.2-0.7c0-0.2,0.1-0.3,0.1-0.5c0-0.3,0-0.6-0.1-0.7
	c-0.1-0.2-0.2-0.3-0.4-0.4c-0.2-0.1-0.4-0.2-0.6-0.3c-0.2-0.1-0.5-0.2-0.8-0.3c-0.6-0.2-1.1-0.3-1.5-0.2c-0.4,0.1-0.7,0.4-1,0.9
	c-0.3,0.5-0.5,1.2-0.8,2.1c-0.3,0.9-0.6,2.1-1,3.4c-0.7,0-1.2,0.1-1.6,0.4c-0.3,0.2-0.6,0.5-0.7,0.8c-0.1,0.3-0.2,0.5-0.2,0.8
	c0,0.3,0,0.5,0,0.6c0,0.5,0.1,0.8,0.1,1.2c0,0.3,0,0.5,0.1,0.7c0,0.2,0.1,0.3,0.1,0.4c0.1,0.1,0.2,0.1,0.4,0.1
	c-0.2,0.5-0.4,1-0.6,1.4c-0.2,0.5-0.5,0.9-0.7,1.3c-0.2,0.4-0.4,0.8-0.5,1.2c-0.1,0.4-0.2,0.7-0.2,1c0,0.2,0,0.4,0.1,0.6
	c0.1,0.1,0.3,0.3,0.4,0.4c0.1,0.1,0.3,0.2,0.5,0.3c0.2,0.1,0.4,0.2,0.5,0.3c0.3,0.2,0.6,0.5,0.9,0.8c0.3,0.3,0.7,0.5,1.1,0.5
	c0.5,0,0.9-0.2,1.1-0.7c0.2-0.5,0.5-0.9,0.6-1.4c0.2-0.5,0.4-1,0.5-1.4c0.1-0.4,0.3-0.9,0.4-1.3c0.1-0.5,0.3-0.9,0.5-1.4
	c0.2-0.5,0.4-1.1,0.6-1.8c0.7-0.2,1.5-0.3,2.1-0.3c-0.1,0.4-0.3,0.8-0.4,1.3c-0.1,0.4-0.3,0.9-0.4,1.4c-0.1,0.5-0.2,0.9-0.3,1.3
	c-0.1,0.4-0.1,0.8-0.1,1.2c0,0.6,0.1,1.1,0.3,1.5c0.2,0.4,0.4,0.6,0.6,0.8c0.3,0.2,0.5,0.4,0.8,0.4c0.3,0.1,0.6,0.2,0.8,0.3
	c0.3,0.1,0.6,0.2,1,0.3c0.3,0.1,0.6,0.1,0.9-0.1c0.3-0.1,0.5-0.5,0.7-1c0.2-0.5,0.3-1.3,0.4-2.4c0-0.7,0.1-1.5,0.2-2.4
	c0.1-0.9,0.3-1.8,0.7-2.7c0.4-1.2,0.8-2.3,1.2-3.1c0.4-0.9,0.8-1.6,1.1-2.2s0.6-1.2,0.8-1.6c0.2-0.5,0.3-0.9,0.3-1.3
	c0-0.5-0.1-0.8-0.4-1c-0.3-0.2-0.6-0.4-0.9-0.6c-0.3-0.2-0.5-0.4-0.7-0.5s-0.5-0.3-0.9-0.3c-0.4,0-0.7,0.1-0.9,0.4
	c-0.3,0.2-0.5,0.6-0.8,1.1c-0.3,0.5-0.6,1.2-0.9,2s-0.7,1.8-1.2,3c-0.2,0-0.4-0.1-0.5-0.1c-0.2,0-0.3,0-0.5,0s-0.4,0-0.5,0
	C217.2,20,217,20,216.8,20z M236.6,15.2c-0.3-0.3-0.7-0.6-1.1-0.9c-0.4-0.3-0.8-0.4-1.3-0.4s-1.1,0.2-1.7,0.5
	c-0.7,0.3-1.4,0.8-2.1,1.4c-0.7,0.6-1.4,1.4-2.2,2.2c-0.7,0.8-1.3,1.8-1.9,2.7c-0.6,1-1,2-1.4,3.1c-0.3,1.1-0.5,2.2-0.5,3.2
	s0.2,2,0.5,2.6c0.3,0.6,0.7,1.2,1.2,1.5c0.5,0.4,0.9,0.6,1.4,0.8c0.5,0.1,0.9,0.2,1.3,0.2c0.8,0,1.6-0.2,2.5-0.5
	c0.9-0.3,1.9-0.8,2.8-1.4c0.9-0.6,1.8-1.5,2.7-2.4c0.9-1,1.7-2.1,2.3-3.3c0.7-1.3,1.2-2.7,1.7-4.4c0.4-1.6,0.6-3.4,0.6-5.3
	c0-1.4-0.2-2.7-0.7-4c-0.5-1.3-1-2.4-1.7-3.4c-0.6-1-1.3-1.8-2.1-2.3c-0.7-0.6-1.4-0.9-2-0.9c-0.2,0-0.5,0.1-0.8,0.3
	c-0.3,0.1-0.6,0.3-0.9,0.6c-0.3,0.2-0.6,0.5-0.8,0.8s-0.3,0.6-0.3,0.8c0,0.3,0.1,0.6,0.3,0.9c0.2,0.3,0.4,0.6,0.7,0.9
	c0.3,0.3,0.6,0.7,1,1.1s0.7,0.9,1,1.4c0.4,0.6,0.7,1.2,0.9,1.9C236.4,13.5,236.5,14.3,236.6,15.2z M235.9,18.4
	c-0.3,1.3-0.7,2.5-1.2,3.6c-0.5,1.1-1.1,2.1-1.7,2.9c-0.6,0.8-1.2,1.5-1.8,1.9c-0.6,0.5-1,0.7-1.4,0.7c-0.3,0-0.4-0.1-0.5-0.3
	c0-0.2,0-0.4,0-0.5c0-0.8,0.2-1.6,0.6-2.4c0.4-0.9,1-1.7,1.6-2.5c0.6-0.8,1.4-1.5,2.1-2.1C234.4,19.1,235.2,18.7,235.9,18.4z
	 M248.2,30.1c-0.2,0.5-0.2,0.9,0,1.3c0.2,0.4,0.5,0.6,0.9,0.9c0.4,0.2,0.8,0.4,1.3,0.5c0.5,0.1,0.9,0.2,1.1,0.2
	c0.3,0,0.6-0.1,0.7-0.2s0.3-0.3,0.4-0.5c0.1-0.2,0.2-0.4,0.2-0.6c0-0.3,0-0.5,0.1-0.8c0.1-1.3,0.3-2.6,0.6-3.9
	c0.3-1.2,0.7-2.4,1.1-3.4s0.8-1.9,1.3-2.7c0.5-0.8,0.8-1.4,1.2-1.9c0.3-0.4,0.5-0.8,0.7-1.1c0.2-0.3,0.3-0.7,0.3-1.1
	c0-0.3-0.1-0.6-0.3-0.9c-0.2-0.3-0.4-0.6-0.6-0.8c-0.3-0.3-0.6-0.5-0.9-0.6c-0.3-0.2-0.6-0.3-0.9-0.3c-0.5,0-0.9,0.2-1.2,0.6
	c-0.3,0.4-0.6,0.7-0.8,1.1c-0.6,1-1.3,2.4-2.2,4.2c-0.9,1.8-1.8,3.9-2.6,6.5c-0.7,0.5-1.3,0.8-1.6,0.9c-0.3,0.1-0.6,0.2-0.8,0.2
	c-0.6,0-0.9-0.2-0.9-0.7c0-0.2,0-0.4,0.1-0.7c0.1-0.3,0.2-0.7,0.4-1.2c0.2-0.5,0.5-1.2,0.9-2c0.4-0.8,0.9-1.8,1.5-3
	c0.5-0.9,0.9-1.6,1.2-2.1c0.3-0.6,0.5-1,0.7-1.3c0.2-0.3,0.3-0.5,0.3-0.6c0.1-0.1,0.1-0.2,0.1-0.3c0-0.2-0.1-0.4-0.4-0.7
	c-0.2-0.2-0.5-0.5-0.9-0.7c-0.3-0.2-0.7-0.4-1-0.5c-0.3-0.1-0.6-0.2-0.8-0.2c-0.5,0-0.9,0.3-1.5,0.9c-0.5,0.6-1,1.3-1.5,2.3
	c-0.5,0.9-1,1.9-1.5,3c-0.5,1.1-0.9,2.1-1.3,3.1c-0.4,1-0.7,1.9-0.9,2.7c-0.2,0.8-0.3,1.3-0.3,1.6c0,0.5,0.1,1.1,0.2,1.7
	c0.2,0.6,0.4,1.1,0.6,1.6c0.3,0.5,0.6,0.9,1,1.2c0.4,0.3,0.8,0.5,1.3,0.5c0.1,0,0.3,0,0.5-0.1c0.2,0,0.5-0.1,0.8-0.3
	c0.4-0.1,0.8-0.4,1.3-0.6C246.8,31,247.4,30.6,248.2,30.1z M265,25.4c-0.2,0.8-0.4,1.5-0.6,2.1c-0.1,0.6-0.3,1-0.4,1.4
	c-0.1,0.4-0.2,0.8-0.3,1.1c0,0.3-0.1,0.6-0.1,0.8c0,0.3,0.1,0.6,0.2,0.8c0.1,0.2,0.3,0.3,0.5,0.5c0.2,0.1,0.4,0.2,0.7,0.3
	c0.2,0.1,0.5,0.1,0.7,0.2c0.4,0.1,0.7,0.2,1,0.3c0.3,0.1,0.5,0.1,0.8,0.1c0.3,0,0.6-0.1,0.8-0.4c0.2-0.2,0.4-0.5,0.5-0.8
	c0.1-0.3,0.2-0.7,0.3-1.1c0-0.4,0.1-0.7,0.1-1.1c0.1-0.6,0.2-1.4,0.5-2.5c0.2-1.1,0.5-2.2,0.8-3.3c0.3-1.1,0.6-2.2,0.9-3.2
	c0.3-1,0.6-1.7,0.8-2.1c0.2-0.4,0.4-0.9,0.5-1.3c0.2-0.4,0.3-0.8,0.3-1.1c0-0.5-0.2-0.9-0.5-1c-0.3-0.2-0.6-0.4-0.9-0.6
	c-0.3-0.1-0.5-0.3-0.8-0.5c-0.3-0.2-0.5-0.3-0.8-0.3c-0.4,0-0.7,0.2-1,0.5c-0.3,0.3-0.5,0.6-0.7,0.9c0-0.3-0.2-0.7-0.4-1
	c-0.2-0.3-0.5-0.5-1-0.5c-0.3,0-0.8,0.1-1.3,0.3c-0.6,0.1-1.2,0.4-1.9,0.7c-0.7,0.3-1.4,0.7-2.1,1.2c-0.7,0.4-1.4,0.9-2,1.5
	c-0.6,0.6-1.1,1.2-1.4,1.9c-0.4,0.7-0.5,1.5-0.5,2.3c0,0.5,0.1,0.9,0.2,1.4c0.1,0.5,0.4,0.9,0.6,1.3c0.3,0.4,0.6,0.7,1,1
	c0.4,0.3,0.9,0.4,1.5,0.4c-0.8,0.7-1.6,1.3-2.4,1.8c-0.8,0.4-1.5,0.8-2.2,1.2c-0.6,0.3-1.2,0.6-1.6,0.9c-0.4,0.3-0.6,0.6-0.6,1
	c0,0.2,0.1,0.6,0.4,0.9c0.2,0.4,0.5,0.7,0.8,1c0.3,0.4,0.6,0.7,0.9,0.9c0.3,0.3,0.6,0.4,0.8,0.4c0.4,0,0.8-0.2,1.2-0.5
	c0.5-0.3,1-0.7,1.5-1.2c0.5-0.5,1-1.1,1.5-1.7c0.5-0.6,1-1.2,1.4-1.8c0.5-0.6,0.9-1.2,1.2-1.7c0.3-0.6,0.6-1,0.8-1.3L265,25.4z
	 M266.9,18.5c-0.2,0.5-0.3,0.9-0.5,1.3c-0.1,0.4-0.3,0.9-0.4,1.3c-0.8,0.4-1.4,0.7-1.8,0.8c-0.4,0.1-0.6,0.1-0.7,0.1
	c-0.5,0-0.7-0.1-0.8-0.3c-0.1-0.2-0.1-0.4-0.1-0.6c0-0.6,0.4-1.1,1.2-1.5C264.4,19.2,265.5,18.8,266.9,18.5z"/>
<path class="st2" d="M22.4,12.2h-6.6V26H9.4V12.2H2.8V7.8h19.6V12.2z M47.1,7.8l-8.3,12.3V26h-6.4v-5.9L23.9,7.8h7.6l1.9,3.1
	c1.1,1.8,1.8,3.5,2.3,5.1h0.1c0.4-1.6,1.2-3.3,2.2-5.2l1.8-3.1H47.1z M68.2,12.2h-6.6V26h-6.4V12.2h-6.6V7.8h19.6V12.2z M22.4,48
	H2.8V29.8h19v4.1H9.2v2.9h10.7v4H9.2v2.7h13.2V48z M46.7,38.8c0,2.7-0.8,4.9-2.5,6.6c-1.7,1.8-3.9,2.6-6.7,2.6H24.7V29.8h11.8
	c1.4,0,2.7,0.2,3.8,0.5c1.2,0.3,2.2,0.8,3.2,1.5c1,0.7,1.7,1.6,2.3,2.8C46.4,35.8,46.7,37.2,46.7,38.8z M39.8,38.8
	c0-3.2-1.5-4.9-4.4-4.9h-4.1v9.7h4.1c1.4,0,2.5-0.4,3.3-1.1C39.4,41.8,39.8,40.5,39.8,38.8z M70.1,48h-6.8l-0.8-2.4h-8.1L53.4,48
	h-6.8l8-18.2H62L70.1,48z M60.7,41.2l-2.4-6.4L56,41.2H60.7z"/>
<line class="st3" x1="92.5" y1="8" x2="92.5" y2="48"/>
</svg>
