<svg width="273" height="52" viewBox="0 0 273 52" fill="none" xmlns="http://www.w3.org/2000/svg">
<path d="M151.491 43.008C151.416 43.2 151.294 43.472 151.123 43.824C150.952 44.176 150.76 44.5227 150.547 44.864C150.334 45.2053 150.11 45.504 149.875 45.76C149.651 46.0053 149.443 46.128 149.251 46.128C149.155 46.128 149.091 46.1067 149.059 46.064C149.038 46.0107 149.027 45.952 149.027 45.888C149.027 45.8027 149.032 45.7227 149.043 45.648C149.064 45.5627 149.086 45.4773 149.107 45.392C149.118 45.3387 149.123 45.2907 149.123 45.248C149.134 45.1947 149.139 45.1413 149.139 45.088C149.139 44.8747 149.064 44.7147 148.915 44.608C148.766 44.5013 148.568 44.448 148.323 44.448C147.683 44.448 147.251 44.624 147.027 44.976C146.803 45.328 146.691 45.792 146.691 46.368C146.691 46.8053 146.776 47.1467 146.947 47.392C147.128 47.6267 147.331 47.7973 147.555 47.904C147.779 48.0107 147.992 48.0693 148.195 48.08C148.408 48.1013 148.547 48.112 148.611 48.112C149.272 48.112 149.886 47.968 150.451 47.68C151.027 47.3813 151.55 46.992 152.019 46.512C152.488 46.032 152.904 45.4827 153.267 44.864C153.63 44.2453 153.934 43.616 154.179 42.976C154.424 42.336 154.611 41.712 154.739 41.104C154.867 40.4853 154.931 39.936 154.931 39.456C154.931 39.0827 154.851 38.736 154.691 38.416C154.531 38.096 154.323 37.8187 154.067 37.584C153.811 37.3387 153.518 37.1467 153.187 37.008C152.856 36.8693 152.52 36.8 152.179 36.8C151.422 36.8 150.819 36.88 150.371 37.04C149.923 37.2 149.582 37.3973 149.347 37.632C149.112 37.8667 148.958 38.112 148.883 38.368C148.819 38.624 148.787 38.848 148.787 39.04C148.787 39.2427 148.835 39.392 148.931 39.488C149.038 39.584 149.182 39.632 149.363 39.632C149.544 39.632 149.71 39.6 149.859 39.536C150.019 39.4613 150.163 39.3867 150.291 39.312C150.536 39.184 150.808 39.072 151.107 38.976C151.416 38.8693 151.683 38.816 151.907 38.816C151.928 38.816 151.966 38.8213 152.019 38.832C152.072 38.8427 152.126 38.8747 152.179 38.928C152.232 38.9707 152.28 39.04 152.323 39.136C152.366 39.232 152.387 39.3707 152.387 39.552C152.387 39.7653 152.366 39.9947 152.323 40.24C152.28 40.4747 152.222 40.6987 152.147 40.912C151.838 40.8907 151.55 40.8747 151.283 40.864C151.027 40.8533 150.734 40.848 150.403 40.848C150.072 40.848 149.806 40.8747 149.603 40.928C149.411 40.9707 149.262 41.0347 149.155 41.12C149.048 41.2053 148.968 41.3067 148.915 41.424C148.862 41.5413 148.814 41.664 148.771 41.792C148.686 42.048 148.611 42.2453 148.547 42.384C148.483 42.512 148.451 42.6347 148.451 42.752C148.451 42.8587 148.478 42.9707 148.531 43.088C148.595 43.2053 148.734 43.264 148.947 43.264C149.171 43.264 149.315 43.2533 149.379 43.232C149.454 43.2107 149.544 43.184 149.651 43.152C149.768 43.12 149.955 43.0933 150.211 43.072C150.467 43.04 150.894 43.0187 151.491 43.008ZM160.761 41.104C160.707 40.7947 160.59 40.5387 160.409 40.336C160.238 40.1227 160.03 40.016 159.785 40.016C159.635 40.016 159.465 40.0533 159.273 40.128C159.091 40.2027 158.905 40.2987 158.713 40.416C158.531 40.5227 158.355 40.64 158.185 40.768C158.025 40.896 157.891 41.008 157.785 41.104C157.806 40.9333 157.843 40.7893 157.897 40.672C157.95 40.544 157.977 40.448 157.977 40.384C157.977 40.3307 157.95 40.2827 157.897 40.24C157.854 40.1867 157.795 40.144 157.721 40.112C157.646 40.0693 157.571 40.032 157.497 40C157.422 39.968 157.363 39.936 157.321 39.904C157.182 39.8293 157.059 39.7547 156.953 39.68C156.846 39.5947 156.734 39.552 156.617 39.552C156.425 39.552 156.281 39.616 156.185 39.744C156.089 39.8613 156.014 39.9893 155.961 40.128C155.918 40.256 155.891 40.352 155.881 40.416C155.87 40.4693 155.843 40.56 155.801 40.688C155.769 40.816 155.705 41.0187 155.609 41.296C155.523 41.5627 155.379 41.9733 155.177 42.528C154.963 43.136 154.793 43.6 154.665 43.92C154.547 44.2293 154.446 44.48 154.361 44.672C154.286 44.864 154.217 45.0293 154.153 45.168C154.089 45.3067 154.003 45.4933 153.897 45.728C153.715 46.144 153.603 46.4427 153.561 46.624C153.518 46.7947 153.497 46.9333 153.497 47.04C153.497 47.2533 153.561 47.4133 153.689 47.52C153.827 47.6267 153.977 47.7173 154.137 47.792C154.382 47.9093 154.547 47.9893 154.633 48.032C154.729 48.0853 154.819 48.112 154.905 48.112C155.043 48.112 155.161 48.0747 155.257 48C155.363 47.936 155.454 47.856 155.529 47.76C155.603 47.6533 155.667 47.5413 155.721 47.424C155.774 47.296 155.822 47.1733 155.865 47.056C155.918 46.896 155.971 46.752 156.025 46.624C156.078 46.496 156.131 46.3573 156.185 46.208C156.238 46.0587 156.302 45.8827 156.377 45.68C156.451 45.4773 156.537 45.232 156.633 44.944C156.707 44.7093 156.766 44.5333 156.809 44.416C156.851 44.288 156.889 44.1867 156.921 44.112C156.953 44.0373 156.979 43.9627 157.001 43.888C157.022 43.8133 157.059 43.7067 157.113 43.568C157.283 43.4613 157.433 43.3547 157.561 43.248C157.689 43.1307 157.801 43.024 157.897 42.928C158.003 42.832 158.094 42.7573 158.169 42.704C158.254 42.64 158.334 42.608 158.409 42.608C158.515 42.608 158.569 42.6827 158.569 42.832C158.569 42.9493 158.537 43.104 158.473 43.296C158.419 43.488 158.355 43.6853 158.281 43.888C158.206 44.08 158.131 44.2613 158.057 44.432C157.993 44.592 157.95 44.704 157.929 44.768C157.758 45.184 157.614 45.5253 157.497 45.792C157.39 46.048 157.299 46.256 157.225 46.416C157.161 46.576 157.113 46.704 157.081 46.8C157.049 46.8853 157.033 46.9707 157.033 47.056C157.033 47.2693 157.097 47.4187 157.225 47.504C157.353 47.5893 157.47 47.664 157.577 47.728C157.683 47.792 157.801 47.872 157.929 47.968C158.067 48.064 158.222 48.112 158.393 48.112C158.787 48.112 159.15 47.728 159.481 46.96C159.811 46.1813 160.179 45.0453 160.585 43.552C160.659 43.4667 160.75 43.376 160.857 43.28C160.963 43.1733 161.07 43.0773 161.177 42.992C161.294 42.9067 161.406 42.8373 161.513 42.784C161.63 42.72 161.731 42.688 161.817 42.688C161.966 42.688 162.051 42.72 162.073 42.784C162.105 42.848 162.121 42.912 162.121 42.976C162.121 43.072 162.083 43.2373 162.009 43.472C161.945 43.696 161.865 43.936 161.769 44.192C161.673 44.448 161.577 44.6933 161.481 44.928C161.395 45.152 161.337 45.312 161.305 45.408C161.198 45.6747 161.086 45.8987 160.969 46.08C160.862 46.2613 160.766 46.4267 160.681 46.576C160.595 46.7147 160.521 46.8427 160.457 46.96C160.403 47.0667 160.377 47.1787 160.377 47.296C160.377 47.5093 160.43 47.664 160.537 47.76C160.654 47.856 160.782 47.9467 160.921 48.032C161.049 48.1173 161.177 48.2027 161.305 48.288C161.433 48.3733 161.561 48.416 161.689 48.416C161.827 48.416 161.95 48.384 162.057 48.32C162.163 48.256 162.254 48.176 162.329 48.08C162.414 47.984 162.483 47.888 162.537 47.792C162.59 47.6853 162.633 47.6 162.665 47.536C163.23 46.2133 163.619 45.104 163.833 44.208C164.057 43.312 164.169 42.6773 164.169 42.304C164.169 42.1227 164.126 41.92 164.041 41.696C163.966 41.472 163.859 41.264 163.721 41.072C163.582 40.8693 163.417 40.704 163.225 40.576C163.043 40.4373 162.846 40.368 162.633 40.368C162.473 40.368 162.297 40.4 162.105 40.464C161.923 40.5173 161.742 40.5867 161.561 40.672C161.39 40.7467 161.23 40.8267 161.081 40.912C160.942 40.9973 160.835 41.0613 160.761 41.104ZM169.34 41.056C169.298 40.928 169.25 40.7947 169.196 40.656C169.154 40.5173 169.095 40.3893 169.02 40.272C168.956 40.144 168.871 40.0427 168.764 39.968C168.658 39.8933 168.53 39.856 168.38 39.856C168.231 39.856 168.028 39.9307 167.772 40.08C167.527 40.2293 167.276 40.4 167.02 40.592C166.764 40.784 166.53 40.976 166.316 41.168C166.103 41.36 165.959 41.4987 165.884 41.584C165.308 42.192 164.876 42.8267 164.588 43.488C164.311 44.1493 164.172 44.8 164.172 45.44C164.172 45.76 164.22 46.08 164.316 46.4C164.412 46.7093 164.556 46.992 164.748 47.248C164.94 47.504 165.175 47.712 165.452 47.872C165.74 48.032 166.066 48.112 166.428 48.112C166.972 48.112 167.506 47.9413 168.028 47.6C168.551 47.2587 169.015 46.8373 169.42 46.336C169.836 45.824 170.167 45.2747 170.412 44.688C170.658 44.0907 170.78 43.536 170.78 43.024C170.78 42.448 170.663 42.0213 170.428 41.744C170.204 41.456 169.842 41.2267 169.34 41.056ZM168.508 42.112C168.54 42.1867 168.567 42.2667 168.588 42.352C168.62 42.4267 168.636 42.5227 168.636 42.64C168.636 42.9707 168.567 43.344 168.428 43.76C168.29 44.1653 168.119 44.5547 167.916 44.928C167.714 45.2907 167.49 45.6 167.244 45.856C167.01 46.1013 166.796 46.224 166.604 46.224C166.487 46.224 166.412 46.1707 166.38 46.064C166.359 45.9573 166.348 45.872 166.348 45.808C166.348 45.4773 166.407 45.1253 166.524 44.752C166.652 44.368 166.818 44.0053 167.02 43.664C167.223 43.312 167.452 42.9973 167.708 42.72C167.964 42.4427 168.231 42.24 168.508 42.112ZM175.157 42.032C175.157 42.192 175.194 42.3147 175.269 42.4C175.354 42.4853 175.498 42.528 175.701 42.528C175.893 42.528 176.101 42.48 176.325 42.384C176.559 42.288 176.783 42.1867 176.997 42.08C177.21 41.9627 177.413 41.856 177.605 41.76C177.797 41.664 177.957 41.616 178.085 41.616C178.159 41.616 178.218 41.664 178.261 41.76C178.303 41.8453 178.325 41.936 178.325 42.032C178.325 42.1707 178.255 42.2987 178.117 42.416C177.989 42.5227 177.823 42.624 177.621 42.72C177.429 42.816 177.221 42.9067 176.997 42.992C176.783 43.0667 176.591 43.136 176.421 43.2C176.165 43.296 175.887 43.4187 175.589 43.568C175.29 43.7173 175.013 43.8987 174.757 44.112C174.501 44.3253 174.287 44.5813 174.117 44.88C173.957 45.1787 173.877 45.5253 173.877 45.92C173.877 46.08 173.903 46.288 173.957 46.544C174.01 46.7893 174.122 47.0293 174.293 47.264C174.463 47.4987 174.698 47.7013 174.997 47.872C175.306 48.032 175.717 48.112 176.229 48.112C176.495 48.112 176.757 48.0907 177.013 48.048C177.269 48.016 177.541 47.952 177.829 47.856C178.234 47.7173 178.538 47.5893 178.741 47.472C178.954 47.344 179.103 47.2267 179.189 47.12C179.285 47.0027 179.343 46.896 179.365 46.8C179.386 46.6933 179.407 46.592 179.429 46.496C179.461 46.3467 179.493 46.224 179.525 46.128C179.567 46.0213 179.589 45.888 179.589 45.728C179.589 45.536 179.503 45.4027 179.333 45.328C179.162 45.2427 178.959 45.2427 178.725 45.328C178.618 45.3707 178.527 45.4133 178.453 45.456C178.389 45.488 178.319 45.5253 178.245 45.568C178.181 45.6107 178.095 45.664 177.989 45.728C177.893 45.7813 177.754 45.8453 177.573 45.92C177.189 46.0907 176.917 46.192 176.757 46.224C176.607 46.2453 176.517 46.256 176.485 46.256C176.346 46.256 176.255 46.208 176.213 46.112C176.181 46.016 176.165 45.9253 176.165 45.84C176.165 45.7333 176.239 45.6107 176.389 45.472C176.549 45.3227 176.885 45.1413 177.397 44.928C177.631 44.832 177.93 44.7093 178.293 44.56C178.666 44.4 179.029 44.2027 179.381 43.968C179.733 43.7227 180.031 43.4293 180.277 43.088C180.533 42.7467 180.661 42.3467 180.661 41.888C180.661 41.664 180.613 41.4347 180.517 41.2C180.431 40.9547 180.293 40.736 180.101 40.544C179.909 40.3413 179.663 40.1813 179.365 40.064C179.077 39.936 178.73 39.872 178.325 39.872C177.685 39.872 177.157 39.952 176.741 40.112C176.335 40.2613 176.015 40.448 175.781 40.672C175.546 40.8853 175.381 41.12 175.285 41.376C175.199 41.6213 175.157 41.84 175.157 42.032ZM183.81 47.216C183.778 47.312 183.762 47.408 183.762 47.504C183.762 47.664 183.794 47.792 183.858 47.888C183.922 47.984 184.002 48.0533 184.098 48.096C184.194 48.1493 184.3 48.1867 184.418 48.208C184.535 48.2293 184.642 48.2507 184.738 48.272C184.908 48.3147 185.042 48.352 185.138 48.384C185.244 48.416 185.351 48.432 185.458 48.432C185.596 48.432 185.703 48.3893 185.778 48.304C185.863 48.2293 185.927 48.128 185.97 48C186.012 47.8827 186.039 47.76 186.05 47.632C186.06 47.4933 186.071 47.3653 186.082 47.248C186.092 47.1093 186.108 46.9333 186.13 46.72C186.151 46.496 186.178 46.256 186.21 46C186.252 45.7333 186.306 45.4507 186.37 45.152C186.444 44.8427 186.53 44.528 186.626 44.208C186.818 43.6213 186.999 43.1413 187.17 42.768C187.351 42.384 187.506 42.0693 187.634 41.824C187.772 41.5787 187.879 41.3813 187.954 41.232C188.039 41.072 188.082 40.912 188.082 40.752C188.082 40.56 188.023 40.4107 187.906 40.304C187.788 40.1973 187.66 40.0907 187.522 39.984C187.426 39.9093 187.319 39.8293 187.202 39.744C187.084 39.648 186.956 39.5947 186.818 39.584C186.69 39.5733 186.551 39.6267 186.402 39.744C186.263 39.8507 186.119 40.0693 185.97 40.4C185.82 40.2187 185.676 40.1013 185.538 40.048C185.399 39.984 185.276 39.952 185.17 39.952C184.978 39.952 184.716 40.0427 184.386 40.224C184.055 40.4053 183.719 40.6187 183.378 40.864C183.036 41.1093 182.711 41.3653 182.402 41.632C182.103 41.8987 181.884 42.112 181.746 42.272C181.298 42.784 180.951 43.3227 180.706 43.888C180.46 44.4533 180.338 45.0187 180.338 45.584C180.338 45.8827 180.37 46.1867 180.434 46.496C180.508 46.7947 180.62 47.0667 180.77 47.312C180.919 47.5467 181.106 47.7387 181.33 47.888C181.554 48.0373 181.82 48.112 182.13 48.112C182.492 48.112 182.796 48.0267 183.042 47.856C183.298 47.6747 183.532 47.456 183.746 47.2L183.81 47.216ZM184.962 42.384C184.759 43.056 184.551 43.616 184.338 44.064C184.135 44.512 183.938 44.8693 183.746 45.136C183.564 45.392 183.399 45.5733 183.25 45.68C183.1 45.7867 182.988 45.84 182.914 45.84C182.86 45.84 182.807 45.8133 182.754 45.76C182.711 45.7067 182.69 45.6053 182.69 45.456C182.69 45.168 182.759 44.8693 182.898 44.56C183.036 44.24 183.212 43.936 183.426 43.648C183.65 43.36 183.895 43.104 184.162 42.88C184.428 42.6453 184.695 42.48 184.962 42.384ZM189.356 47.392C189.42 47.4667 189.473 47.5467 189.516 47.632C189.569 47.7173 189.623 47.7973 189.676 47.872C189.729 47.936 189.788 47.9893 189.852 48.032C189.927 48.0853 190.012 48.112 190.108 48.112C190.343 48.112 190.615 48.0267 190.924 47.856C191.233 47.6747 191.553 47.44 191.884 47.152C192.215 46.8533 192.54 46.512 192.86 46.128C193.18 45.744 193.468 45.344 193.724 44.928C193.98 44.512 194.183 44.096 194.332 43.68C194.492 43.264 194.572 42.8747 194.572 42.512C194.572 42.224 194.529 41.9253 194.444 41.616C194.369 41.3067 194.257 41.0293 194.108 40.784C193.959 40.5387 193.777 40.336 193.564 40.176C193.351 40.016 193.111 39.936 192.844 39.936C192.481 39.936 192.14 40.0107 191.82 40.16C191.863 39.9893 191.889 39.872 191.9 39.808C191.911 39.744 191.916 39.696 191.916 39.664C191.916 39.5787 191.863 39.488 191.756 39.392C191.66 39.2853 191.532 39.1893 191.372 39.104C191.223 39.0187 191.057 38.9493 190.876 38.896C190.695 38.832 190.524 38.8 190.364 38.8C190.215 38.8 190.097 38.8587 190.012 38.976C189.927 39.0933 189.857 39.2373 189.804 39.408C189.751 39.568 189.703 39.744 189.66 39.936C189.628 40.128 189.585 40.2933 189.532 40.432C189.404 40.464 189.271 40.512 189.132 40.576C189.004 40.6293 188.881 40.6987 188.764 40.784C188.657 40.8587 188.567 40.9493 188.492 41.056C188.428 41.152 188.396 41.2533 188.396 41.36C188.396 41.424 188.401 41.52 188.412 41.648C188.433 41.776 188.46 41.92 188.492 42.08C188.524 42.2293 188.567 42.3787 188.62 42.528C188.673 42.6667 188.737 42.7787 188.812 42.864C188.471 43.728 188.183 44.4427 187.948 45.008C187.724 45.5627 187.537 46.016 187.388 46.368C187.239 46.72 187.116 46.9973 187.02 47.2C186.935 47.392 186.86 47.552 186.796 47.68C186.732 47.808 186.679 47.9253 186.636 48.032C186.583 48.1493 186.513 48.2987 186.428 48.48C186.343 48.672 186.273 48.832 186.22 48.96C186.156 49.088 186.108 49.1893 186.076 49.264C186.044 49.3493 186.023 49.4133 186.012 49.456C186.001 49.4987 185.996 49.536 185.996 49.568C185.996 49.6853 186.065 49.8133 186.204 49.952C186.332 50.1013 186.487 50.2453 186.668 50.384C186.839 50.5227 187.015 50.6347 187.196 50.72C187.377 50.816 187.516 50.864 187.612 50.864C187.719 50.864 187.815 50.8213 187.9 50.736C187.985 50.6613 188.06 50.5653 188.124 50.448C188.188 50.3307 188.247 50.1973 188.3 50.048C188.353 49.9093 188.407 49.776 188.46 49.648C188.599 49.3067 188.7 49.056 188.764 48.896C188.839 48.736 188.892 48.6133 188.924 48.528C188.956 48.4533 188.977 48.384 188.988 48.32C189.009 48.2667 189.047 48.1653 189.1 48.016C189.153 47.8667 189.196 47.7547 189.228 47.68C189.26 47.5947 189.303 47.4987 189.356 47.392ZM190.092 45.6C190.135 45.472 190.177 45.344 190.22 45.216C190.263 45.0773 190.327 44.896 190.412 44.672C190.497 44.448 190.609 44.16 190.748 43.808C190.887 43.4453 191.068 42.9707 191.292 42.384C191.313 42.3627 191.399 42.32 191.548 42.256C191.708 42.1813 191.889 42.144 192.092 42.144C192.369 42.144 192.508 42.2933 192.508 42.592C192.508 42.8053 192.444 43.0507 192.316 43.328C192.188 43.6053 192.012 43.888 191.788 44.176C191.575 44.464 191.319 44.736 191.02 44.992C190.732 45.248 190.423 45.4507 190.092 45.6ZM197.881 47.216C197.849 47.312 197.833 47.408 197.833 47.504C197.833 47.664 197.865 47.792 197.929 47.888C197.993 47.984 198.073 48.0533 198.169 48.096C198.265 48.1493 198.372 48.1867 198.489 48.208C198.606 48.2293 198.713 48.2507 198.809 48.272C198.98 48.3147 199.113 48.352 199.209 48.384C199.316 48.416 199.422 48.432 199.529 48.432C199.668 48.432 199.774 48.3893 199.849 48.304C199.934 48.2293 199.998 48.128 200.041 48C200.084 47.8827 200.11 47.76 200.121 47.632C200.132 47.4933 200.142 47.3653 200.153 47.248C200.164 47.1093 200.18 46.9333 200.201 46.72C200.222 46.496 200.249 46.256 200.281 46C200.324 45.7333 200.377 45.4507 200.441 45.152C200.516 44.8427 200.601 44.528 200.697 44.208C200.889 43.6213 201.07 43.1413 201.241 42.768C201.422 42.384 201.577 42.0693 201.705 41.824C201.844 41.5787 201.95 41.3813 202.025 41.232C202.11 41.072 202.153 40.912 202.153 40.752C202.153 40.56 202.094 40.4107 201.977 40.304C201.86 40.1973 201.732 40.0907 201.593 39.984C201.497 39.9093 201.39 39.8293 201.273 39.744C201.156 39.648 201.028 39.5947 200.889 39.584C200.761 39.5733 200.622 39.6267 200.473 39.744C200.334 39.8507 200.19 40.0693 200.041 40.4C199.892 40.2187 199.748 40.1013 199.609 40.048C199.47 39.984 199.348 39.952 199.241 39.952C199.049 39.952 198.788 40.0427 198.457 40.224C198.126 40.4053 197.79 40.6187 197.449 40.864C197.108 41.1093 196.782 41.3653 196.473 41.632C196.174 41.8987 195.956 42.112 195.817 42.272C195.369 42.784 195.022 43.3227 194.777 43.888C194.532 44.4533 194.409 45.0187 194.409 45.584C194.409 45.8827 194.441 46.1867 194.505 46.496C194.58 46.7947 194.692 47.0667 194.841 47.312C194.99 47.5467 195.177 47.7387 195.401 47.888C195.625 48.0373 195.892 48.112 196.201 48.112C196.564 48.112 196.868 48.0267 197.113 47.856C197.369 47.6747 197.604 47.456 197.817 47.2L197.881 47.216ZM199.033 42.384C198.83 43.056 198.622 43.616 198.409 44.064C198.206 44.512 198.009 44.8693 197.817 45.136C197.636 45.392 197.47 45.5733 197.321 45.68C197.172 45.7867 197.06 45.84 196.985 45.84C196.932 45.84 196.878 45.8133 196.825 45.76C196.782 45.7067 196.761 45.6053 196.761 45.456C196.761 45.168 196.83 44.8693 196.969 44.56C197.108 44.24 197.284 43.936 197.497 43.648C197.721 43.36 197.966 43.104 198.233 42.88C198.5 42.6453 198.766 42.48 199.033 42.384ZM205.283 42.672C205.379 42.3307 205.459 42.0533 205.523 41.84C205.598 41.616 205.657 41.44 205.699 41.312C205.742 41.1733 205.769 41.0667 205.779 40.992C205.801 40.9067 205.811 40.8373 205.811 40.784C205.811 40.6453 205.79 40.5387 205.747 40.464C205.715 40.3787 205.662 40.3147 205.587 40.272C205.513 40.2187 205.422 40.1707 205.315 40.128C205.209 40.0853 205.091 40.0373 204.963 39.984C204.697 39.8773 204.478 39.8453 204.307 39.888C204.147 39.9307 204.003 40.064 203.875 40.288C203.758 40.512 203.635 40.8267 203.507 41.232C203.39 41.6373 203.235 42.144 203.043 42.752C202.734 42.7627 202.499 42.816 202.339 42.912C202.19 43.008 202.083 43.12 202.019 43.248C201.966 43.3653 201.939 43.488 201.939 43.616C201.939 43.7333 201.945 43.824 201.955 43.888C201.977 44.0907 201.987 44.2613 201.987 44.4C201.998 44.528 202.009 44.6347 202.019 44.72C202.03 44.7947 202.051 44.8533 202.083 44.896C202.115 44.928 202.174 44.9493 202.259 44.96C202.185 45.1733 202.094 45.3867 201.987 45.6C201.881 45.8027 201.779 46 201.683 46.192C201.587 46.3733 201.507 46.544 201.443 46.704C201.379 46.864 201.347 47.008 201.347 47.136C201.347 47.2427 201.369 47.3333 201.411 47.408C201.465 47.472 201.523 47.5307 201.587 47.584C201.651 47.6267 201.721 47.6693 201.795 47.712C201.881 47.7547 201.955 47.7973 202.019 47.84C202.169 47.9467 202.307 48.0693 202.435 48.208C202.574 48.3467 202.734 48.416 202.915 48.416C203.15 48.416 203.315 48.3147 203.411 48.112C203.518 47.9093 203.614 47.696 203.699 47.472C203.785 47.2373 203.859 47.0293 203.923 46.848C203.987 46.656 204.051 46.464 204.115 46.272C204.179 46.0693 204.249 45.856 204.323 45.632C204.398 45.3973 204.494 45.1253 204.611 44.816C204.942 44.72 205.257 44.6773 205.555 44.688C205.491 44.8587 205.427 45.0453 205.363 45.248C205.299 45.44 205.235 45.6427 205.171 45.856C205.118 46.0587 205.07 46.256 205.027 46.448C204.995 46.64 204.979 46.816 204.979 46.976C204.979 47.2533 205.017 47.472 205.091 47.632C205.166 47.792 205.262 47.9147 205.379 48C205.497 48.096 205.619 48.16 205.747 48.192C205.875 48.2347 205.998 48.272 206.115 48.304C206.254 48.336 206.398 48.3733 206.547 48.416C206.697 48.4587 206.835 48.448 206.963 48.384C207.091 48.32 207.198 48.176 207.283 47.952C207.379 47.728 207.433 47.376 207.443 46.896C207.454 46.576 207.481 46.2187 207.523 45.824C207.577 45.4293 207.678 45.024 207.827 44.608C208.009 44.064 208.185 43.6 208.355 43.216C208.537 42.832 208.697 42.5013 208.835 42.224C208.974 41.9467 209.086 41.7067 209.171 41.504C209.257 41.3013 209.299 41.1147 209.299 40.944C209.299 40.72 209.235 40.5707 209.107 40.496C208.979 40.4107 208.841 40.32 208.691 40.224C208.574 40.1387 208.467 40.0587 208.371 39.984C208.275 39.9093 208.142 39.872 207.971 39.872C207.811 39.872 207.673 39.9253 207.555 40.032C207.438 40.1387 207.315 40.304 207.187 40.528C207.07 40.752 206.937 41.0453 206.787 41.408C206.638 41.7707 206.457 42.208 206.243 42.72C206.158 42.6987 206.078 42.6827 206.003 42.672C205.929 42.6613 205.849 42.656 205.763 42.656C205.678 42.656 205.598 42.656 205.523 42.656C205.449 42.656 205.369 42.6613 205.283 42.672ZM215.436 41.104C215.383 40.7947 215.266 40.5387 215.084 40.336C214.914 40.1227 214.706 40.016 214.46 40.016C214.311 40.016 214.14 40.0533 213.948 40.128C213.767 40.2027 213.58 40.2987 213.388 40.416C213.207 40.5227 213.031 40.64 212.86 40.768C212.7 40.896 212.567 41.008 212.46 41.104C212.482 40.9333 212.519 40.7893 212.572 40.672C212.626 40.544 212.652 40.448 212.652 40.384C212.652 40.3307 212.626 40.2827 212.572 40.24C212.53 40.1867 212.471 40.144 212.396 40.112C212.322 40.0693 212.247 40.032 212.172 40C212.098 39.968 212.039 39.936 211.996 39.904C211.858 39.8293 211.735 39.7547 211.628 39.68C211.522 39.5947 211.41 39.552 211.292 39.552C211.1 39.552 210.956 39.616 210.86 39.744C210.764 39.8613 210.69 39.9893 210.636 40.128C210.594 40.256 210.567 40.352 210.556 40.416C210.546 40.4693 210.519 40.56 210.476 40.688C210.444 40.816 210.38 41.0187 210.284 41.296C210.199 41.5627 210.055 41.9733 209.852 42.528C209.639 43.136 209.468 43.6 209.34 43.92C209.223 44.2293 209.122 44.48 209.036 44.672C208.962 44.864 208.892 45.0293 208.828 45.168C208.764 45.3067 208.679 45.4933 208.572 45.728C208.391 46.144 208.279 46.4427 208.236 46.624C208.194 46.7947 208.172 46.9333 208.172 47.04C208.172 47.2533 208.236 47.4133 208.364 47.52C208.503 47.6267 208.652 47.7173 208.812 47.792C209.058 47.9093 209.223 47.9893 209.308 48.032C209.404 48.0853 209.495 48.112 209.58 48.112C209.719 48.112 209.836 48.0747 209.932 48C210.039 47.936 210.13 47.856 210.204 47.76C210.279 47.6533 210.343 47.5413 210.396 47.424C210.45 47.296 210.498 47.1733 210.54 47.056C210.594 46.896 210.647 46.752 210.7 46.624C210.754 46.496 210.807 46.3573 210.86 46.208C210.914 46.0587 210.978 45.8827 211.052 45.68C211.127 45.4773 211.212 45.232 211.308 44.944C211.383 44.7093 211.442 44.5333 211.484 44.416C211.527 44.288 211.564 44.1867 211.596 44.112C211.628 44.0373 211.655 43.9627 211.676 43.888C211.698 43.8133 211.735 43.7067 211.788 43.568C211.959 43.4613 212.108 43.3547 212.236 43.248C212.364 43.1307 212.476 43.024 212.572 42.928C212.679 42.832 212.77 42.7573 212.844 42.704C212.93 42.64 213.01 42.608 213.084 42.608C213.191 42.608 213.244 42.6827 213.244 42.832C213.244 42.9493 213.212 43.104 213.148 43.296C213.095 43.488 213.031 43.6853 212.956 43.888C212.882 44.08 212.807 44.2613 212.732 44.432C212.668 44.592 212.626 44.704 212.604 44.768C212.434 45.184 212.29 45.5253 212.172 45.792C212.066 46.048 211.975 46.256 211.9 46.416C211.836 46.576 211.788 46.704 211.756 46.8C211.724 46.8853 211.708 46.9707 211.708 47.056C211.708 47.2693 211.772 47.4187 211.9 47.504C212.028 47.5893 212.146 47.664 212.252 47.728C212.359 47.792 212.476 47.872 212.604 47.968C212.743 48.064 212.898 48.112 213.068 48.112C213.463 48.112 213.826 47.728 214.156 46.96C214.487 46.1813 214.855 45.0453 215.26 43.552C215.335 43.4667 215.426 43.376 215.532 43.28C215.639 43.1733 215.746 43.0773 215.852 42.992C215.97 42.9067 216.082 42.8373 216.188 42.784C216.306 42.72 216.407 42.688 216.492 42.688C216.642 42.688 216.727 42.72 216.748 42.784C216.78 42.848 216.796 42.912 216.796 42.976C216.796 43.072 216.759 43.2373 216.684 43.472C216.62 43.696 216.54 43.936 216.444 44.192C216.348 44.448 216.252 44.6933 216.156 44.928C216.071 45.152 216.012 45.312 215.98 45.408C215.874 45.6747 215.762 45.8987 215.644 46.08C215.538 46.2613 215.442 46.4267 215.356 46.576C215.271 46.7147 215.196 46.8427 215.132 46.96C215.079 47.0667 215.052 47.1787 215.052 47.296C215.052 47.5093 215.106 47.664 215.212 47.76C215.33 47.856 215.458 47.9467 215.596 48.032C215.724 48.1173 215.852 48.2027 215.98 48.288C216.108 48.3733 216.236 48.416 216.364 48.416C216.503 48.416 216.626 48.384 216.732 48.32C216.839 48.256 216.93 48.176 217.004 48.08C217.09 47.984 217.159 47.888 217.212 47.792C217.266 47.6853 217.308 47.6 217.34 47.536C217.906 46.2133 218.295 45.104 218.508 44.208C218.732 43.312 218.844 42.6773 218.844 42.304C218.844 42.1227 218.802 41.92 218.716 41.696C218.642 41.472 218.535 41.264 218.396 41.072C218.258 40.8693 218.092 40.704 217.9 40.576C217.719 40.4373 217.522 40.368 217.308 40.368C217.148 40.368 216.972 40.4 216.78 40.464C216.599 40.5173 216.418 40.5867 216.236 40.672C216.066 40.7467 215.906 40.8267 215.756 40.912C215.618 40.9973 215.511 41.0613 215.436 41.104ZM222.144 47.152C222.048 47.376 222.048 47.568 222.144 47.728C222.24 47.888 222.373 48.016 222.544 48.112C222.725 48.2187 222.917 48.2933 223.12 48.336C223.333 48.3893 223.498 48.416 223.616 48.416C223.754 48.416 223.861 48.3893 223.936 48.336C224.01 48.2827 224.069 48.2133 224.112 48.128C224.154 48.0427 224.181 47.9467 224.192 47.84C224.202 47.7227 224.213 47.6053 224.224 47.488C224.266 46.8907 224.362 46.32 224.512 45.776C224.661 45.2213 224.826 44.7147 225.008 44.256C225.189 43.7973 225.376 43.392 225.568 43.04C225.77 42.688 225.941 42.4 226.08 42.176C226.197 41.984 226.298 41.824 226.384 41.696C226.469 41.5573 226.512 41.3973 226.512 41.216C226.512 41.0987 226.474 40.9707 226.4 40.832C226.325 40.6933 226.229 40.5707 226.112 40.464C225.994 40.3467 225.861 40.2507 225.712 40.176C225.573 40.1013 225.44 40.064 225.312 40.064C225.088 40.064 224.906 40.1547 224.768 40.336C224.629 40.5067 224.517 40.6667 224.432 40.816C224.176 41.2747 223.85 41.8933 223.456 42.672C223.061 43.4507 222.677 44.416 222.304 45.568C221.973 45.7813 221.733 45.92 221.584 45.984C221.445 46.048 221.333 46.08 221.248 46.08C220.992 46.08 220.864 45.9787 220.864 45.776C220.864 45.7013 220.874 45.6 220.896 45.472C220.928 45.344 220.986 45.168 221.072 44.944C221.168 44.7093 221.296 44.416 221.456 44.064C221.626 43.7013 221.856 43.2587 222.144 42.736C222.357 42.3413 222.528 42.0267 222.656 41.792C222.794 41.5467 222.896 41.36 222.96 41.232C223.034 41.104 223.082 41.0133 223.104 40.96C223.136 40.9067 223.152 40.8587 223.152 40.816C223.152 40.72 223.093 40.6187 222.976 40.512C222.869 40.4053 222.741 40.304 222.592 40.208C222.442 40.112 222.293 40.032 222.144 39.968C221.994 39.904 221.882 39.872 221.808 39.872C221.605 39.872 221.386 40.0053 221.152 40.272C220.928 40.528 220.698 40.864 220.464 41.28C220.24 41.6853 220.021 42.1333 219.808 42.624C219.594 43.104 219.402 43.568 219.232 44.016C219.072 44.464 218.938 44.864 218.832 45.216C218.736 45.5573 218.688 45.792 218.688 45.92C218.688 46.1547 218.72 46.4 218.784 46.656C218.858 46.912 218.954 47.152 219.072 47.376C219.2 47.5893 219.349 47.7653 219.52 47.904C219.69 48.0427 219.877 48.112 220.08 48.112C220.133 48.112 220.208 48.1013 220.304 48.08C220.4 48.0693 220.522 48.032 220.672 47.968C220.832 47.904 221.029 47.808 221.264 47.68C221.509 47.552 221.802 47.376 222.144 47.152ZM229.612 45.056C229.516 45.408 229.43 45.712 229.356 45.968C229.292 46.2133 229.233 46.4267 229.18 46.608C229.137 46.7893 229.1 46.9493 229.068 47.088C229.046 47.216 229.036 47.3387 229.036 47.456C229.036 47.5947 229.068 47.7067 229.132 47.792C229.196 47.8773 229.27 47.9467 229.356 48C229.452 48.0533 229.553 48.0907 229.66 48.112C229.766 48.144 229.868 48.176 229.964 48.208C230.145 48.2613 230.289 48.3093 230.396 48.352C230.513 48.3947 230.625 48.416 230.732 48.416C230.881 48.416 230.998 48.3627 231.084 48.256C231.18 48.16 231.249 48.0373 231.292 47.888C231.345 47.7387 231.382 47.5787 231.404 47.408C231.425 47.2373 231.446 47.0773 231.468 46.928C231.5 46.6613 231.569 46.2933 231.676 45.824C231.782 45.344 231.9 44.8533 232.028 44.352C232.166 43.8507 232.3 43.3813 232.428 42.944C232.566 42.5067 232.678 42.192 232.764 42C232.849 41.808 232.929 41.6213 233.004 41.44C233.078 41.2587 233.116 41.0933 233.116 40.944C233.116 40.7093 233.046 40.5547 232.908 40.48C232.78 40.3947 232.646 40.3093 232.508 40.224C232.39 40.16 232.273 40.0853 232.156 40C232.038 39.9147 231.916 39.872 231.788 39.872C231.617 39.872 231.462 39.9413 231.324 40.08C231.196 40.2187 231.094 40.3573 231.02 40.496C230.998 40.3467 230.94 40.2027 230.844 40.064C230.758 39.9253 230.614 39.856 230.412 39.856C230.273 39.856 230.076 39.8933 229.82 39.968C229.564 40.032 229.281 40.1333 228.972 40.272C228.662 40.4107 228.348 40.5813 228.028 40.784C227.708 40.976 227.414 41.2 227.148 41.456C226.892 41.712 226.678 41.9947 226.508 42.304C226.348 42.6133 226.268 42.9493 226.268 43.312C226.268 43.5147 226.3 43.7227 226.364 43.936C226.428 44.1387 226.524 44.3253 226.652 44.496C226.78 44.6667 226.934 44.8107 227.116 44.928C227.308 45.0453 227.526 45.1093 227.772 45.12C227.42 45.44 227.062 45.7013 226.7 45.904C226.337 46.096 226.012 46.2667 225.724 46.416C225.436 46.5547 225.201 46.6933 225.02 46.832C224.838 46.96 224.748 47.1147 224.748 47.296C224.748 47.4027 224.801 47.5413 224.908 47.712C225.004 47.872 225.121 48.0267 225.26 48.176C225.398 48.336 225.537 48.4693 225.676 48.576C225.825 48.6933 225.942 48.752 226.028 48.752C226.188 48.752 226.369 48.6827 226.572 48.544C226.785 48.4053 227.004 48.224 227.228 48C227.462 47.776 227.692 47.5253 227.916 47.248C228.14 46.9707 228.348 46.6987 228.54 46.432C228.742 46.1653 228.918 45.9147 229.068 45.68C229.217 45.4347 229.329 45.2427 229.404 45.104L229.612 45.056ZM230.444 42C230.369 42.2027 230.294 42.4 230.22 42.592C230.156 42.784 230.092 42.9813 230.028 43.184C229.665 43.376 229.404 43.4933 229.244 43.536C229.084 43.5787 228.977 43.6 228.924 43.6C228.721 43.6 228.598 43.5627 228.556 43.488C228.524 43.4027 228.508 43.3173 228.508 43.232C228.508 42.9867 228.678 42.7573 229.02 42.544C229.372 42.32 229.846 42.1387 230.444 42ZM238.594 38.448C238.594 38.3093 238.53 38.16 238.402 38C238.274 37.8293 238.124 37.6747 237.954 37.536C237.783 37.3867 237.612 37.264 237.442 37.168C237.271 37.072 237.143 37.024 237.058 37.024C236.876 37.024 236.711 37.104 236.562 37.264C236.423 37.424 236.284 37.648 236.146 37.936C236.018 38.224 235.879 38.5653 235.73 38.96C235.591 39.344 235.426 39.76 235.234 40.208C235.063 40.624 234.892 41.0347 234.722 41.44C234.562 41.8347 234.412 42.2027 234.274 42.544C234.146 42.8853 234.039 43.184 233.954 43.44C233.879 43.696 233.842 43.888 233.842 44.016C233.842 44.1333 233.89 44.272 233.986 44.432C234.092 44.5813 234.21 44.7253 234.338 44.864C234.476 45.0027 234.62 45.12 234.77 45.216C234.919 45.312 235.042 45.36 235.138 45.36C235.308 45.36 235.447 45.3067 235.554 45.2C235.66 45.0827 235.751 44.9387 235.826 44.768C235.911 44.5973 235.986 44.416 236.05 44.224C236.114 44.0213 236.178 43.8347 236.242 43.664C236.38 43.3013 236.514 42.976 236.642 42.688C236.77 42.3893 236.892 42.112 237.01 41.856C237.138 41.6 237.26 41.3547 237.378 41.12C237.495 40.8747 237.612 40.6293 237.73 40.384C237.975 39.872 238.178 39.4667 238.338 39.168C238.508 38.8693 238.594 38.6293 238.594 38.448ZM235.218 46.832C235.218 46.5653 235.106 46.352 234.882 46.192C234.668 46.0213 234.37 45.856 233.986 45.696C233.858 45.6427 233.74 45.616 233.634 45.616C233.463 45.616 233.303 45.6747 233.154 45.792C233.015 45.9093 232.892 46.0587 232.786 46.24C232.69 46.4213 232.615 46.6187 232.562 46.832C232.508 47.0347 232.482 47.2213 232.482 47.392C232.482 47.616 232.54 47.8187 232.658 48C232.786 48.1813 232.94 48.336 233.122 48.464C233.303 48.592 233.495 48.688 233.698 48.752C233.911 48.8267 234.103 48.864 234.274 48.864C234.508 48.864 234.647 48.8053 234.69 48.688C234.743 48.5707 234.78 48.432 234.802 48.272C234.834 48.08 234.871 47.9093 234.914 47.76C234.967 47.6107 235.015 47.4933 235.058 47.408C235.1 47.3227 235.138 47.2373 235.17 47.152C235.202 47.0667 235.218 46.96 235.218 46.832Z" fill="#222222"/>
<path d="M124.139 27.932C124.067 27.932 123.947 27.944 123.779 27.968C123.611 27.992 123.419 28.016 123.203 28.04C122.987 28.064 122.771 28.088 122.555 28.112C122.339 28.136 122.147 28.148 121.979 28.148C121.787 28.148 121.619 28.112 121.475 28.04C121.355 27.968 121.295 27.764 121.295 27.428C121.295 27.308 121.319 27.176 121.367 27.032C121.439 26.864 121.547 26.612 121.691 26.276C121.835 25.94 122.027 25.484 122.267 24.908C122.507 24.332 122.807 23.576 123.167 22.64C124.007 20.456 124.631 18.776 125.039 17.6C125.471 16.4 125.795 15.488 126.011 14.864C126.227 14.216 126.383 13.724 126.479 13.388C126.575 13.052 126.719 12.644 126.911 12.164C127.055 11.804 127.163 11.504 127.235 11.264C127.331 11.024 127.379 10.808 127.379 10.616C127.379 10.112 127.199 9.716 126.839 9.428C126.479 9.14 126.107 8.852 125.723 8.564C125.387 8.3 125.015 8.012 124.607 7.7C124.199 7.388 123.755 7.232 123.275 7.232C122.891 7.232 122.603 7.388 122.411 7.7C122.243 7.988 122.099 8.276 121.979 8.564C121.691 9.308 121.475 9.932 121.331 10.436C121.187 10.916 121.055 11.396 120.935 11.876C120.839 12.356 120.719 12.884 120.575 13.46C120.431 14.012 120.227 14.744 119.963 15.656C119.699 16.568 119.327 17.708 118.847 19.076C118.391 20.444 117.779 22.16 117.011 24.224C116.603 25.304 116.303 26.192 116.111 26.888C115.919 27.584 115.823 28.184 115.823 28.688C115.823 28.832 115.859 29.132 115.931 29.588C116.003 30.044 116.171 30.524 116.435 31.028C116.723 31.508 117.131 31.94 117.659 32.324C118.211 32.732 118.955 32.936 119.891 32.936C120.347 32.936 120.779 32.924 121.187 32.9C121.619 32.9 122.135 32.876 122.735 32.828C123.335 32.804 124.055 32.78 124.895 32.756C125.735 32.732 126.791 32.696 128.063 32.648C129.527 32.6 130.763 32.564 131.771 32.54C132.779 32.54 133.619 32.492 134.291 32.396C134.987 32.324 135.539 32.204 135.947 32.036C136.379 31.892 136.739 31.652 137.027 31.316C137.315 30.956 137.567 30.512 137.783 29.984C138.023 29.432 138.299 28.736 138.611 27.896C138.851 27.224 139.055 26.66 139.223 26.204C139.391 25.748 139.571 25.256 139.763 24.728C139.955 24.176 140.195 23.516 140.483 22.748C140.771 21.98 141.167 20.948 141.671 19.652C142.367 17.804 142.919 16.328 143.327 15.224C143.735 14.096 144.035 13.22 144.227 12.596C144.443 11.948 144.575 11.492 144.623 11.228C144.671 10.94 144.695 10.7 144.695 10.508C144.695 10.292 144.575 10.04 144.335 9.752C144.119 9.464 143.843 9.2 143.507 8.96C143.195 8.696 142.847 8.48 142.463 8.312C142.079 8.12 141.731 8.024 141.419 8.024C141.059 8.024 140.747 8.108 140.483 8.276C140.243 8.42 140.027 8.624 139.835 8.888C139.643 9.152 139.475 9.452 139.331 9.788C139.211 10.124 139.091 10.46 138.971 10.796C138.755 11.444 138.515 12.14 138.251 12.884C138.011 13.604 137.771 14.324 137.531 15.044C137.315 15.764 137.087 16.472 136.847 17.168C136.631 17.84 136.439 18.452 136.271 19.004C135.383 21.692 134.351 24.488 133.175 27.392C132.551 27.512 132.083 27.608 131.771 27.68C131.459 27.728 131.171 27.752 130.907 27.752C130.763 27.752 130.619 27.728 130.475 27.68C130.331 27.632 130.259 27.476 130.259 27.212C130.259 26.948 130.319 26.672 130.439 26.384C130.607 25.976 130.739 25.664 130.835 25.448C130.931 25.232 131.015 25.04 131.087 24.872C131.183 24.68 131.279 24.476 131.375 24.26C131.495 24.02 131.639 23.684 131.807 23.252C131.999 22.796 132.239 22.208 132.527 21.488C132.815 20.768 133.175 19.82 133.607 18.644C133.991 17.636 134.387 16.568 134.795 15.44C135.227 14.312 135.611 13.1 135.947 11.804C136.091 11.252 136.079 10.76 135.911 10.328C135.743 9.872 135.491 9.488 135.155 9.176C134.843 8.84 134.471 8.588 134.039 8.42C133.631 8.228 133.247 8.132 132.887 8.132C132.551 8.132 132.155 8.3 131.699 8.636C131.243 8.972 130.823 9.632 130.439 10.616C130.103 11.432 129.875 12.032 129.755 12.416C129.635 12.776 129.551 13.04 129.503 13.208C129.479 13.376 129.467 13.52 129.467 13.64C129.467 13.736 129.419 13.94 129.323 14.252C129.251 14.564 129.107 15.044 128.891 15.692C128.699 16.316 128.375 17.252 127.919 18.5C127.319 20.156 126.719 21.728 126.119 23.216C125.543 24.704 124.883 26.276 124.139 27.932ZM148.175 30.236C148.103 30.452 148.067 30.668 148.067 30.884C148.067 31.244 148.139 31.532 148.283 31.748C148.427 31.964 148.607 32.12 148.823 32.216C149.039 32.336 149.279 32.42 149.543 32.468C149.807 32.516 150.047 32.564 150.263 32.612C150.647 32.708 150.947 32.792 151.163 32.864C151.403 32.936 151.643 32.972 151.883 32.972C152.195 32.972 152.435 32.876 152.603 32.684C152.795 32.516 152.939 32.288 153.035 32C153.131 31.736 153.191 31.46 153.215 31.172C153.239 30.86 153.263 30.572 153.287 30.308C153.311 29.996 153.347 29.6 153.395 29.12C153.443 28.616 153.503 28.076 153.575 27.5C153.671 26.9 153.791 26.264 153.935 25.592C154.103 24.896 154.295 24.188 154.511 23.468C154.943 22.148 155.351 21.068 155.735 20.228C156.143 19.364 156.491 18.656 156.779 18.104C157.091 17.552 157.331 17.108 157.499 16.772C157.691 16.412 157.787 16.052 157.787 15.692C157.787 15.26 157.655 14.924 157.391 14.684C157.127 14.444 156.839 14.204 156.527 13.964C156.311 13.796 156.071 13.616 155.807 13.424C155.543 13.208 155.255 13.088 154.943 13.064C154.655 13.04 154.343 13.16 154.007 13.424C153.695 13.664 153.371 14.156 153.035 14.9C152.699 14.492 152.375 14.228 152.063 14.108C151.751 13.964 151.475 13.892 151.235 13.892C150.803 13.892 150.215 14.096 149.471 14.504C148.727 14.912 147.971 15.392 147.203 15.944C146.435 16.496 145.703 17.072 145.007 17.672C144.335 18.272 143.843 18.752 143.531 19.112C142.523 20.264 141.743 21.476 141.191 22.748C140.639 24.02 140.363 25.292 140.363 26.564C140.363 27.236 140.435 27.92 140.579 28.616C140.747 29.288 140.999 29.9 141.335 30.452C141.671 30.98 142.091 31.412 142.595 31.748C143.099 32.084 143.699 32.252 144.395 32.252C145.211 32.252 145.895 32.06 146.447 31.676C147.023 31.268 147.551 30.776 148.031 30.2L148.175 30.236ZM150.767 19.364C150.311 20.876 149.843 22.136 149.363 23.144C148.907 24.152 148.463 24.956 148.031 25.556C147.623 26.132 147.251 26.54 146.915 26.78C146.579 27.02 146.327 27.14 146.159 27.14C146.039 27.14 145.919 27.08 145.799 26.96C145.703 26.84 145.655 26.612 145.655 26.276C145.655 25.628 145.811 24.956 146.123 24.26C146.435 23.54 146.831 22.856 147.311 22.208C147.815 21.56 148.367 20.984 148.967 20.48C149.567 19.952 150.167 19.58 150.767 19.364ZM164.254 25.592C164.158 25.688 164.014 25.808 163.822 25.952C163.654 26.072 163.474 26.192 163.282 26.312C163.09 26.432 162.886 26.54 162.67 26.636C162.454 26.708 162.262 26.744 162.094 26.744C161.902 26.744 161.698 26.696 161.482 26.6C161.266 26.504 161.158 26.324 161.158 26.06C161.158 25.916 161.182 25.748 161.23 25.556C161.278 25.34 161.362 25.04 161.482 24.656C161.626 24.248 161.818 23.732 162.058 23.108C162.322 22.484 162.67 21.68 163.102 20.696C163.654 19.448 164.074 18.512 164.362 17.888C164.65 17.24 164.794 16.748 164.794 16.412C164.794 16.124 164.662 15.824 164.398 15.512C164.134 15.2 163.822 14.912 163.462 14.648C163.126 14.36 162.778 14.132 162.418 13.964C162.058 13.796 161.782 13.712 161.59 13.712C161.278 13.712 160.93 13.976 160.546 14.504C160.186 15.008 159.802 15.668 159.394 16.484C159.01 17.3 158.626 18.212 158.242 19.22C157.882 20.228 157.558 21.236 157.27 22.244C157.006 23.228 156.778 24.164 156.586 25.052C156.418 25.916 156.334 26.612 156.334 27.14C156.334 27.86 156.43 28.532 156.622 29.156C156.814 29.78 157.066 30.32 157.378 30.776C157.69 31.232 158.038 31.592 158.422 31.856C158.83 32.12 159.25 32.252 159.682 32.252C159.874 32.252 160.102 32.228 160.366 32.18C160.63 32.156 160.942 32.084 161.302 31.964C161.686 31.82 162.118 31.628 162.598 31.388C163.078 31.124 163.642 30.776 164.29 30.344C164.554 30.8 164.914 31.232 165.37 31.64C165.826 32.048 166.294 32.252 166.774 32.252C167.11 32.252 167.47 32.168 167.854 32C168.262 31.808 168.658 31.58 169.042 31.316C169.45 31.028 169.822 30.728 170.158 30.416C170.518 30.104 170.83 29.816 171.094 29.552C171.022 29.72 170.974 29.888 170.95 30.056C170.95 30.224 170.95 30.392 170.95 30.56C170.95 30.752 171.058 30.98 171.274 31.244C171.514 31.508 171.802 31.76 172.138 32C172.474 32.264 172.81 32.48 173.146 32.648C173.506 32.816 173.818 32.9 174.082 32.9C174.37 32.9 174.61 32.792 174.802 32.576C174.994 32.36 175.15 32.084 175.27 31.748C175.414 31.388 175.534 30.992 175.63 30.56C175.75 30.128 175.87 29.696 175.99 29.264C176.35 28.016 176.686 26.924 176.998 25.988C177.31 25.052 177.598 24.236 177.862 23.54C178.126 22.844 178.354 22.244 178.546 21.74C178.762 21.236 178.954 20.804 179.122 20.444C179.362 19.868 179.566 19.388 179.734 19.004C179.902 18.596 180.034 18.272 180.13 18.032C180.226 17.768 180.286 17.564 180.31 17.42C180.358 17.252 180.382 17.108 180.382 16.988C180.382 16.676 180.274 16.34 180.058 15.98C179.842 15.596 179.578 15.236 179.266 14.9C178.954 14.564 178.618 14.288 178.258 14.072C177.922 13.832 177.622 13.712 177.358 13.712C177.094 13.712 176.842 13.82 176.602 14.036C176.386 14.228 176.194 14.468 176.026 14.756C175.858 15.02 175.714 15.296 175.594 15.584C175.474 15.872 175.378 16.088 175.306 16.232C174.97 17.024 174.658 17.78 174.37 18.5C174.106 19.22 173.842 19.94 173.578 20.66C173.338 21.38 173.086 22.112 172.822 22.856C172.582 23.6 172.33 24.404 172.066 25.268C171.97 25.388 171.814 25.532 171.598 25.7C171.406 25.868 171.178 26.036 170.914 26.204C170.674 26.348 170.434 26.48 170.194 26.6C169.954 26.696 169.75 26.744 169.582 26.744C169.39 26.744 169.222 26.708 169.078 26.636C168.958 26.564 168.898 26.42 168.898 26.204C168.898 26.06 168.922 25.904 168.97 25.736C169.018 25.568 169.09 25.328 169.186 25.016C169.306 24.68 169.462 24.26 169.654 23.756C169.87 23.228 170.134 22.544 170.446 21.704C170.71 20.984 170.902 20.48 171.022 20.192C171.166 19.88 171.262 19.688 171.31 19.616C171.358 19.52 171.382 19.484 171.382 19.508C171.406 19.532 171.43 19.508 171.454 19.436C171.502 19.364 171.586 19.184 171.706 18.896C171.826 18.584 172.018 18.068 172.282 17.348C172.426 16.964 172.486 16.64 172.462 16.376C172.438 16.112 172.366 15.896 172.246 15.728C172.126 15.536 171.97 15.368 171.778 15.224C171.586 15.08 171.406 14.936 171.238 14.792C170.974 14.576 170.686 14.348 170.374 14.108C170.086 13.844 169.738 13.712 169.33 13.712C169.042 13.712 168.73 13.856 168.394 14.144C168.082 14.432 167.722 15.008 167.314 15.872C166.93 16.712 166.486 17.912 165.982 19.472C165.478 21.032 164.902 23.072 164.254 25.592ZM186.302 23C186.23 23.432 186.134 23.936 186.014 24.512C185.894 25.064 185.786 25.64 185.69 26.24C185.594 26.84 185.51 27.416 185.438 27.968C185.366 28.52 185.33 28.988 185.33 29.372C185.33 29.804 185.378 30.14 185.474 30.38C185.57 30.62 185.702 30.824 185.87 30.992C186.062 31.16 186.266 31.292 186.482 31.388C186.698 31.484 186.938 31.604 187.202 31.748C187.538 31.94 187.85 32.12 188.138 32.288C188.426 32.48 188.774 32.576 189.182 32.576C189.782 32.576 190.202 32.396 190.442 32.036C190.706 31.676 190.874 31.208 190.946 30.632C191.018 30.032 191.042 29.36 191.018 28.616C190.994 27.872 190.982 27.104 190.982 26.312C191.006 24.872 191.066 23.564 191.162 22.388C191.282 21.212 191.402 20.18 191.522 19.292C191.642 18.38 191.75 17.636 191.846 17.06C191.942 16.46 191.99 16.016 191.99 15.728C191.99 15.488 191.846 15.248 191.558 15.008C191.27 14.768 190.934 14.552 190.55 14.36C190.166 14.168 189.77 14.012 189.362 13.892C188.978 13.772 188.678 13.712 188.462 13.712C187.934 13.712 187.49 13.928 187.13 14.36C186.794 14.768 186.458 15.236 186.122 15.764C185.762 16.316 185.342 16.952 184.862 17.672C184.382 18.392 183.866 19.148 183.314 19.94C182.786 20.708 182.234 21.5 181.658 22.316C181.106 23.108 180.566 23.864 180.038 24.584C179.534 25.28 179.054 25.928 178.598 26.528C178.142 27.104 177.758 27.56 177.446 27.896C177.158 28.208 176.858 28.568 176.546 28.976C176.234 29.36 176.078 29.744 176.078 30.128C176.078 30.32 176.174 30.572 176.366 30.884C176.534 31.196 176.75 31.508 177.014 31.82C177.278 32.108 177.554 32.36 177.842 32.576C178.154 32.816 178.418 32.936 178.634 32.936C178.826 32.936 179.018 32.888 179.21 32.792C179.426 32.696 179.618 32.576 179.786 32.432C179.978 32.288 180.146 32.144 180.29 32C180.434 31.856 180.542 31.736 180.614 31.64C180.974 31.232 181.382 30.716 181.838 30.092C182.294 29.468 182.774 28.772 183.278 28.004C183.782 27.236 184.286 26.42 184.79 25.556C185.294 24.692 185.75 23.828 186.158 22.964L186.302 23ZM200.166 30.236C200.094 30.452 200.058 30.668 200.058 30.884C200.058 31.244 200.13 31.532 200.274 31.748C200.418 31.964 200.598 32.12 200.814 32.216C201.03 32.336 201.27 32.42 201.534 32.468C201.798 32.516 202.038 32.564 202.254 32.612C202.638 32.708 202.938 32.792 203.154 32.864C203.394 32.936 203.634 32.972 203.874 32.972C204.186 32.972 204.426 32.876 204.594 32.684C204.786 32.516 204.93 32.288 205.026 32C205.122 31.736 205.182 31.46 205.206 31.172C205.23 30.86 205.254 30.572 205.278 30.308C205.302 29.996 205.338 29.6 205.386 29.12C205.434 28.616 205.494 28.076 205.566 27.5C205.662 26.9 205.782 26.264 205.926 25.592C206.094 24.896 206.286 24.188 206.502 23.468C206.934 22.148 207.342 21.068 207.726 20.228C208.134 19.364 208.482 18.656 208.77 18.104C209.082 17.552 209.322 17.108 209.49 16.772C209.682 16.412 209.778 16.052 209.778 15.692C209.778 15.26 209.646 14.924 209.382 14.684C209.118 14.444 208.83 14.204 208.518 13.964C208.302 13.796 208.062 13.616 207.798 13.424C207.534 13.208 207.246 13.088 206.934 13.064C206.646 13.04 206.334 13.16 205.998 13.424C205.686 13.664 205.362 14.156 205.026 14.9C204.69 14.492 204.366 14.228 204.054 14.108C203.742 13.964 203.466 13.892 203.226 13.892C202.794 13.892 202.206 14.096 201.462 14.504C200.718 14.912 199.962 15.392 199.194 15.944C198.426 16.496 197.694 17.072 196.998 17.672C196.326 18.272 195.834 18.752 195.522 19.112C194.514 20.264 193.734 21.476 193.182 22.748C192.63 24.02 192.354 25.292 192.354 26.564C192.354 27.236 192.426 27.92 192.57 28.616C192.738 29.288 192.99 29.9 193.326 30.452C193.662 30.98 194.082 31.412 194.586 31.748C195.09 32.084 195.69 32.252 196.386 32.252C197.202 32.252 197.886 32.06 198.438 31.676C199.014 31.268 199.542 30.776 200.022 30.2L200.166 30.236ZM202.758 19.364C202.302 20.876 201.834 22.136 201.354 23.144C200.898 24.152 200.454 24.956 200.022 25.556C199.614 26.132 199.242 26.54 198.906 26.78C198.57 27.02 198.318 27.14 198.15 27.14C198.03 27.14 197.91 27.08 197.79 26.96C197.694 26.84 197.646 26.612 197.646 26.276C197.646 25.628 197.802 24.956 198.114 24.26C198.426 23.54 198.822 22.856 199.302 22.208C199.806 21.56 200.358 20.984 200.958 20.48C201.558 19.952 202.158 19.58 202.758 19.364ZM216.821 20.012C217.037 19.244 217.217 18.62 217.361 18.14C217.529 17.636 217.661 17.24 217.757 16.952C217.853 16.64 217.913 16.4 217.937 16.232C217.985 16.04 218.009 15.884 218.009 15.764C218.009 15.452 217.961 15.212 217.865 15.044C217.793 14.852 217.673 14.708 217.505 14.612C217.337 14.492 217.133 14.384 216.893 14.288C216.653 14.192 216.389 14.084 216.101 13.964C215.501 13.724 215.009 13.652 214.625 13.748C214.265 13.844 213.941 14.144 213.653 14.648C213.389 15.152 213.113 15.86 212.825 16.772C212.561 17.684 212.213 18.824 211.781 20.192C211.085 20.216 210.557 20.336 210.197 20.552C209.861 20.768 209.621 21.02 209.477 21.308C209.357 21.572 209.297 21.848 209.297 22.136C209.297 22.4 209.309 22.604 209.333 22.748C209.381 23.204 209.405 23.588 209.405 23.9C209.429 24.188 209.453 24.428 209.477 24.62C209.501 24.788 209.549 24.92 209.621 25.016C209.693 25.088 209.825 25.136 210.017 25.16C209.849 25.64 209.645 26.12 209.405 26.6C209.165 27.056 208.937 27.5 208.721 27.932C208.505 28.34 208.325 28.724 208.181 29.084C208.037 29.444 207.965 29.768 207.965 30.056C207.965 30.296 208.013 30.5 208.109 30.668C208.229 30.812 208.361 30.944 208.505 31.064C208.649 31.16 208.805 31.256 208.973 31.352C209.165 31.448 209.333 31.544 209.477 31.64C209.813 31.88 210.125 32.156 210.413 32.468C210.725 32.78 211.085 32.936 211.493 32.936C212.021 32.936 212.393 32.708 212.609 32.252C212.849 31.796 213.065 31.316 213.257 30.812C213.449 30.284 213.617 29.816 213.761 29.408C213.905 28.976 214.049 28.544 214.193 28.112C214.337 27.656 214.493 27.176 214.661 26.672C214.829 26.144 215.045 25.532 215.309 24.836C216.053 24.62 216.761 24.524 217.433 24.548C217.289 24.932 217.145 25.352 217.001 25.808C216.857 26.24 216.713 26.696 216.569 27.176C216.449 27.632 216.341 28.076 216.245 28.508C216.173 28.94 216.137 29.336 216.137 29.696C216.137 30.32 216.221 30.812 216.389 31.172C216.557 31.532 216.773 31.808 217.037 32C217.301 32.216 217.577 32.36 217.865 32.432C218.153 32.528 218.429 32.612 218.693 32.684C219.005 32.756 219.329 32.84 219.665 32.936C220.001 33.032 220.313 33.008 220.601 32.864C220.889 32.72 221.129 32.396 221.321 31.892C221.537 31.388 221.657 30.596 221.681 29.516C221.705 28.796 221.765 27.992 221.861 27.104C221.981 26.216 222.209 25.304 222.545 24.368C222.953 23.144 223.349 22.1 223.733 21.236C224.141 20.372 224.501 19.628 224.813 19.004C225.125 18.38 225.377 17.84 225.569 17.384C225.761 16.928 225.857 16.508 225.857 16.124C225.857 15.62 225.713 15.284 225.425 15.116C225.137 14.924 224.825 14.72 224.489 14.504C224.225 14.312 223.985 14.132 223.769 13.964C223.553 13.796 223.253 13.712 222.869 13.712C222.509 13.712 222.197 13.832 221.933 14.072C221.669 14.312 221.393 14.684 221.105 15.188C220.841 15.692 220.541 16.352 220.205 17.168C219.869 17.984 219.461 18.968 218.981 20.12C218.789 20.072 218.609 20.036 218.441 20.012C218.273 19.988 218.093 19.976 217.901 19.976C217.709 19.976 217.529 19.976 217.361 19.976C217.193 19.976 217.013 19.988 216.821 20.012ZM236.569 15.188C236.233 14.852 235.861 14.552 235.453 14.288C235.069 14.024 234.637 13.892 234.157 13.892C233.677 13.892 233.101 14.072 232.429 14.432C231.757 14.768 231.061 15.248 230.341 15.872C229.621 16.496 228.901 17.228 228.181 18.068C227.485 18.908 226.849 19.82 226.273 20.804C225.721 21.764 225.265 22.784 224.905 23.864C224.569 24.944 224.401 26.024 224.401 27.104C224.401 28.184 224.557 29.06 224.869 29.732C225.205 30.38 225.601 30.896 226.057 31.28C226.513 31.664 226.993 31.916 227.497 32.036C228.001 32.18 228.445 32.252 228.829 32.252C229.597 32.252 230.437 32.096 231.349 31.784C232.285 31.448 233.221 30.968 234.157 30.344C235.093 29.696 235.993 28.892 236.857 27.932C237.745 26.972 238.525 25.856 239.197 24.584C239.893 23.288 240.445 21.836 240.853 20.228C241.285 18.62 241.501 16.844 241.501 14.9C241.501 13.508 241.273 12.176 240.817 10.904C240.361 9.608 239.809 8.468 239.161 7.484C238.513 6.5 237.817 5.72 237.073 5.144C236.329 4.544 235.669 4.244 235.093 4.244C234.877 4.244 234.613 4.328 234.301 4.496C233.989 4.64 233.677 4.832 233.365 5.072C233.053 5.288 232.789 5.54 232.573 5.828C232.357 6.116 232.249 6.38 232.249 6.62C232.249 6.908 232.345 7.196 232.537 7.484C232.729 7.748 232.969 8.048 233.257 8.384C233.545 8.696 233.869 9.056 234.229 9.464C234.589 9.872 234.937 10.352 235.273 10.904C235.657 11.504 235.957 12.152 236.173 12.848C236.389 13.544 236.521 14.324 236.569 15.188ZM235.885 18.428C235.621 19.7 235.213 20.888 234.661 21.992C234.133 23.096 233.569 24.068 232.969 24.908C232.369 25.724 231.781 26.372 231.205 26.852C230.629 27.308 230.161 27.536 229.801 27.536C229.537 27.536 229.381 27.452 229.333 27.284C229.309 27.092 229.297 26.912 229.297 26.744C229.297 25.976 229.501 25.16 229.909 24.296C230.341 23.432 230.869 22.604 231.493 21.812C232.141 21.02 232.849 20.324 233.617 19.724C234.409 19.124 235.165 18.692 235.885 18.428ZM248.183 30.092C247.967 30.596 247.967 31.028 248.183 31.388C248.399 31.748 248.699 32.036 249.083 32.252C249.491 32.492 249.923 32.66 250.379 32.756C250.859 32.876 251.231 32.936 251.495 32.936C251.807 32.936 252.047 32.876 252.215 32.756C252.383 32.636 252.515 32.48 252.611 32.288C252.707 32.096 252.767 31.88 252.791 31.64C252.815 31.376 252.839 31.112 252.863 30.848C252.959 29.504 253.175 28.22 253.511 26.996C253.847 25.748 254.219 24.608 254.627 23.576C255.035 22.544 255.455 21.632 255.887 20.84C256.343 20.048 256.727 19.4 257.039 18.896C257.303 18.464 257.531 18.104 257.723 17.816C257.915 17.504 258.011 17.144 258.011 16.736C258.011 16.472 257.927 16.184 257.759 15.872C257.591 15.56 257.375 15.284 257.111 15.044C256.847 14.78 256.547 14.564 256.211 14.396C255.899 14.228 255.599 14.144 255.311 14.144C254.807 14.144 254.399 14.348 254.087 14.756C253.775 15.14 253.523 15.5 253.331 15.836C252.755 16.868 252.023 18.26 251.135 20.012C250.247 21.764 249.383 23.936 248.543 26.528C247.799 27.008 247.259 27.32 246.923 27.464C246.611 27.608 246.359 27.68 246.167 27.68C245.591 27.68 245.303 27.452 245.303 26.996C245.303 26.828 245.327 26.6 245.375 26.312C245.447 26.024 245.579 25.628 245.771 25.124C245.987 24.596 246.275 23.936 246.635 23.144C247.019 22.328 247.535 21.332 248.183 20.156C248.663 19.268 249.047 18.56 249.335 18.032C249.647 17.48 249.875 17.06 250.019 16.772C250.187 16.484 250.295 16.28 250.343 16.16C250.415 16.04 250.451 15.932 250.451 15.836C250.451 15.62 250.319 15.392 250.055 15.152C249.815 14.912 249.527 14.684 249.191 14.468C248.855 14.252 248.519 14.072 248.183 13.928C247.847 13.784 247.595 13.712 247.427 13.712C246.971 13.712 246.479 14.012 245.951 14.612C245.447 15.188 244.931 15.944 244.403 16.88C243.899 17.792 243.407 18.8 242.927 19.904C242.447 20.984 242.015 22.028 241.631 23.036C241.271 24.044 240.971 24.944 240.731 25.736C240.515 26.504 240.407 27.032 240.407 27.32C240.407 27.848 240.479 28.4 240.623 28.976C240.791 29.552 241.007 30.092 241.271 30.596C241.559 31.076 241.895 31.472 242.279 31.784C242.663 32.096 243.083 32.252 243.539 32.252C243.659 32.252 243.827 32.228 244.043 32.18C244.259 32.156 244.535 32.072 244.871 31.928C245.231 31.784 245.675 31.568 246.203 31.28C246.755 30.992 247.415 30.596 248.183 30.092ZM264.986 25.376C264.77 26.168 264.578 26.852 264.41 27.428C264.266 27.98 264.134 28.46 264.014 28.868C263.918 29.276 263.834 29.636 263.762 29.948C263.714 30.236 263.69 30.512 263.69 30.776C263.69 31.088 263.762 31.34 263.906 31.532C264.05 31.724 264.218 31.88 264.41 32C264.626 32.12 264.854 32.204 265.094 32.252C265.334 32.324 265.562 32.396 265.778 32.468C266.186 32.588 266.51 32.696 266.75 32.792C267.014 32.888 267.266 32.936 267.506 32.936C267.842 32.936 268.106 32.816 268.298 32.576C268.514 32.36 268.67 32.084 268.766 31.748C268.886 31.412 268.97 31.052 269.018 30.668C269.066 30.284 269.114 29.924 269.162 29.588C269.234 28.988 269.39 28.16 269.63 27.104C269.87 26.024 270.134 24.92 270.422 23.792C270.734 22.664 271.034 21.608 271.322 20.624C271.634 19.64 271.886 18.932 272.078 18.5C272.27 18.068 272.45 17.648 272.618 17.24C272.786 16.832 272.87 16.46 272.87 16.124C272.87 15.596 272.714 15.248 272.402 15.08C272.114 14.888 271.814 14.696 271.502 14.504C271.238 14.36 270.974 14.192 270.71 14C270.446 13.808 270.17 13.712 269.882 13.712C269.498 13.712 269.15 13.868 268.838 14.18C268.55 14.492 268.322 14.804 268.154 15.116C268.106 14.78 267.974 14.456 267.758 14.144C267.566 13.832 267.242 13.676 266.786 13.676C266.474 13.676 266.03 13.76 265.454 13.928C264.878 14.072 264.242 14.3 263.546 14.612C262.85 14.924 262.142 15.308 261.422 15.764C260.702 16.196 260.042 16.7 259.442 17.276C258.866 17.852 258.386 18.488 258.002 19.184C257.642 19.88 257.462 20.636 257.462 21.452C257.462 21.908 257.534 22.376 257.678 22.856C257.822 23.312 258.038 23.732 258.326 24.116C258.614 24.5 258.962 24.824 259.37 25.088C259.802 25.352 260.294 25.496 260.846 25.52C260.054 26.24 259.25 26.828 258.434 27.284C257.618 27.716 256.886 28.1 256.238 28.436C255.59 28.748 255.062 29.06 254.654 29.372C254.246 29.66 254.042 30.008 254.042 30.416C254.042 30.656 254.162 30.968 254.402 31.352C254.618 31.712 254.882 32.06 255.194 32.396C255.506 32.756 255.818 33.056 256.13 33.296C256.466 33.56 256.73 33.692 256.922 33.692C257.282 33.692 257.69 33.536 258.146 33.224C258.626 32.912 259.118 32.504 259.622 32C260.15 31.496 260.666 30.932 261.17 30.308C261.674 29.684 262.142 29.072 262.574 28.472C263.03 27.872 263.426 27.308 263.762 26.78C264.098 26.228 264.35 25.796 264.518 25.484L264.986 25.376ZM266.858 18.5C266.69 18.956 266.522 19.4 266.354 19.832C266.21 20.264 266.066 20.708 265.922 21.164C265.106 21.596 264.518 21.86 264.158 21.956C263.798 22.052 263.558 22.1 263.438 22.1C262.982 22.1 262.706 22.016 262.61 21.848C262.538 21.656 262.502 21.464 262.502 21.272C262.502 20.72 262.886 20.204 263.654 19.724C264.446 19.22 265.514 18.812 266.858 18.5Z" fill="#E70000"/>
<path d="M22.3846 12.22H15.8066V26H9.35863V12.22H2.78063V7.8H22.3846V12.22ZM47.1133 7.8L38.8453 20.098V26H32.3973V20.098L23.9473 7.8H31.5133L33.3853 10.92C34.4773 12.7053 35.2313 14.4127 35.6473 16.042H35.7513C36.1673 14.4473 36.9039 12.7227 37.9613 10.868L39.7293 7.8H47.1133ZM68.2147 12.22H61.6367V26H55.1887V12.22H48.6107V7.8H68.2147V12.22ZM22.4 48H2.76996V29.8H21.724V33.934H9.21796V36.82H19.904V40.824H9.21796V43.554H22.4V48ZM46.6509 38.77C46.6509 41.422 45.8015 43.6233 44.1029 45.374C42.4042 47.1247 40.1682 48 37.3949 48H24.7329V29.8H36.5109C37.8975 29.8 39.1802 29.9647 40.3589 30.294C41.5375 30.6233 42.6035 31.126 43.5569 31.802C44.5275 32.478 45.2815 33.414 45.8189 34.61C46.3735 35.7887 46.6509 37.1753 46.6509 38.77ZM39.7609 38.77C39.7609 35.5287 38.2789 33.908 35.3149 33.908H31.1809V43.58H35.3149C36.7362 43.58 37.8282 43.216 38.5909 42.488C39.3709 41.76 39.7609 40.5207 39.7609 38.77ZM70.0531 48H63.2151L62.3831 45.582H54.3231L53.4131 48H46.6531L54.6091 29.8H61.9671L70.0531 48ZM60.6671 41.24L58.2491 34.792L55.9611 41.24H60.6671Z" fill="#4FD520"/>
<line x1="92.5" y1="8" x2="92.5" y2="48" stroke="#222222"/>
</svg>
