<svg width="400" height="400" viewBox="0 0 400 400" fill="none" xmlns="http://www.w3.org/2000/svg">
<rect width="400" height="400" fill="black"/>
<path d="M49.984 158.6C55.6373 158.6 58.464 160.755 58.464 165.064C58.464 166.963 57.792 168.52 56.448 169.736C55.1253 170.952 53.5467 171.56 51.712 171.56C49.8773 171.56 48.32 171.261 47.04 170.664V173.768C47.04 176.051 47.104 177.608 47.232 178.44C47.3813 179.272 47.584 179.795 47.84 180.008C48.3307 180.413 49.1093 180.616 50.176 180.616L50.24 181H41.6L41.664 180.616C42.7307 180.616 43.5093 180.413 44 180.008C44.5333 179.56 44.8 177.48 44.8 173.768V165.832C44.8 163.549 44.7253 161.992 44.576 161.16C44.448 160.328 44.256 159.805 44 159.592C43.5093 159.187 42.7307 158.984 41.664 158.984L41.6 158.6H49.984ZM47.04 159.336V169.864C48.1493 170.461 49.4507 170.76 50.944 170.76C52.4587 170.76 53.6747 170.291 54.592 169.352C55.5093 168.392 55.968 166.963 55.968 165.064C55.968 162.696 55.2 161.117 53.664 160.328C52.4053 159.667 50.8907 159.336 49.12 159.336H47.04ZM71.0298 158.312C74.4644 158.312 77.2058 159.368 79.2538 161.48C81.3231 163.571 82.3578 166.291 82.3578 169.64C82.3578 172.968 81.3551 175.752 79.3498 177.992C77.3658 180.211 74.6671 181.32 71.2538 181.32C67.8404 181.32 65.0884 180.2 62.9978 177.96C60.9284 175.72 59.8938 172.936 59.8938 169.608C59.8938 166.259 60.8858 163.539 62.8698 161.448C64.8751 159.357 67.5951 158.312 71.0298 158.312ZM71.2218 180.584C73.9524 180.584 76.0218 179.603 77.4298 177.64C78.8591 175.656 79.5738 173.053 79.5738 169.832C79.5738 166.611 78.8271 164.008 77.3338 162.024C75.8404 160.04 73.7284 159.048 70.9978 159.048C68.2884 159.048 66.2191 160.029 64.7898 161.992C63.3818 163.955 62.6778 166.557 62.6778 169.8C62.6778 173.021 63.4244 175.624 64.9178 177.608C66.4111 179.592 68.5124 180.584 71.2218 180.584ZM107.941 165.832V173.768C107.941 176.051 108.005 177.608 108.132 178.44C108.282 179.272 108.484 179.795 108.74 180.008C109.231 180.413 110.01 180.616 111.076 180.616L111.14 181H102.564L102.628 180.616C103.674 180.616 104.442 180.424 104.932 180.04C105.338 179.72 105.572 178.675 105.636 176.904C105.679 176.2 105.7 175.155 105.7 173.768V160.232L96.7405 180.68L87.4925 163.368V173.704C87.4925 175.837 87.5885 177.384 87.7805 178.344C87.9938 179.283 88.3245 179.901 88.7725 180.2C89.2205 180.477 89.9672 180.616 91.0125 180.616L91.0765 181H83.2045L83.2685 180.616C84.0578 180.616 84.6445 180.563 85.0285 180.456C85.4338 180.328 85.7752 180.008 86.0525 179.496C86.3298 178.984 86.5005 178.301 86.5645 177.448C86.6498 176.595 86.6925 175.347 86.6925 173.704V165.864C86.6925 164.221 86.6498 162.973 86.5645 162.12C86.5005 161.267 86.3298 160.584 86.0525 160.072C85.7752 159.56 85.4338 159.251 85.0285 159.144C84.6445 159.016 84.0578 158.952 83.2685 158.952L83.2045 158.6H87.4925L97.3805 177.256L105.54 158.6H111.14L111.076 158.952C110.01 158.952 109.231 159.155 108.74 159.56C108.207 160.008 107.941 162.099 107.941 165.832ZM119.449 165.832V173.768C119.449 176.051 119.513 177.608 119.641 178.44C119.79 179.272 119.993 179.795 120.249 180.008C120.739 180.413 121.518 180.616 122.585 180.616L122.649 181H114.009L114.073 180.616C114.606 180.616 115.022 180.595 115.321 180.552C115.619 180.509 115.897 180.392 116.153 180.2C116.43 180.008 116.622 179.795 116.729 179.56C116.857 179.304 116.963 178.888 117.049 178.312C117.155 177.565 117.209 176.051 117.209 173.768V165.832C117.209 163.613 117.145 162.067 117.017 161.192C116.889 160.317 116.697 159.773 116.441 159.56C115.929 159.155 115.139 158.952 114.073 158.952L114.009 158.6H122.649L122.585 158.952C121.518 158.952 120.739 159.155 120.249 159.56C119.715 160.008 119.449 162.099 119.449 165.832ZM145.597 165.8V181.16H144.605L129.533 162.12V173.704C129.533 175.837 129.629 177.373 129.821 178.312C130.013 179.251 130.333 179.869 130.781 180.168C131.229 180.467 131.965 180.616 132.989 180.616L133.053 181H125.181L125.245 180.616C126.269 180.616 127.005 180.467 127.453 180.168C127.901 179.869 128.221 179.251 128.413 178.312C128.626 177.373 128.733 175.837 128.733 173.704V165.8C128.733 163.667 128.626 162.141 128.413 161.224C128.221 160.285 127.901 159.677 127.453 159.4C127.026 159.101 126.29 158.952 125.245 158.952L125.181 158.6H129.533L144.797 177.64V165.8C144.797 163.688 144.69 162.163 144.477 161.224C144.285 160.285 143.965 159.677 143.517 159.4C143.069 159.101 142.322 158.952 141.277 158.952L141.213 158.6H149.149L149.085 158.952C148.039 158.952 147.293 159.101 146.845 159.4C146.397 159.677 146.077 160.285 145.885 161.224C145.693 162.163 145.597 163.688 145.597 165.8ZM168.769 181C167.681 181 166.316 179.731 164.673 177.192C163.969 176.125 163.233 175.059 162.465 173.992C161.719 172.925 160.876 172.008 159.937 171.24C158.999 170.472 158.06 170.077 157.121 170.056V173.768C157.121 176.968 157.271 178.888 157.569 179.528C157.697 179.784 157.889 180.008 158.145 180.2C158.401 180.392 158.679 180.509 158.977 180.552C159.297 180.595 159.713 180.616 160.225 180.616L160.289 181H151.681L151.745 180.616C152.812 180.616 153.591 180.413 154.081 180.008C154.615 179.56 154.881 177.48 154.881 173.768V165.832C154.881 163.549 154.807 161.992 154.657 161.16C154.529 160.307 154.337 159.773 154.081 159.56C153.591 159.155 152.812 158.952 151.745 158.952L151.681 158.6H160.289L160.225 158.952C159.713 158.952 159.297 158.973 158.977 159.016C158.679 159.059 158.401 159.176 158.145 159.368C157.889 159.56 157.697 159.784 157.569 160.04C157.463 160.296 157.377 160.712 157.313 161.288C157.185 162.227 157.121 163.741 157.121 165.832V169.48C158.039 169.331 159.127 168.733 160.385 167.688C161.665 166.621 162.785 165.363 163.745 163.912C164.705 162.44 165.185 161.139 165.185 160.008C165.185 159.645 165.068 159.379 164.833 159.208C164.62 159.037 164.215 158.952 163.617 158.952L163.553 158.6H171.489L171.425 158.952C169.185 158.952 167.511 159.731 166.401 161.288C165.868 162.056 165.356 162.867 164.865 163.72C164.375 164.552 163.628 165.523 162.625 166.632C161.644 167.72 160.471 168.701 159.105 169.576C161.175 169.704 162.86 170.504 164.161 171.976C164.951 172.829 165.793 173.971 166.689 175.4C167.607 176.829 168.321 177.864 168.833 178.504C170.028 179.912 171.468 180.616 173.153 180.616L173.217 181H168.769ZM178.176 165.832V173.768C178.176 176.051 178.24 177.608 178.368 178.44C178.518 179.272 178.72 179.795 178.976 180.008C179.467 180.413 180.246 180.616 181.312 180.616L181.376 181H172.736L172.8 180.616C173.334 180.616 173.75 180.595 174.048 180.552C174.347 180.509 174.624 180.392 174.88 180.2C175.158 180.008 175.35 179.795 175.456 179.56C175.584 179.304 175.691 178.888 175.776 178.312C175.883 177.565 175.936 176.051 175.936 173.768V165.832C175.936 163.613 175.872 162.067 175.744 161.192C175.616 160.317 175.424 159.773 175.168 159.56C174.656 159.155 173.867 158.952 172.8 158.952L172.736 158.6H181.376L181.312 158.952C180.246 158.952 179.467 159.155 178.976 159.56C178.443 160.008 178.176 162.099 178.176 165.832ZM183.78 172.136V170.536H193.668V172.136H183.78ZM202.529 158.6C206.198 158.6 208.95 158.92 210.785 159.56C211.617 159.859 212.502 160.285 213.441 160.84C214.38 161.395 215.137 162.056 215.713 162.824C216.31 163.592 216.801 164.573 217.185 165.768C217.59 166.963 217.793 168.307 217.793 169.8C217.793 171.272 217.59 172.605 217.185 173.8C216.801 174.973 216.31 175.944 215.713 176.712C215.137 177.48 214.412 178.152 213.537 178.728C212.684 179.283 211.873 179.699 211.105 179.976C210.337 180.253 209.484 180.477 208.545 180.648C207.286 180.883 205.996 181 204.673 181H196.065L196.129 180.616C197.196 180.616 197.974 180.413 198.465 180.008C198.998 179.56 199.265 177.48 199.265 173.768V165.832C199.265 163.549 199.19 161.992 199.041 161.16C198.913 160.307 198.721 159.773 198.465 159.56C197.974 159.155 197.196 158.952 196.129 158.952L196.065 158.6H202.529ZM202.689 180.232C202.945 180.253 203.468 180.264 204.257 180.264C205.068 180.264 205.942 180.179 206.881 180.008C207.841 179.837 208.822 179.517 209.825 179.048C210.849 178.557 211.724 177.939 212.449 177.192C213.196 176.445 213.804 175.443 214.273 174.184C214.764 172.904 215.009 171.453 215.009 169.832C215.009 168.189 214.774 166.739 214.305 165.48C213.836 164.221 213.228 163.219 212.481 162.472C211.734 161.704 210.86 161.075 209.857 160.584C208.086 159.752 206.134 159.336 204.001 159.336C203.041 159.336 202.209 159.4 201.505 159.528V174.152C201.505 176.456 201.569 177.981 201.697 178.728C201.825 179.475 202.156 179.976 202.689 180.232ZM230.839 158.312C234.273 158.312 237.015 159.368 239.063 161.48C241.132 163.571 242.167 166.291 242.167 169.64C242.167 172.968 241.164 175.752 239.159 177.992C237.175 180.211 234.476 181.32 231.063 181.32C227.649 181.32 224.897 180.2 222.807 177.96C220.737 175.72 219.703 172.936 219.703 169.608C219.703 166.259 220.695 163.539 222.679 161.448C224.684 159.357 227.404 158.312 230.839 158.312ZM231.031 180.584C233.761 180.584 235.831 179.603 237.239 177.64C238.668 175.656 239.383 173.053 239.383 169.832C239.383 166.611 238.636 164.008 237.143 162.024C235.649 160.04 233.537 159.048 230.807 159.048C228.097 159.048 226.028 160.029 224.599 161.992C223.191 163.955 222.487 166.557 222.487 169.8C222.487 173.021 223.233 175.624 224.727 177.608C226.22 179.592 228.321 180.584 231.031 180.584ZM245.605 174.216C245.605 176.285 246.107 177.864 247.109 178.952C248.133 180.04 249.381 180.584 250.853 180.584C252.325 180.584 253.531 180.232 254.469 179.528C255.408 178.803 255.877 177.672 255.877 176.136C255.877 174.749 255.141 173.512 253.669 172.424C253.029 171.955 252.315 171.496 251.525 171.048C250.736 170.579 249.947 170.099 249.157 169.608C248.368 169.117 247.653 168.605 247.013 168.072C245.541 166.835 244.805 165.395 244.805 163.752C244.805 162.088 245.403 160.765 246.597 159.784C247.813 158.803 249.413 158.312 251.397 158.312C253.403 158.312 255.259 158.749 256.965 159.624C256.965 160.691 256.805 162.525 256.485 165.128L256.005 165C256.005 162.995 255.515 161.501 254.533 160.52C253.552 159.517 252.421 159.016 251.141 159.016C249.883 159.016 248.869 159.389 248.101 160.136C247.333 160.861 246.949 161.725 246.949 162.728C246.949 163.731 247.216 164.595 247.749 165.32C248.304 166.024 248.987 166.611 249.797 167.08C250.629 167.549 251.525 168.072 252.485 168.648C253.445 169.203 254.331 169.757 255.141 170.312C255.973 170.845 256.656 171.549 257.189 172.424C257.744 173.299 258.021 174.28 258.021 175.368C258.021 177.331 257.317 178.813 255.909 179.816C254.523 180.819 252.848 181.32 250.885 181.32C249.797 181.32 248.677 181.149 247.525 180.808C246.395 180.467 245.467 179.965 244.741 179.304C244.741 177.939 244.869 176.211 245.125 174.12L245.605 174.216ZM259.954 158.6H278.386V163.208L278.066 163.144C278.066 160.541 275.484 159.24 270.322 159.24V173.768C270.322 176.925 270.503 178.845 270.866 179.528C270.994 179.784 271.218 180.008 271.538 180.2C271.858 180.392 272.199 180.509 272.562 180.552C272.924 180.595 273.426 180.616 274.066 180.616L274.13 181H264.274L264.338 180.616C264.978 180.616 265.479 180.605 265.842 180.584C266.226 180.541 266.567 180.413 266.866 180.2C267.186 179.987 267.41 179.763 267.538 179.528C267.687 179.293 267.815 178.877 267.922 178.28C268.028 177.555 268.082 176.051 268.082 173.768V159.24C262.919 159.24 260.338 160.541 260.338 163.144L259.954 163.208V158.6ZM291.298 180.616C292.109 180.616 292.674 180.552 292.994 180.424C293.336 180.296 293.506 179.965 293.506 179.432C293.506 178.899 292.941 177.085 291.81 173.992H282.05C281.133 176.701 280.674 178.408 280.674 179.112C280.674 179.795 280.845 180.221 281.186 180.392C281.549 180.541 282.189 180.616 283.106 180.616L283.17 181H275.97L276.034 180.616C276.653 180.616 277.133 180.563 277.474 180.456C277.837 180.349 278.221 180.072 278.626 179.624C279.053 179.155 279.458 178.483 279.842 177.608C280.226 176.733 280.685 175.507 281.218 173.928L284.066 165.704C285.069 162.803 285.57 161.043 285.57 160.424C285.57 159.805 285.421 159.411 285.122 159.24C284.824 159.048 284.248 158.952 283.394 158.952L283.33 158.6H288.61L294.274 173.928C295.234 176.467 295.874 178.077 296.194 178.76C296.536 179.443 296.856 179.88 297.154 180.072C297.688 180.435 298.36 180.616 299.17 180.616L299.234 181H291.234L291.298 180.616ZM286.818 160.328L282.306 173.224H291.554L286.818 160.328ZM301.112 160.008C301.112 160.371 301.133 160.659 301.176 160.872C301.24 161.064 301.282 161.224 301.304 161.352C301.346 161.48 301.4 161.661 301.464 161.896C301.528 162.109 301.581 162.301 301.624 162.472C301.688 162.621 301.773 162.845 301.88 163.144C301.986 163.443 302.072 163.688 302.136 163.88C302.221 164.072 302.328 164.36 302.456 164.744C302.605 165.128 302.722 165.437 302.808 165.672L307.8 179.272L312.536 165.672C313.474 162.963 313.944 161.267 313.944 160.584C313.944 159.901 313.762 159.464 313.4 159.272C313.037 159.08 312.408 158.984 311.512 158.984L311.448 158.6H319.288L319.224 158.984C318.413 158.984 317.794 159.037 317.368 159.144C316.962 159.251 316.525 159.539 316.056 160.008C315.608 160.477 315.192 161.139 314.808 161.992C314.424 162.845 313.954 164.072 313.4 165.672L308.024 181.16H306.008L300.344 165.672C299.149 162.472 298.306 160.584 297.816 160.008C297.624 159.773 297.357 159.56 297.016 159.368C296.696 159.176 296.376 159.069 296.056 159.048C295.757 159.005 295.341 158.984 294.808 158.984L294.744 158.6H303.384L303.32 158.984C302.509 158.984 301.933 159.059 301.592 159.208C301.272 159.357 301.112 159.624 301.112 160.008ZM337.827 181C336.739 181 335.373 179.731 333.731 177.192C333.027 176.125 332.291 175.059 331.523 173.992C330.776 172.925 329.933 172.008 328.995 171.24C328.056 170.472 327.117 170.077 326.179 170.056V173.768C326.179 176.968 326.328 178.888 326.627 179.528C326.755 179.784 326.947 180.008 327.203 180.2C327.459 180.392 327.736 180.509 328.035 180.552C328.355 180.595 328.771 180.616 329.283 180.616L329.347 181H320.739L320.803 180.616C321.869 180.616 322.648 180.413 323.139 180.008C323.672 179.56 323.939 177.48 323.939 173.768V165.832C323.939 163.549 323.864 161.992 323.715 161.16C323.587 160.307 323.395 159.773 323.139 159.56C322.648 159.155 321.869 158.952 320.803 158.952L320.739 158.6H329.347L329.283 158.952C328.771 158.952 328.355 158.973 328.035 159.016C327.736 159.059 327.459 159.176 327.203 159.368C326.947 159.56 326.755 159.784 326.627 160.04C326.52 160.296 326.435 160.712 326.371 161.288C326.243 162.227 326.179 163.741 326.179 165.832V169.48C327.096 169.331 328.184 168.733 329.443 167.688C330.723 166.621 331.843 165.363 332.803 163.912C333.763 162.44 334.243 161.139 334.243 160.008C334.243 159.645 334.125 159.379 333.891 159.208C333.677 159.037 333.272 158.952 332.675 158.952L332.611 158.6H340.547L340.483 158.952C338.243 158.952 336.568 159.731 335.459 161.288C334.925 162.056 334.413 162.867 333.923 163.72C333.432 164.552 332.685 165.523 331.683 166.632C330.701 167.72 329.528 168.701 328.163 169.576C330.232 169.704 331.917 170.504 333.219 171.976C334.008 172.829 334.851 173.971 335.747 175.4C336.664 176.829 337.379 177.864 337.891 178.504C339.085 179.912 340.525 180.616 342.211 180.616L342.275 181H337.827ZM354.37 180.616C355.18 180.616 355.746 180.552 356.066 180.424C356.407 180.296 356.578 179.965 356.578 179.432C356.578 178.899 356.012 177.085 354.882 173.992H345.122C344.204 176.701 343.746 178.408 343.746 179.112C343.746 179.795 343.916 180.221 344.258 180.392C344.62 180.541 345.26 180.616 346.178 180.616L346.242 181H339.042L339.106 180.616C339.724 180.616 340.204 180.563 340.546 180.456C340.908 180.349 341.292 180.072 341.698 179.624C342.124 179.155 342.53 178.483 342.914 177.608C343.298 176.733 343.756 175.507 344.29 173.928L347.138 165.704C348.14 162.803 348.642 161.043 348.642 160.424C348.642 159.805 348.492 159.411 348.194 159.24C347.895 159.048 347.319 158.952 346.466 158.952L346.402 158.6H351.682L357.346 173.928C358.306 176.467 358.946 178.077 359.266 178.76C359.607 179.443 359.927 179.88 360.226 180.072C360.759 180.435 361.431 180.616 362.242 180.616L362.306 181H354.306L354.37 180.616ZM349.89 160.328L345.378 173.224H354.626L349.89 160.328Z" fill="#F9F9F9"/>
<path fill-rule="evenodd" clip-rule="evenodd" d="M210.224 43.1404C209.329 44.3176 207.872 46.5351 206.986 48.0681C204.393 52.5521 203.264 55.9817 203.264 59.3668C203.264 62.4006 204.233 64.7611 206.284 66.7217L207.374 67.7628L207.526 65.4815C207.776 61.7146 208.602 59.585 210.493 57.829L211.414 56.9738L212.862 58.1959C213.671 58.8778 215.065 59.7668 216.017 60.207C217.972 61.1114 218.896 61.9233 219.751 63.4895C220.268 64.439 220.353 64.8656 220.355 66.5349C220.357 67.6027 220.427 68.4762 220.511 68.4762C220.595 68.4762 221.139 68.023 221.721 67.4691C223.812 65.4783 224.713 63.0253 224.244 60.6019C223.76 58.0991 221.465 54.8098 219.157 53.3103C217.435 52.1914 214.366 49.4079 213.309 48.0058C212.788 47.3145 212.174 46.2842 211.946 45.7161C211.465 44.5213 211.401 42.1245 211.832 41.448C211.989 41.2015 212.058 41 211.984 41C211.911 41 211.119 41.9631 210.224 43.1404ZM181.888 63.0809C182.189 64.2309 181.84 65.6591 180.909 67.0825C180.467 67.7572 179.097 69.0944 177.338 70.5668C173.329 73.9234 172.099 75.743 172.099 78.3174C172.099 79.7768 172.999 81.5584 174.25 82.5768L175.062 83.2381L175.168 81.5813C175.327 79.0746 176.012 78.1424 178.672 76.8096C179.537 76.3764 180.641 75.668 181.127 75.2357L182.009 74.4499L182.727 75.0965C184.175 76.4015 185.095 78.907 185.115 81.6044L185.123 82.6869L185.793 82.1374C186.718 81.3786 187.602 79.9228 188.055 78.4104C188.758 76.067 188.051 72.5158 186.137 68.779C185.348 67.2397 183.018 63.7298 182.102 62.7022L181.659 62.2044L181.888 63.0809ZM212.101 71.0508V76.0148L203.903 76.0781L195.705 76.1416L194.415 76.6595C191.071 78.0022 189.542 80.2537 189.542 83.8338V85.3694L194.019 85.4346C198.139 85.4943 198.574 85.5353 199.478 85.9486C201.018 86.6533 202.027 87.5221 202.731 88.7484L203.38 89.8797L203.444 107.642L203.508 125.404L204.334 125.599C206.193 126.038 207.666 127.632 207.677 129.216C207.686 130.434 207.041 131.914 206.255 132.48L205.534 133L222.83 132.943C240.045 132.886 240.131 132.884 241.057 132.456C244.291 130.962 244.994 127.484 242.493 125.346C241.425 124.432 240.205 124.026 238.535 124.026H237.462L237.399 102.668L237.336 81.3097L236.577 79.9915C235.695 78.4574 234.434 77.4043 232.596 76.6663C231.298 76.1456 231.241 76.141 224.893 76.0751L218.497 76.0086L218.994 76.4733C220.007 77.4199 220.953 79.513 221.569 82.1683C221.852 83.3844 221.957 86.007 222.073 94.6582C222.216 105.427 222.227 105.622 222.728 106.424C223.343 107.408 224.668 108.443 225.537 108.618C227.669 109.048 228.847 110.349 228.847 112.274C228.847 116.829 221.651 117.152 218.892 112.721C217.499 110.483 217.449 110.007 217.353 97.894C217.305 91.8437 217.147 85.594 217.002 84.0062C216.56 79.1632 215.829 76.0421 215.137 76.0421C214.972 76.0421 214.892 74.4112 214.892 71.0645V66.0869H213.497H212.101V71.0508ZM179.309 85.2149C179.309 88.2413 179.241 89.07 178.976 89.2967C178.034 90.1035 177.651 94.2174 177.469 105.509C177.317 114.932 177.289 115.411 176.815 116.422C176.542 117.003 176.053 117.778 175.727 118.144C175.011 118.948 173 119.845 171.914 119.845C169.979 119.845 168.609 118.638 168.611 116.934C168.612 115.576 169.216 114.803 170.625 114.36C172.046 113.913 173.209 112.992 173.497 112.085C173.62 111.699 173.762 107.665 173.812 103.12C173.914 93.899 174.038 92.9483 175.462 90.5159L176.255 89.1612L171.328 89.2217C165.858 89.2892 165.363 89.3875 163.811 90.7166C162.097 92.1837 162.222 90.7856 162.151 109.342L162.088 126.017H161.12C159.656 126.017 158.247 126.692 157.532 127.737C157.022 128.481 156.942 128.797 157.031 129.717C157.204 131.495 158.58 132.66 160.772 132.884C161.438 132.952 170.467 132.98 180.837 132.947L199.693 132.886L200.683 132.325C201.758 131.716 202.556 130.513 202.556 129.501C202.556 128.101 201.3 126.679 199.649 126.213L198.855 125.989L198.792 109.428C198.732 93.7164 198.706 92.8304 198.295 92.1694C197.691 91.1966 196.569 90.2204 195.472 89.7129C194.599 89.3089 194.143 89.2762 188.03 89.1829L181.518 89.0833L181.455 85.2506L181.392 81.4179H180.35H179.309V85.2149Z" fill="#F9F9F9"/>
<path d="M179.823 272.8H169.703V294H159.783V272.8H149.663V266H179.823V272.8ZM217.867 266L205.147 284.92V294H195.227V284.92L182.227 266H193.867L196.747 270.8C198.427 273.547 199.587 276.173 200.227 278.68H200.387C201.027 276.227 202.16 273.573 203.787 270.72L206.507 266H217.867ZM250.33 272.8H240.21V294H230.29V272.8H220.17V266H250.33V272.8ZM179.846 328H149.646V300H178.806V306.36H159.566V310.8H176.006V316.96H159.566V321.16H179.846V328ZM217.155 313.8C217.155 317.88 215.848 321.267 213.235 323.96C210.622 326.653 207.182 328 202.915 328H183.435V300H201.555C203.688 300 205.662 300.253 207.475 300.76C209.288 301.267 210.928 302.04 212.395 303.08C213.888 304.12 215.048 305.56 215.875 307.4C216.728 309.213 217.155 311.347 217.155 313.8ZM206.555 313.8C206.555 308.813 204.275 306.32 199.715 306.32H193.355V321.2H199.715C201.902 321.2 203.582 320.64 204.755 319.52C205.955 318.4 206.555 316.493 206.555 313.8ZM253.159 328H242.639L241.359 324.28H228.959L227.559 328H217.159L229.399 300H240.719L253.159 328ZM238.719 317.6L234.999 307.68L231.479 317.6H238.719Z" fill="white"/>
<line x1="51" y1="199.5" x2="349" y2="199.5" stroke="white"/>
</svg>
