<svg width="400" height="400" viewBox="0 0 400 400" fill="none" xmlns="http://www.w3.org/2000/svg">
<rect width="400" height="400" fill="#D1E381"/>
<circle cx="330" cy="102" r="13" fill="white"/>
<path d="M154.601 150.3H131.831V198H109.511V150.3H86.7406V135H154.601V150.3ZM240.2 135L211.58 177.57V198H189.26V177.57L160.01 135H186.2L192.68 145.8C196.46 151.98 199.07 157.89 200.51 163.53H200.87C202.31 158.01 204.86 152.04 208.52 145.62L214.64 135H240.2ZM313.243 150.3H290.473V198H268.153V150.3H245.383V135H313.243V150.3ZM154.654 279H86.7037V216H152.314V230.31H109.024V240.3H146.014V254.16H109.024V263.61H154.654V279ZM238.599 247.05C238.599 256.23 235.659 263.85 229.779 269.91C223.899 275.97 216.159 279 206.559 279H162.729V216H203.499C208.299 216 212.739 216.57 216.819 217.71C220.899 218.85 224.589 220.59 227.889 222.93C231.249 225.27 233.859 228.51 235.719 232.65C237.639 236.73 238.599 241.53 238.599 247.05ZM214.749 247.05C214.749 235.83 209.619 230.22 199.359 230.22H185.049V263.7H199.359C204.279 263.7 208.059 262.44 210.699 259.92C213.399 257.4 214.749 253.11 214.749 247.05ZM319.607 279H295.937L293.057 270.63H265.157L262.007 279H238.607L266.147 216H291.617L319.607 279ZM287.117 255.6L278.747 233.28L270.827 255.6H287.117Z" fill="white"/>
<line x1="81" y1="308" x2="319" y2="308" stroke="white" stroke-width="6"/>
</svg>
