<svg width="400" height="400" viewBox="0 0 400 400" fill="none" xmlns="http://www.w3.org/2000/svg">
<rect width="400" height="400" fill="#F4F1F1"/>
<path d="M137.323 324.2C137.206 324.5 137.014 324.925 136.748 325.475C136.481 326.025 136.181 326.567 135.848 327.1C135.514 327.633 135.164 328.1 134.798 328.5C134.448 328.883 134.123 329.075 133.823 329.075C133.673 329.075 133.573 329.042 133.523 328.975C133.489 328.892 133.473 328.8 133.473 328.7C133.473 328.567 133.481 328.442 133.498 328.325C133.531 328.192 133.564 328.058 133.598 327.925C133.614 327.842 133.623 327.767 133.623 327.7C133.639 327.617 133.648 327.533 133.648 327.45C133.648 327.117 133.531 326.867 133.298 326.7C133.064 326.533 132.756 326.45 132.373 326.45C131.373 326.45 130.698 326.725 130.348 327.275C129.998 327.825 129.823 328.55 129.823 329.45C129.823 330.133 129.956 330.667 130.223 331.05C130.506 331.417 130.823 331.683 131.173 331.85C131.523 332.017 131.856 332.108 132.173 332.125C132.506 332.158 132.723 332.175 132.823 332.175C133.856 332.175 134.814 331.95 135.698 331.5C136.598 331.033 137.414 330.425 138.148 329.675C138.881 328.925 139.531 328.067 140.098 327.1C140.664 326.133 141.139 325.15 141.523 324.15C141.906 323.15 142.198 322.175 142.398 321.225C142.598 320.258 142.698 319.4 142.698 318.65C142.698 318.067 142.573 317.525 142.323 317.025C142.073 316.525 141.748 316.092 141.348 315.725C140.948 315.342 140.489 315.042 139.973 314.825C139.456 314.608 138.931 314.5 138.398 314.5C137.214 314.5 136.273 314.625 135.573 314.875C134.873 315.125 134.339 315.433 133.973 315.8C133.606 316.167 133.364 316.55 133.248 316.95C133.148 317.35 133.098 317.7 133.098 318C133.098 318.317 133.173 318.55 133.323 318.7C133.489 318.85 133.714 318.925 133.998 318.925C134.281 318.925 134.539 318.875 134.773 318.775C135.023 318.658 135.248 318.542 135.448 318.425C135.831 318.225 136.256 318.05 136.723 317.9C137.206 317.733 137.623 317.65 137.973 317.65C138.006 317.65 138.064 317.658 138.148 317.675C138.231 317.692 138.314 317.742 138.398 317.825C138.481 317.892 138.556 318 138.623 318.15C138.689 318.3 138.723 318.517 138.723 318.8C138.723 319.133 138.689 319.492 138.623 319.875C138.556 320.242 138.464 320.592 138.348 320.925C137.864 320.892 137.414 320.867 136.998 320.85C136.598 320.833 136.139 320.825 135.623 320.825C135.106 320.825 134.689 320.867 134.373 320.95C134.073 321.017 133.839 321.117 133.673 321.25C133.506 321.383 133.381 321.542 133.298 321.725C133.214 321.908 133.139 322.1 133.073 322.3C132.939 322.7 132.823 323.008 132.723 323.225C132.623 323.425 132.573 323.617 132.573 323.8C132.573 323.967 132.614 324.142 132.698 324.325C132.798 324.508 133.014 324.6 133.348 324.6C133.698 324.6 133.923 324.583 134.023 324.55C134.139 324.517 134.281 324.475 134.448 324.425C134.631 324.375 134.923 324.333 135.323 324.3C135.723 324.25 136.389 324.217 137.323 324.2ZM151.807 321.225C151.723 320.742 151.54 320.342 151.257 320.025C150.99 319.692 150.665 319.525 150.282 319.525C150.048 319.525 149.782 319.583 149.482 319.7C149.198 319.817 148.907 319.967 148.607 320.15C148.323 320.317 148.048 320.5 147.782 320.7C147.532 320.9 147.323 321.075 147.157 321.225C147.19 320.958 147.248 320.733 147.332 320.55C147.415 320.35 147.457 320.2 147.457 320.1C147.457 320.017 147.415 319.942 147.332 319.875C147.265 319.792 147.173 319.725 147.057 319.675C146.94 319.608 146.823 319.55 146.707 319.5C146.59 319.45 146.498 319.4 146.432 319.35C146.215 319.233 146.023 319.117 145.857 319C145.69 318.867 145.515 318.8 145.332 318.8C145.032 318.8 144.807 318.9 144.657 319.1C144.507 319.283 144.39 319.483 144.307 319.7C144.24 319.9 144.198 320.05 144.182 320.15C144.165 320.233 144.123 320.375 144.057 320.575C144.007 320.775 143.907 321.092 143.757 321.525C143.623 321.942 143.398 322.583 143.082 323.45C142.748 324.4 142.482 325.125 142.282 325.625C142.098 326.108 141.94 326.5 141.807 326.8C141.69 327.1 141.582 327.358 141.482 327.575C141.382 327.792 141.248 328.083 141.082 328.45C140.798 329.1 140.623 329.567 140.557 329.85C140.49 330.117 140.457 330.333 140.457 330.5C140.457 330.833 140.557 331.083 140.757 331.25C140.973 331.417 141.207 331.558 141.457 331.675C141.84 331.858 142.098 331.983 142.232 332.05C142.382 332.133 142.523 332.175 142.657 332.175C142.873 332.175 143.057 332.117 143.207 332C143.373 331.9 143.515 331.775 143.632 331.625C143.748 331.458 143.848 331.283 143.932 331.1C144.015 330.9 144.09 330.708 144.157 330.525C144.24 330.275 144.323 330.05 144.407 329.85C144.49 329.65 144.573 329.433 144.657 329.2C144.74 328.967 144.84 328.692 144.957 328.375C145.073 328.058 145.207 327.675 145.357 327.225C145.473 326.858 145.565 326.583 145.632 326.4C145.698 326.2 145.757 326.042 145.807 325.925C145.857 325.808 145.898 325.692 145.932 325.575C145.965 325.458 146.023 325.292 146.107 325.075C146.373 324.908 146.607 324.742 146.807 324.575C147.007 324.392 147.182 324.225 147.332 324.075C147.498 323.925 147.64 323.808 147.757 323.725C147.89 323.625 148.015 323.575 148.132 323.575C148.298 323.575 148.382 323.692 148.382 323.925C148.382 324.108 148.332 324.35 148.232 324.65C148.148 324.95 148.048 325.258 147.932 325.575C147.815 325.875 147.698 326.158 147.582 326.425C147.482 326.675 147.415 326.85 147.382 326.95C147.115 327.6 146.89 328.133 146.707 328.55C146.54 328.95 146.398 329.275 146.282 329.525C146.182 329.775 146.107 329.975 146.057 330.125C146.007 330.258 145.982 330.392 145.982 330.525C145.982 330.858 146.082 331.092 146.282 331.225C146.482 331.358 146.665 331.475 146.832 331.575C146.998 331.675 147.182 331.8 147.382 331.95C147.598 332.1 147.84 332.175 148.107 332.175C148.723 332.175 149.29 331.575 149.807 330.375C150.323 329.158 150.898 327.383 151.532 325.05C151.648 324.917 151.79 324.775 151.957 324.625C152.123 324.458 152.29 324.308 152.457 324.175C152.64 324.042 152.815 323.933 152.982 323.85C153.165 323.75 153.323 323.7 153.457 323.7C153.69 323.7 153.823 323.75 153.857 323.85C153.907 323.95 153.932 324.05 153.932 324.15C153.932 324.3 153.873 324.558 153.757 324.925C153.657 325.275 153.532 325.65 153.382 326.05C153.232 326.45 153.082 326.833 152.932 327.2C152.798 327.55 152.707 327.8 152.657 327.95C152.49 328.367 152.315 328.717 152.132 329C151.965 329.283 151.815 329.542 151.682 329.775C151.548 329.992 151.432 330.192 151.332 330.375C151.248 330.542 151.207 330.717 151.207 330.9C151.207 331.233 151.29 331.475 151.457 331.625C151.64 331.775 151.84 331.917 152.057 332.05C152.257 332.183 152.457 332.317 152.657 332.45C152.857 332.583 153.057 332.65 153.257 332.65C153.473 332.65 153.665 332.6 153.832 332.5C153.998 332.4 154.14 332.275 154.257 332.125C154.39 331.975 154.498 331.825 154.582 331.675C154.665 331.508 154.732 331.375 154.782 331.275C155.665 329.208 156.273 327.475 156.607 326.075C156.957 324.675 157.132 323.683 157.132 323.1C157.132 322.817 157.065 322.5 156.932 322.15C156.815 321.8 156.648 321.475 156.432 321.175C156.215 320.858 155.957 320.6 155.657 320.4C155.373 320.183 155.065 320.075 154.732 320.075C154.482 320.075 154.207 320.125 153.907 320.225C153.623 320.308 153.34 320.417 153.057 320.55C152.79 320.667 152.54 320.792 152.307 320.925C152.09 321.058 151.923 321.158 151.807 321.225ZM165.212 321.15C165.146 320.95 165.071 320.742 164.987 320.525C164.921 320.308 164.829 320.108 164.712 319.925C164.612 319.725 164.479 319.567 164.312 319.45C164.146 319.333 163.946 319.275 163.712 319.275C163.479 319.275 163.162 319.392 162.762 319.625C162.379 319.858 161.987 320.125 161.587 320.425C161.187 320.725 160.821 321.025 160.487 321.325C160.154 321.625 159.929 321.842 159.812 321.975C158.912 322.925 158.237 323.917 157.787 324.95C157.354 325.983 157.137 327 157.137 328C157.137 328.5 157.212 329 157.362 329.5C157.512 329.983 157.737 330.425 158.037 330.825C158.337 331.225 158.704 331.55 159.137 331.8C159.587 332.05 160.096 332.175 160.662 332.175C161.512 332.175 162.346 331.908 163.162 331.375C163.979 330.842 164.704 330.183 165.337 329.4C165.987 328.6 166.504 327.742 166.887 326.825C167.271 325.892 167.462 325.025 167.462 324.225C167.462 323.325 167.279 322.658 166.912 322.225C166.562 321.775 165.996 321.417 165.212 321.15ZM163.912 322.8C163.962 322.917 164.004 323.042 164.037 323.175C164.087 323.292 164.112 323.442 164.112 323.625C164.112 324.142 164.004 324.725 163.787 325.375C163.571 326.008 163.304 326.617 162.987 327.2C162.671 327.767 162.321 328.25 161.937 328.65C161.571 329.033 161.237 329.225 160.937 329.225C160.754 329.225 160.637 329.142 160.587 328.975C160.554 328.808 160.537 328.675 160.537 328.575C160.537 328.058 160.629 327.508 160.812 326.925C161.012 326.325 161.271 325.758 161.587 325.225C161.904 324.675 162.262 324.183 162.662 323.75C163.062 323.317 163.479 323 163.912 322.8ZM174.3 322.675C174.3 322.925 174.359 323.117 174.475 323.25C174.609 323.383 174.834 323.45 175.15 323.45C175.45 323.45 175.775 323.375 176.125 323.225C176.492 323.075 176.842 322.917 177.175 322.75C177.509 322.567 177.825 322.4 178.125 322.25C178.425 322.1 178.675 322.025 178.875 322.025C178.992 322.025 179.084 322.1 179.15 322.25C179.217 322.383 179.25 322.525 179.25 322.675C179.25 322.892 179.142 323.092 178.925 323.275C178.725 323.442 178.467 323.6 178.15 323.75C177.85 323.9 177.525 324.042 177.175 324.175C176.842 324.292 176.542 324.4 176.275 324.5C175.875 324.65 175.442 324.842 174.975 325.075C174.509 325.308 174.075 325.592 173.675 325.925C173.275 326.258 172.942 326.658 172.675 327.125C172.425 327.592 172.3 328.133 172.3 328.75C172.3 329 172.342 329.325 172.425 329.725C172.509 330.108 172.684 330.483 172.95 330.85C173.217 331.217 173.584 331.533 174.05 331.8C174.534 332.05 175.175 332.175 175.975 332.175C176.392 332.175 176.8 332.142 177.2 332.075C177.6 332.025 178.025 331.925 178.475 331.775C179.109 331.558 179.584 331.358 179.9 331.175C180.234 330.975 180.467 330.792 180.6 330.625C180.75 330.442 180.842 330.275 180.875 330.125C180.909 329.958 180.942 329.8 180.975 329.65C181.025 329.417 181.075 329.225 181.125 329.075C181.192 328.908 181.225 328.7 181.225 328.45C181.225 328.15 181.092 327.942 180.825 327.825C180.559 327.692 180.242 327.692 179.875 327.825C179.709 327.892 179.567 327.958 179.45 328.025C179.35 328.075 179.242 328.133 179.125 328.2C179.025 328.267 178.892 328.35 178.725 328.45C178.575 328.533 178.359 328.633 178.075 328.75C177.475 329.017 177.05 329.175 176.8 329.225C176.567 329.258 176.425 329.275 176.375 329.275C176.159 329.275 176.017 329.2 175.95 329.05C175.9 328.9 175.875 328.758 175.875 328.625C175.875 328.458 175.992 328.267 176.225 328.05C176.475 327.817 177 327.533 177.8 327.2C178.167 327.05 178.634 326.858 179.2 326.625C179.784 326.375 180.35 326.067 180.9 325.7C181.45 325.317 181.917 324.858 182.3 324.325C182.7 323.792 182.9 323.167 182.9 322.45C182.9 322.1 182.825 321.742 182.675 321.375C182.542 320.992 182.325 320.65 182.025 320.35C181.725 320.033 181.342 319.783 180.875 319.6C180.425 319.4 179.884 319.3 179.25 319.3C178.25 319.3 177.425 319.425 176.775 319.675C176.142 319.908 175.642 320.2 175.275 320.55C174.909 320.883 174.65 321.25 174.5 321.65C174.367 322.033 174.3 322.375 174.3 322.675ZM187.821 330.775C187.771 330.925 187.746 331.075 187.746 331.225C187.746 331.475 187.796 331.675 187.896 331.825C187.996 331.975 188.121 332.083 188.271 332.15C188.421 332.233 188.588 332.292 188.771 332.325C188.954 332.358 189.121 332.392 189.271 332.425C189.538 332.492 189.746 332.55 189.896 332.6C190.063 332.65 190.229 332.675 190.396 332.675C190.613 332.675 190.779 332.608 190.896 332.475C191.029 332.358 191.129 332.2 191.196 332C191.263 331.817 191.304 331.625 191.321 331.425C191.338 331.208 191.354 331.008 191.371 330.825C191.388 330.608 191.413 330.333 191.446 330C191.479 329.65 191.521 329.275 191.571 328.875C191.638 328.458 191.721 328.017 191.821 327.55C191.938 327.067 192.071 326.575 192.221 326.075C192.521 325.158 192.804 324.408 193.071 323.825C193.354 323.225 193.596 322.733 193.796 322.35C194.013 321.967 194.179 321.658 194.296 321.425C194.429 321.175 194.496 320.925 194.496 320.675C194.496 320.375 194.404 320.142 194.221 319.975C194.038 319.808 193.838 319.642 193.621 319.475C193.471 319.358 193.304 319.233 193.121 319.1C192.938 318.95 192.738 318.867 192.521 318.85C192.321 318.833 192.104 318.917 191.871 319.1C191.654 319.267 191.429 319.608 191.196 320.125C190.963 319.842 190.738 319.658 190.521 319.575C190.304 319.475 190.113 319.425 189.946 319.425C189.646 319.425 189.238 319.567 188.721 319.85C188.204 320.133 187.679 320.467 187.146 320.85C186.613 321.233 186.104 321.633 185.621 322.05C185.154 322.467 184.813 322.8 184.596 323.05C183.896 323.85 183.354 324.692 182.971 325.575C182.588 326.458 182.396 327.342 182.396 328.225C182.396 328.692 182.446 329.167 182.546 329.65C182.663 330.117 182.838 330.542 183.071 330.925C183.304 331.292 183.596 331.592 183.946 331.825C184.296 332.058 184.713 332.175 185.196 332.175C185.763 332.175 186.238 332.042 186.621 331.775C187.021 331.492 187.388 331.15 187.721 330.75L187.821 330.775ZM189.621 323.225C189.304 324.275 188.979 325.15 188.646 325.85C188.329 326.55 188.021 327.108 187.721 327.525C187.438 327.925 187.179 328.208 186.946 328.375C186.713 328.542 186.538 328.625 186.421 328.625C186.338 328.625 186.254 328.583 186.171 328.5C186.104 328.417 186.071 328.258 186.071 328.025C186.071 327.575 186.179 327.108 186.396 326.625C186.613 326.125 186.888 325.65 187.221 325.2C187.571 324.75 187.954 324.35 188.371 324C188.788 323.633 189.204 323.375 189.621 323.225ZM196.487 331.05C196.587 331.167 196.67 331.292 196.737 331.425C196.82 331.558 196.903 331.683 196.987 331.8C197.07 331.9 197.162 331.983 197.262 332.05C197.378 332.133 197.512 332.175 197.662 332.175C198.028 332.175 198.453 332.042 198.937 331.775C199.42 331.492 199.92 331.125 200.437 330.675C200.953 330.208 201.462 329.675 201.962 329.075C202.462 328.475 202.912 327.85 203.312 327.2C203.712 326.55 204.028 325.9 204.262 325.25C204.512 324.6 204.637 323.992 204.637 323.425C204.637 322.975 204.57 322.508 204.437 322.025C204.32 321.542 204.145 321.108 203.912 320.725C203.678 320.342 203.395 320.025 203.062 319.775C202.728 319.525 202.353 319.4 201.937 319.4C201.37 319.4 200.837 319.517 200.337 319.75C200.403 319.483 200.445 319.3 200.462 319.2C200.478 319.1 200.487 319.025 200.487 318.975C200.487 318.842 200.403 318.7 200.237 318.55C200.087 318.383 199.887 318.233 199.637 318.1C199.403 317.967 199.145 317.858 198.862 317.775C198.578 317.675 198.312 317.625 198.062 317.625C197.828 317.625 197.645 317.717 197.512 317.9C197.378 318.083 197.27 318.308 197.187 318.575C197.103 318.825 197.028 319.1 196.962 319.4C196.912 319.7 196.845 319.958 196.762 320.175C196.562 320.225 196.353 320.3 196.137 320.4C195.937 320.483 195.745 320.592 195.562 320.725C195.395 320.842 195.253 320.983 195.137 321.15C195.037 321.3 194.987 321.458 194.987 321.625C194.987 321.725 194.995 321.875 195.012 322.075C195.045 322.275 195.087 322.5 195.137 322.75C195.187 322.983 195.253 323.217 195.337 323.45C195.42 323.667 195.52 323.842 195.637 323.975C195.103 325.325 194.653 326.442 194.287 327.325C193.937 328.192 193.645 328.9 193.412 329.45C193.178 330 192.987 330.433 192.837 330.75C192.703 331.05 192.587 331.3 192.487 331.5C192.387 331.7 192.303 331.883 192.237 332.05C192.153 332.233 192.045 332.467 191.912 332.75C191.778 333.05 191.67 333.3 191.587 333.5C191.487 333.7 191.412 333.858 191.362 333.975C191.312 334.108 191.278 334.208 191.262 334.275C191.245 334.342 191.237 334.4 191.237 334.45C191.237 334.633 191.345 334.833 191.562 335.05C191.762 335.283 192.003 335.508 192.287 335.725C192.553 335.942 192.828 336.117 193.112 336.25C193.395 336.4 193.612 336.475 193.762 336.475C193.928 336.475 194.078 336.408 194.212 336.275C194.345 336.158 194.462 336.008 194.562 335.825C194.662 335.642 194.753 335.433 194.837 335.2C194.92 334.983 195.003 334.775 195.087 334.575C195.303 334.042 195.462 333.65 195.562 333.4C195.678 333.15 195.762 332.958 195.812 332.825C195.862 332.708 195.895 332.6 195.912 332.5C195.945 332.417 196.003 332.258 196.087 332.025C196.17 331.792 196.237 331.617 196.287 331.5C196.337 331.367 196.403 331.217 196.487 331.05ZM197.637 328.25C197.703 328.05 197.77 327.85 197.837 327.65C197.903 327.433 198.003 327.15 198.137 326.8C198.27 326.45 198.445 326 198.662 325.45C198.878 324.883 199.162 324.142 199.512 323.225C199.545 323.192 199.678 323.125 199.912 323.025C200.162 322.908 200.445 322.85 200.762 322.85C201.195 322.85 201.412 323.083 201.412 323.55C201.412 323.883 201.312 324.267 201.112 324.7C200.912 325.133 200.637 325.575 200.287 326.025C199.953 326.475 199.553 326.9 199.087 327.3C198.637 327.7 198.153 328.017 197.637 328.25ZM209.807 330.775C209.757 330.925 209.732 331.075 209.732 331.225C209.732 331.475 209.782 331.675 209.882 331.825C209.982 331.975 210.107 332.083 210.257 332.15C210.407 332.233 210.574 332.292 210.757 332.325C210.941 332.358 211.107 332.392 211.257 332.425C211.524 332.492 211.732 332.55 211.882 332.6C212.049 332.65 212.216 332.675 212.382 332.675C212.599 332.675 212.766 332.608 212.882 332.475C213.016 332.358 213.116 332.2 213.182 332C213.249 331.817 213.291 331.625 213.307 331.425C213.324 331.208 213.341 331.008 213.357 330.825C213.374 330.608 213.399 330.333 213.432 330C213.466 329.65 213.507 329.275 213.557 328.875C213.624 328.458 213.707 328.017 213.807 327.55C213.924 327.067 214.057 326.575 214.207 326.075C214.507 325.158 214.791 324.408 215.057 323.825C215.341 323.225 215.582 322.733 215.782 322.35C215.999 321.967 216.166 321.658 216.282 321.425C216.416 321.175 216.482 320.925 216.482 320.675C216.482 320.375 216.391 320.142 216.207 319.975C216.024 319.808 215.824 319.642 215.607 319.475C215.457 319.358 215.291 319.233 215.107 319.1C214.924 318.95 214.724 318.867 214.507 318.85C214.307 318.833 214.091 318.917 213.857 319.1C213.641 319.267 213.416 319.608 213.182 320.125C212.949 319.842 212.724 319.658 212.507 319.575C212.291 319.475 212.099 319.425 211.932 319.425C211.632 319.425 211.224 319.567 210.707 319.85C210.191 320.133 209.666 320.467 209.132 320.85C208.599 321.233 208.091 321.633 207.607 322.05C207.141 322.467 206.799 322.8 206.582 323.05C205.882 323.85 205.341 324.692 204.957 325.575C204.574 326.458 204.382 327.342 204.382 328.225C204.382 328.692 204.432 329.167 204.532 329.65C204.649 330.117 204.824 330.542 205.057 330.925C205.291 331.292 205.582 331.592 205.932 331.825C206.282 332.058 206.699 332.175 207.182 332.175C207.749 332.175 208.224 332.042 208.607 331.775C209.007 331.492 209.374 331.15 209.707 330.75L209.807 330.775ZM211.607 323.225C211.291 324.275 210.966 325.15 210.632 325.85C210.316 326.55 210.007 327.108 209.707 327.525C209.424 327.925 209.166 328.208 208.932 328.375C208.699 328.542 208.524 328.625 208.407 328.625C208.324 328.625 208.241 328.583 208.157 328.5C208.091 328.417 208.057 328.258 208.057 328.025C208.057 327.575 208.166 327.108 208.382 326.625C208.599 326.125 208.874 325.65 209.207 325.2C209.557 324.75 209.941 324.35 210.357 324C210.774 323.633 211.191 323.375 211.607 323.225ZM221.373 323.675C221.523 323.142 221.648 322.708 221.748 322.375C221.865 322.025 221.956 321.75 222.023 321.55C222.09 321.333 222.131 321.167 222.148 321.05C222.181 320.917 222.198 320.808 222.198 320.725C222.198 320.508 222.165 320.342 222.098 320.225C222.048 320.092 221.965 319.992 221.848 319.925C221.731 319.842 221.59 319.767 221.423 319.7C221.256 319.633 221.073 319.558 220.873 319.475C220.456 319.308 220.115 319.258 219.848 319.325C219.598 319.392 219.373 319.6 219.173 319.95C218.99 320.3 218.798 320.792 218.598 321.425C218.415 322.058 218.173 322.85 217.873 323.8C217.39 323.817 217.023 323.9 216.773 324.05C216.54 324.2 216.373 324.375 216.273 324.575C216.19 324.758 216.148 324.95 216.148 325.15C216.148 325.333 216.156 325.475 216.173 325.575C216.206 325.892 216.223 326.158 216.223 326.375C216.24 326.575 216.256 326.742 216.273 326.875C216.29 326.992 216.323 327.083 216.373 327.15C216.423 327.2 216.515 327.233 216.648 327.25C216.531 327.583 216.39 327.917 216.223 328.25C216.056 328.567 215.898 328.875 215.748 329.175C215.598 329.458 215.473 329.725 215.373 329.975C215.273 330.225 215.223 330.45 215.223 330.65C215.223 330.817 215.256 330.958 215.323 331.075C215.406 331.175 215.498 331.267 215.598 331.35C215.698 331.417 215.806 331.483 215.923 331.55C216.056 331.617 216.173 331.683 216.273 331.75C216.506 331.917 216.723 332.108 216.923 332.325C217.14 332.542 217.39 332.65 217.673 332.65C218.04 332.65 218.298 332.492 218.448 332.175C218.615 331.858 218.765 331.525 218.898 331.175C219.031 330.808 219.148 330.483 219.248 330.2C219.348 329.9 219.448 329.6 219.548 329.3C219.648 328.983 219.756 328.65 219.873 328.3C219.99 327.933 220.14 327.508 220.323 327.025C220.84 326.875 221.331 326.808 221.798 326.825C221.698 327.092 221.598 327.383 221.498 327.7C221.398 328 221.298 328.317 221.198 328.65C221.115 328.967 221.04 329.275 220.973 329.575C220.923 329.875 220.898 330.15 220.898 330.4C220.898 330.833 220.956 331.175 221.073 331.425C221.19 331.675 221.34 331.867 221.523 332C221.706 332.15 221.898 332.25 222.098 332.3C222.298 332.367 222.49 332.425 222.673 332.475C222.89 332.525 223.115 332.583 223.348 332.65C223.581 332.717 223.798 332.7 223.998 332.6C224.198 332.5 224.365 332.275 224.498 331.925C224.648 331.575 224.731 331.025 224.748 330.275C224.765 329.775 224.806 329.217 224.873 328.6C224.956 327.983 225.115 327.35 225.348 326.7C225.631 325.85 225.906 325.125 226.173 324.525C226.456 323.925 226.706 323.408 226.923 322.975C227.14 322.542 227.315 322.167 227.448 321.85C227.581 321.533 227.648 321.242 227.648 320.975C227.648 320.625 227.548 320.392 227.348 320.275C227.148 320.142 226.931 320 226.698 319.85C226.515 319.717 226.348 319.592 226.198 319.475C226.048 319.358 225.84 319.3 225.573 319.3C225.323 319.3 225.106 319.383 224.923 319.55C224.74 319.717 224.548 319.975 224.348 320.325C224.165 320.675 223.956 321.133 223.723 321.7C223.49 322.267 223.206 322.95 222.873 323.75C222.74 323.717 222.615 323.692 222.498 323.675C222.381 323.658 222.256 323.65 222.123 323.65C221.99 323.65 221.865 323.65 221.748 323.65C221.631 323.65 221.506 323.658 221.373 323.675ZM237.237 321.225C237.154 320.742 236.971 320.342 236.687 320.025C236.421 319.692 236.096 319.525 235.712 319.525C235.479 319.525 235.212 319.583 234.912 319.7C234.629 319.817 234.337 319.967 234.037 320.15C233.754 320.317 233.479 320.5 233.212 320.7C232.962 320.9 232.754 321.075 232.587 321.225C232.621 320.958 232.679 320.733 232.762 320.55C232.846 320.35 232.887 320.2 232.887 320.1C232.887 320.017 232.846 319.942 232.762 319.875C232.696 319.792 232.604 319.725 232.487 319.675C232.371 319.608 232.254 319.55 232.137 319.5C232.021 319.45 231.929 319.4 231.862 319.35C231.646 319.233 231.454 319.117 231.287 319C231.121 318.867 230.946 318.8 230.762 318.8C230.462 318.8 230.237 318.9 230.087 319.1C229.937 319.283 229.821 319.483 229.737 319.7C229.671 319.9 229.629 320.05 229.612 320.15C229.596 320.233 229.554 320.375 229.487 320.575C229.437 320.775 229.337 321.092 229.187 321.525C229.054 321.942 228.829 322.583 228.512 323.45C228.179 324.4 227.912 325.125 227.712 325.625C227.529 326.108 227.371 326.5 227.237 326.8C227.121 327.1 227.012 327.358 226.912 327.575C226.812 327.792 226.679 328.083 226.512 328.45C226.229 329.1 226.054 329.567 225.987 329.85C225.921 330.117 225.887 330.333 225.887 330.5C225.887 330.833 225.987 331.083 226.187 331.25C226.404 331.417 226.637 331.558 226.887 331.675C227.271 331.858 227.529 331.983 227.662 332.05C227.812 332.133 227.954 332.175 228.087 332.175C228.304 332.175 228.487 332.117 228.637 332C228.804 331.9 228.946 331.775 229.062 331.625C229.179 331.458 229.279 331.283 229.362 331.1C229.446 330.9 229.521 330.708 229.587 330.525C229.671 330.275 229.754 330.05 229.837 329.85C229.921 329.65 230.004 329.433 230.087 329.2C230.171 328.967 230.271 328.692 230.387 328.375C230.504 328.058 230.637 327.675 230.787 327.225C230.904 326.858 230.996 326.583 231.062 326.4C231.129 326.2 231.187 326.042 231.237 325.925C231.287 325.808 231.329 325.692 231.362 325.575C231.396 325.458 231.454 325.292 231.537 325.075C231.804 324.908 232.037 324.742 232.237 324.575C232.437 324.392 232.612 324.225 232.762 324.075C232.929 323.925 233.071 323.808 233.187 323.725C233.321 323.625 233.446 323.575 233.562 323.575C233.729 323.575 233.812 323.692 233.812 323.925C233.812 324.108 233.762 324.35 233.662 324.65C233.579 324.95 233.479 325.258 233.362 325.575C233.246 325.875 233.129 326.158 233.012 326.425C232.912 326.675 232.846 326.85 232.812 326.95C232.546 327.6 232.321 328.133 232.137 328.55C231.971 328.95 231.829 329.275 231.712 329.525C231.612 329.775 231.537 329.975 231.487 330.125C231.437 330.258 231.412 330.392 231.412 330.525C231.412 330.858 231.512 331.092 231.712 331.225C231.912 331.358 232.096 331.475 232.262 331.575C232.429 331.675 232.612 331.8 232.812 331.95C233.029 332.1 233.271 332.175 233.537 332.175C234.154 332.175 234.721 331.575 235.237 330.375C235.754 329.158 236.329 327.383 236.962 325.05C237.079 324.917 237.221 324.775 237.387 324.625C237.554 324.458 237.721 324.308 237.887 324.175C238.071 324.042 238.246 323.933 238.412 323.85C238.596 323.75 238.754 323.7 238.887 323.7C239.121 323.7 239.254 323.75 239.287 323.85C239.337 323.95 239.362 324.05 239.362 324.15C239.362 324.3 239.304 324.558 239.187 324.925C239.087 325.275 238.962 325.65 238.812 326.05C238.662 326.45 238.512 326.833 238.362 327.2C238.229 327.55 238.137 327.8 238.087 327.95C237.921 328.367 237.746 328.717 237.562 329C237.396 329.283 237.246 329.542 237.112 329.775C236.979 329.992 236.862 330.192 236.762 330.375C236.679 330.542 236.637 330.717 236.637 330.9C236.637 331.233 236.721 331.475 236.887 331.625C237.071 331.775 237.271 331.917 237.487 332.05C237.687 332.183 237.887 332.317 238.087 332.45C238.287 332.583 238.487 332.65 238.687 332.65C238.904 332.65 239.096 332.6 239.262 332.5C239.429 332.4 239.571 332.275 239.687 332.125C239.821 331.975 239.929 331.825 240.012 331.675C240.096 331.508 240.162 331.375 240.212 331.275C241.096 329.208 241.704 327.475 242.037 326.075C242.387 324.675 242.562 323.683 242.562 323.1C242.562 322.817 242.496 322.5 242.362 322.15C242.246 321.8 242.079 321.475 241.862 321.175C241.646 320.858 241.387 320.6 241.087 320.4C240.804 320.183 240.496 320.075 240.162 320.075C239.912 320.075 239.637 320.125 239.337 320.225C239.054 320.308 238.771 320.417 238.487 320.55C238.221 320.667 237.971 320.792 237.737 320.925C237.521 321.058 237.354 321.158 237.237 321.225ZM247.718 330.675C247.568 331.025 247.568 331.325 247.718 331.575C247.868 331.825 248.076 332.025 248.343 332.175C248.626 332.342 248.926 332.458 249.243 332.525C249.576 332.608 249.835 332.65 250.018 332.65C250.235 332.65 250.401 332.608 250.518 332.525C250.635 332.442 250.726 332.333 250.793 332.2C250.86 332.067 250.901 331.917 250.918 331.75C250.935 331.567 250.951 331.383 250.968 331.2C251.035 330.267 251.185 329.375 251.418 328.525C251.651 327.658 251.91 326.867 252.193 326.15C252.476 325.433 252.768 324.8 253.068 324.25C253.385 323.7 253.651 323.25 253.868 322.9C254.051 322.6 254.21 322.35 254.343 322.15C254.476 321.933 254.543 321.683 254.543 321.4C254.543 321.217 254.485 321.017 254.368 320.8C254.251 320.583 254.101 320.392 253.918 320.225C253.735 320.042 253.526 319.892 253.293 319.775C253.076 319.658 252.868 319.6 252.668 319.6C252.318 319.6 252.035 319.742 251.818 320.025C251.601 320.292 251.426 320.542 251.293 320.775C250.893 321.492 250.385 322.458 249.768 323.675C249.151 324.892 248.551 326.4 247.968 328.2C247.451 328.533 247.076 328.75 246.843 328.85C246.626 328.95 246.451 329 246.318 329C245.918 329 245.718 328.842 245.718 328.525C245.718 328.408 245.735 328.25 245.768 328.05C245.818 327.85 245.91 327.575 246.043 327.225C246.193 326.858 246.393 326.4 246.643 325.85C246.91 325.283 247.268 324.592 247.718 323.775C248.051 323.158 248.318 322.667 248.518 322.3C248.735 321.917 248.893 321.625 248.993 321.425C249.11 321.225 249.185 321.083 249.218 321C249.268 320.917 249.293 320.842 249.293 320.775C249.293 320.625 249.201 320.467 249.018 320.3C248.851 320.133 248.651 319.975 248.418 319.825C248.185 319.675 247.951 319.55 247.718 319.45C247.485 319.35 247.31 319.3 247.193 319.3C246.876 319.3 246.535 319.508 246.168 319.925C245.818 320.325 245.46 320.85 245.093 321.5C244.743 322.133 244.401 322.833 244.068 323.6C243.735 324.35 243.435 325.075 243.168 325.775C242.918 326.475 242.71 327.1 242.543 327.65C242.393 328.183 242.318 328.55 242.318 328.75C242.318 329.117 242.368 329.5 242.468 329.9C242.585 330.3 242.735 330.675 242.918 331.025C243.118 331.358 243.351 331.633 243.618 331.85C243.885 332.067 244.176 332.175 244.493 332.175C244.576 332.175 244.693 332.158 244.843 332.125C244.993 332.108 245.185 332.05 245.418 331.95C245.668 331.85 245.976 331.7 246.343 331.5C246.726 331.3 247.185 331.025 247.718 330.675ZM259.387 327.4C259.237 327.95 259.103 328.425 258.987 328.825C258.887 329.208 258.795 329.542 258.712 329.825C258.645 330.108 258.587 330.358 258.537 330.575C258.503 330.775 258.487 330.967 258.487 331.15C258.487 331.367 258.537 331.542 258.637 331.675C258.737 331.808 258.853 331.917 258.987 332C259.137 332.083 259.295 332.142 259.462 332.175C259.628 332.225 259.787 332.275 259.937 332.325C260.22 332.408 260.445 332.483 260.612 332.55C260.795 332.617 260.97 332.65 261.137 332.65C261.37 332.65 261.553 332.567 261.687 332.4C261.837 332.25 261.945 332.058 262.012 331.825C262.095 331.592 262.153 331.342 262.187 331.075C262.22 330.808 262.253 330.558 262.287 330.325C262.337 329.908 262.445 329.333 262.612 328.6C262.778 327.85 262.962 327.083 263.162 326.3C263.378 325.517 263.587 324.783 263.787 324.1C264.003 323.417 264.178 322.925 264.312 322.625C264.445 322.325 264.57 322.033 264.687 321.75C264.803 321.467 264.862 321.208 264.862 320.975C264.862 320.608 264.753 320.367 264.537 320.25C264.337 320.117 264.128 319.983 263.912 319.85C263.728 319.75 263.545 319.633 263.362 319.5C263.178 319.367 262.987 319.3 262.787 319.3C262.52 319.3 262.278 319.408 262.062 319.625C261.862 319.842 261.703 320.058 261.587 320.275C261.553 320.042 261.462 319.817 261.312 319.6C261.178 319.383 260.953 319.275 260.637 319.275C260.42 319.275 260.112 319.333 259.712 319.45C259.312 319.55 258.87 319.708 258.387 319.925C257.903 320.142 257.412 320.408 256.912 320.725C256.412 321.025 255.953 321.375 255.537 321.775C255.137 322.175 254.803 322.617 254.537 323.1C254.287 323.583 254.162 324.108 254.162 324.675C254.162 324.992 254.212 325.317 254.312 325.65C254.412 325.967 254.562 326.258 254.762 326.525C254.962 326.792 255.203 327.017 255.487 327.2C255.787 327.383 256.128 327.483 256.512 327.5C255.962 328 255.403 328.408 254.837 328.725C254.27 329.025 253.762 329.292 253.312 329.525C252.862 329.742 252.495 329.958 252.212 330.175C251.928 330.375 251.787 330.617 251.787 330.9C251.787 331.067 251.87 331.283 252.037 331.55C252.187 331.8 252.37 332.042 252.587 332.275C252.803 332.525 253.02 332.733 253.237 332.9C253.47 333.083 253.653 333.175 253.787 333.175C254.037 333.175 254.32 333.067 254.637 332.85C254.97 332.633 255.312 332.35 255.662 332C256.028 331.65 256.387 331.258 256.737 330.825C257.087 330.392 257.412 329.967 257.712 329.55C258.028 329.133 258.303 328.742 258.537 328.375C258.77 327.992 258.945 327.692 259.062 327.475L259.387 327.4ZM260.687 322.625C260.57 322.942 260.453 323.25 260.337 323.55C260.237 323.85 260.137 324.158 260.037 324.475C259.47 324.775 259.062 324.958 258.812 325.025C258.562 325.092 258.395 325.125 258.312 325.125C257.995 325.125 257.803 325.067 257.737 324.95C257.687 324.817 257.662 324.683 257.662 324.55C257.662 324.167 257.928 323.808 258.462 323.475C259.012 323.125 259.753 322.842 260.687 322.625ZM273.421 317.075C273.421 316.858 273.321 316.625 273.121 316.375C272.921 316.108 272.687 315.867 272.421 315.65C272.154 315.417 271.887 315.225 271.621 315.075C271.354 314.925 271.154 314.85 271.021 314.85C270.737 314.85 270.479 314.975 270.246 315.225C270.029 315.475 269.812 315.825 269.596 316.275C269.396 316.725 269.179 317.258 268.946 317.875C268.729 318.475 268.471 319.125 268.171 319.825C267.904 320.475 267.637 321.117 267.371 321.75C267.121 322.367 266.887 322.942 266.671 323.475C266.471 324.008 266.304 324.475 266.171 324.875C266.054 325.275 265.996 325.575 265.996 325.775C265.996 325.958 266.071 326.175 266.221 326.425C266.387 326.658 266.571 326.883 266.771 327.1C266.987 327.317 267.212 327.5 267.446 327.65C267.679 327.8 267.871 327.875 268.021 327.875C268.287 327.875 268.504 327.792 268.671 327.625C268.837 327.442 268.979 327.217 269.096 326.95C269.229 326.683 269.346 326.4 269.446 326.1C269.546 325.783 269.646 325.492 269.746 325.225C269.962 324.658 270.171 324.15 270.371 323.7C270.571 323.233 270.762 322.8 270.946 322.4C271.146 322 271.337 321.617 271.521 321.25C271.704 320.867 271.887 320.483 272.071 320.1C272.454 319.3 272.771 318.667 273.021 318.2C273.287 317.733 273.421 317.358 273.421 317.075ZM268.146 330.175C268.146 329.758 267.971 329.425 267.621 329.175C267.287 328.908 266.821 328.65 266.221 328.4C266.021 328.317 265.837 328.275 265.671 328.275C265.404 328.275 265.154 328.367 264.921 328.55C264.704 328.733 264.512 328.967 264.346 329.25C264.196 329.533 264.079 329.842 263.996 330.175C263.912 330.492 263.871 330.783 263.871 331.05C263.871 331.4 263.962 331.717 264.146 332C264.346 332.283 264.587 332.525 264.871 332.725C265.154 332.925 265.454 333.075 265.771 333.175C266.104 333.292 266.404 333.35 266.671 333.35C267.037 333.35 267.254 333.258 267.321 333.075C267.404 332.892 267.462 332.675 267.496 332.425C267.546 332.125 267.604 331.858 267.671 331.625C267.754 331.392 267.829 331.208 267.896 331.075C267.962 330.942 268.021 330.808 268.071 330.675C268.121 330.542 268.146 330.375 268.146 330.175Z" fill="black"/>
<path d="M66.1229 284.09C65.9829 284.09 65.7496 284.113 65.4229 284.16C65.0963 284.207 64.7229 284.253 64.3029 284.3C63.8829 284.347 63.4629 284.393 63.0429 284.44C62.6229 284.487 62.2496 284.51 61.9229 284.51C61.5496 284.51 61.2229 284.44 60.9429 284.3C60.7096 284.16 60.5929 283.763 60.5929 283.11C60.5929 282.877 60.6396 282.62 60.7329 282.34C60.8729 282.013 61.0829 281.523 61.3629 280.87C61.6429 280.217 62.0163 279.33 62.4829 278.21C62.9496 277.09 63.5329 275.62 64.2329 273.8C65.8663 269.553 67.0796 266.287 67.8729 264C68.7129 261.667 69.3429 259.893 69.7629 258.68C70.1829 257.42 70.4863 256.463 70.6729 255.81C70.8596 255.157 71.1396 254.363 71.5129 253.43C71.7929 252.73 72.0029 252.147 72.1429 251.68C72.3296 251.213 72.4229 250.793 72.4229 250.42C72.4229 249.44 72.0729 248.67 71.3729 248.11C70.6729 247.55 69.9496 246.99 69.2029 246.43C68.5496 245.917 67.8263 245.357 67.0329 244.75C66.2396 244.143 65.3763 243.84 64.4429 243.84C63.6963 243.84 63.1363 244.143 62.7629 244.75C62.4363 245.31 62.1563 245.87 61.9229 246.43C61.3629 247.877 60.9429 249.09 60.6629 250.07C60.3829 251.003 60.1263 251.937 59.8929 252.87C59.7063 253.803 59.4729 254.83 59.1929 255.95C58.9129 257.023 58.5163 258.447 58.0029 260.22C57.4896 261.993 56.7663 264.21 55.8329 266.87C54.9463 269.53 53.7563 272.867 52.2629 276.88C51.4696 278.98 50.8863 280.707 50.5129 282.06C50.1396 283.413 49.9529 284.58 49.9529 285.56C49.9529 285.84 50.0229 286.423 50.1629 287.31C50.3029 288.197 50.6296 289.13 51.1429 290.11C51.7029 291.043 52.4963 291.883 53.5229 292.63C54.5963 293.423 56.0429 293.82 57.8629 293.82C58.7496 293.82 59.5896 293.797 60.3829 293.75C61.2229 293.75 62.2263 293.703 63.3929 293.61C64.5596 293.563 65.9596 293.517 67.5929 293.47C69.2263 293.423 71.2796 293.353 73.7529 293.26C76.5996 293.167 79.0029 293.097 80.9629 293.05C82.9229 293.05 84.5563 292.957 85.8629 292.77C87.2163 292.63 88.2896 292.397 89.0829 292.07C89.9229 291.79 90.6229 291.323 91.1829 290.67C91.7429 289.97 92.2329 289.107 92.6529 288.08C93.1196 287.007 93.6563 285.653 94.2629 284.02C94.7296 282.713 95.1263 281.617 95.4529 280.73C95.7796 279.843 96.1296 278.887 96.5029 277.86C96.8763 276.787 97.3429 275.503 97.9029 274.01C98.4629 272.517 99.2329 270.51 100.213 267.99C101.566 264.397 102.64 261.527 103.433 259.38C104.226 257.187 104.81 255.483 105.183 254.27C105.603 253.01 105.86 252.123 105.953 251.61C106.046 251.05 106.093 250.583 106.093 250.21C106.093 249.79 105.86 249.3 105.393 248.74C104.973 248.18 104.436 247.667 103.783 247.2C103.176 246.687 102.5 246.267 101.753 245.94C101.006 245.567 100.33 245.38 99.7229 245.38C99.0229 245.38 98.4163 245.543 97.9029 245.87C97.4363 246.15 97.0163 246.547 96.6429 247.06C96.2696 247.573 95.9429 248.157 95.6629 248.81C95.4296 249.463 95.1963 250.117 94.9629 250.77C94.5429 252.03 94.0763 253.383 93.5629 254.83C93.0963 256.23 92.6296 257.63 92.1629 259.03C91.7429 260.43 91.2996 261.807 90.8329 263.16C90.4129 264.467 90.0396 265.657 89.7129 266.73C87.9863 271.957 85.9796 277.393 83.6929 283.04C82.4796 283.273 81.5696 283.46 80.9629 283.6C80.3563 283.693 79.7963 283.74 79.2829 283.74C79.0029 283.74 78.7229 283.693 78.4429 283.6C78.1629 283.507 78.0229 283.203 78.0229 282.69C78.0229 282.177 78.1396 281.64 78.3729 281.08C78.6996 280.287 78.9563 279.68 79.1429 279.26C79.3296 278.84 79.4929 278.467 79.6329 278.14C79.8196 277.767 80.0063 277.37 80.1929 276.95C80.4263 276.483 80.7063 275.83 81.0329 274.99C81.4063 274.103 81.8729 272.96 82.4329 271.56C82.9929 270.16 83.6929 268.317 84.5329 266.03C85.2796 264.07 86.0496 261.993 86.8429 259.8C87.6829 257.607 88.4296 255.25 89.0829 252.73C89.3629 251.657 89.3396 250.7 89.0129 249.86C88.6863 248.973 88.1963 248.227 87.5429 247.62C86.9363 246.967 86.2129 246.477 85.3729 246.15C84.5796 245.777 83.8329 245.59 83.1329 245.59C82.4796 245.59 81.7096 245.917 80.8229 246.57C79.9363 247.223 79.1196 248.507 78.3729 250.42C77.7196 252.007 77.2763 253.173 77.0429 253.92C76.8096 254.62 76.6463 255.133 76.5529 255.46C76.5063 255.787 76.4829 256.067 76.4829 256.3C76.4829 256.487 76.3896 256.883 76.2029 257.49C76.0629 258.097 75.7829 259.03 75.3629 260.29C74.9896 261.503 74.3596 263.323 73.4729 265.75C72.3063 268.97 71.1396 272.027 69.9729 274.92C68.8529 277.813 67.5696 280.87 66.1229 284.09ZM112.861 288.57C112.721 288.99 112.651 289.41 112.651 289.83C112.651 290.53 112.791 291.09 113.071 291.51C113.351 291.93 113.701 292.233 114.121 292.42C114.541 292.653 115.007 292.817 115.521 292.91C116.034 293.003 116.501 293.097 116.921 293.19C117.667 293.377 118.251 293.54 118.671 293.68C119.137 293.82 119.604 293.89 120.071 293.89C120.677 293.89 121.144 293.703 121.471 293.33C121.844 293.003 122.124 292.56 122.311 292C122.497 291.487 122.614 290.95 122.661 290.39C122.707 289.783 122.754 289.223 122.801 288.71C122.847 288.103 122.917 287.333 123.011 286.4C123.104 285.42 123.221 284.37 123.361 283.25C123.547 282.083 123.781 280.847 124.061 279.54C124.387 278.187 124.761 276.81 125.181 275.41C126.021 272.843 126.814 270.743 127.561 269.11C128.354 267.43 129.031 266.053 129.591 264.98C130.197 263.907 130.664 263.043 130.991 262.39C131.364 261.69 131.551 260.99 131.551 260.29C131.551 259.45 131.294 258.797 130.781 258.33C130.267 257.863 129.707 257.397 129.101 256.93C128.681 256.603 128.214 256.253 127.701 255.88C127.187 255.46 126.627 255.227 126.021 255.18C125.461 255.133 124.854 255.367 124.201 255.88C123.594 256.347 122.964 257.303 122.311 258.75C121.657 257.957 121.027 257.443 120.421 257.21C119.814 256.93 119.277 256.79 118.811 256.79C117.971 256.79 116.827 257.187 115.381 257.98C113.934 258.773 112.464 259.707 110.971 260.78C109.477 261.853 108.054 262.973 106.701 264.14C105.394 265.307 104.437 266.24 103.831 266.94C101.871 269.18 100.354 271.537 99.2805 274.01C98.2072 276.483 97.6705 278.957 97.6705 281.43C97.6705 282.737 97.8105 284.067 98.0905 285.42C98.4172 286.727 98.9072 287.917 99.5605 288.99C100.214 290.017 101.031 290.857 102.011 291.51C102.991 292.163 104.157 292.49 105.511 292.49C107.097 292.49 108.427 292.117 109.501 291.37C110.621 290.577 111.647 289.62 112.581 288.5L112.861 288.57ZM117.901 267.43C117.014 270.37 116.104 272.82 115.171 274.78C114.284 276.74 113.421 278.303 112.581 279.47C111.787 280.59 111.064 281.383 110.411 281.85C109.757 282.317 109.267 282.55 108.941 282.55C108.707 282.55 108.474 282.433 108.241 282.2C108.054 281.967 107.961 281.523 107.961 280.87C107.961 279.61 108.264 278.303 108.871 276.95C109.477 275.55 110.247 274.22 111.181 272.96C112.161 271.7 113.234 270.58 114.401 269.6C115.567 268.573 116.734 267.85 117.901 267.43ZM144.125 279.54C143.938 279.727 143.658 279.96 143.285 280.24C142.958 280.473 142.608 280.707 142.235 280.94C141.861 281.173 141.465 281.383 141.045 281.57C140.625 281.71 140.251 281.78 139.925 281.78C139.551 281.78 139.155 281.687 138.735 281.5C138.315 281.313 138.105 280.963 138.105 280.45C138.105 280.17 138.151 279.843 138.245 279.47C138.338 279.05 138.501 278.467 138.735 277.72C139.015 276.927 139.388 275.923 139.855 274.71C140.368 273.497 141.045 271.933 141.885 270.02C142.958 267.593 143.775 265.773 144.335 264.56C144.895 263.3 145.175 262.343 145.175 261.69C145.175 261.13 144.918 260.547 144.405 259.94C143.891 259.333 143.285 258.773 142.585 258.26C141.931 257.7 141.255 257.257 140.555 256.93C139.855 256.603 139.318 256.44 138.945 256.44C138.338 256.44 137.661 256.953 136.915 257.98C136.215 258.96 135.468 260.243 134.675 261.83C133.928 263.417 133.181 265.19 132.435 267.15C131.735 269.11 131.105 271.07 130.545 273.03C130.031 274.943 129.588 276.763 129.215 278.49C128.888 280.17 128.725 281.523 128.725 282.55C128.725 283.95 128.911 285.257 129.285 286.47C129.658 287.683 130.148 288.733 130.755 289.62C131.361 290.507 132.038 291.207 132.785 291.72C133.578 292.233 134.395 292.49 135.235 292.49C135.608 292.49 136.051 292.443 136.565 292.35C137.078 292.303 137.685 292.163 138.385 291.93C139.131 291.65 139.971 291.277 140.905 290.81C141.838 290.297 142.935 289.62 144.195 288.78C144.708 289.667 145.408 290.507 146.295 291.3C147.181 292.093 148.091 292.49 149.025 292.49C149.678 292.49 150.378 292.327 151.125 292C151.918 291.627 152.688 291.183 153.435 290.67C154.228 290.11 154.951 289.527 155.605 288.92C156.305 288.313 156.911 287.753 157.425 287.24C157.285 287.567 157.191 287.893 157.145 288.22C157.145 288.547 157.145 288.873 157.145 289.2C157.145 289.573 157.355 290.017 157.775 290.53C158.241 291.043 158.801 291.533 159.455 292C160.108 292.513 160.761 292.933 161.415 293.26C162.115 293.587 162.721 293.75 163.235 293.75C163.795 293.75 164.261 293.54 164.635 293.12C165.008 292.7 165.311 292.163 165.545 291.51C165.825 290.81 166.058 290.04 166.245 289.2C166.478 288.36 166.711 287.52 166.945 286.68C167.645 284.253 168.298 282.13 168.905 280.31C169.511 278.49 170.071 276.903 170.585 275.55C171.098 274.197 171.541 273.03 171.915 272.05C172.335 271.07 172.708 270.23 173.035 269.53C173.501 268.41 173.898 267.477 174.225 266.73C174.551 265.937 174.808 265.307 174.995 264.84C175.181 264.327 175.298 263.93 175.345 263.65C175.438 263.323 175.485 263.043 175.485 262.81C175.485 262.203 175.275 261.55 174.855 260.85C174.435 260.103 173.921 259.403 173.315 258.75C172.708 258.097 172.055 257.56 171.355 257.14C170.701 256.673 170.118 256.44 169.605 256.44C169.091 256.44 168.601 256.65 168.135 257.07C167.715 257.443 167.341 257.91 167.015 258.47C166.688 258.983 166.408 259.52 166.175 260.08C165.941 260.64 165.755 261.06 165.615 261.34C164.961 262.88 164.355 264.35 163.795 265.75C163.281 267.15 162.768 268.55 162.255 269.95C161.788 271.35 161.298 272.773 160.785 274.22C160.318 275.667 159.828 277.23 159.315 278.91C159.128 279.143 158.825 279.423 158.405 279.75C158.031 280.077 157.588 280.403 157.075 280.73C156.608 281.01 156.141 281.267 155.675 281.5C155.208 281.687 154.811 281.78 154.485 281.78C154.111 281.78 153.785 281.71 153.505 281.57C153.271 281.43 153.155 281.15 153.155 280.73C153.155 280.45 153.201 280.147 153.295 279.82C153.388 279.493 153.528 279.027 153.715 278.42C153.948 277.767 154.251 276.95 154.625 275.97C155.045 274.943 155.558 273.613 156.165 271.98C156.678 270.58 157.051 269.6 157.285 269.04C157.565 268.433 157.751 268.06 157.845 267.92C157.938 267.733 157.985 267.663 157.985 267.71C158.031 267.757 158.078 267.71 158.125 267.57C158.218 267.43 158.381 267.08 158.615 266.52C158.848 265.913 159.221 264.91 159.735 263.51C160.015 262.763 160.131 262.133 160.085 261.62C160.038 261.107 159.898 260.687 159.665 260.36C159.431 259.987 159.128 259.66 158.755 259.38C158.381 259.1 158.031 258.82 157.705 258.54C157.191 258.12 156.631 257.677 156.025 257.21C155.465 256.697 154.788 256.44 153.995 256.44C153.435 256.44 152.828 256.72 152.175 257.28C151.568 257.84 150.868 258.96 150.075 260.64C149.328 262.273 148.465 264.607 147.485 267.64C146.505 270.673 145.385 274.64 144.125 279.54ZM186.995 274.5C186.855 275.34 186.669 276.32 186.435 277.44C186.202 278.513 185.992 279.633 185.805 280.8C185.619 281.967 185.455 283.087 185.315 284.16C185.175 285.233 185.105 286.143 185.105 286.89C185.105 287.73 185.199 288.383 185.385 288.85C185.572 289.317 185.829 289.713 186.155 290.04C186.529 290.367 186.925 290.623 187.345 290.81C187.765 290.997 188.232 291.23 188.745 291.51C189.399 291.883 190.005 292.233 190.565 292.56C191.125 292.933 191.802 293.12 192.595 293.12C193.762 293.12 194.579 292.77 195.045 292.07C195.559 291.37 195.885 290.46 196.025 289.34C196.165 288.173 196.212 286.867 196.165 285.42C196.119 283.973 196.095 282.48 196.095 280.94C196.142 278.14 196.259 275.597 196.445 273.31C196.679 271.023 196.912 269.017 197.145 267.29C197.379 265.517 197.589 264.07 197.775 262.95C197.962 261.783 198.055 260.92 198.055 260.36C198.055 259.893 197.775 259.427 197.215 258.96C196.655 258.493 196.002 258.073 195.255 257.7C194.509 257.327 193.739 257.023 192.945 256.79C192.199 256.557 191.615 256.44 191.195 256.44C190.169 256.44 189.305 256.86 188.605 257.7C187.952 258.493 187.299 259.403 186.645 260.43C185.945 261.503 185.129 262.74 184.195 264.14C183.262 265.54 182.259 267.01 181.185 268.55C180.159 270.043 179.085 271.583 177.965 273.17C176.892 274.71 175.842 276.18 174.815 277.58C173.835 278.933 172.902 280.193 172.015 281.36C171.129 282.48 170.382 283.367 169.775 284.02C169.215 284.627 168.632 285.327 168.025 286.12C167.419 286.867 167.115 287.613 167.115 288.36C167.115 288.733 167.302 289.223 167.675 289.83C168.002 290.437 168.422 291.043 168.935 291.65C169.449 292.21 169.985 292.7 170.545 293.12C171.152 293.587 171.665 293.82 172.085 293.82C172.459 293.82 172.832 293.727 173.205 293.54C173.625 293.353 173.999 293.12 174.325 292.84C174.699 292.56 175.025 292.28 175.305 292C175.585 291.72 175.795 291.487 175.935 291.3C176.635 290.507 177.429 289.503 178.315 288.29C179.202 287.077 180.135 285.723 181.115 284.23C182.095 282.737 183.075 281.15 184.055 279.47C185.035 277.79 185.922 276.11 186.715 274.43L186.995 274.5ZM213.953 288.57C213.813 288.99 213.743 289.41 213.743 289.83C213.743 290.53 213.883 291.09 214.163 291.51C214.443 291.93 214.793 292.233 215.213 292.42C215.633 292.653 216.1 292.817 216.613 292.91C217.126 293.003 217.593 293.097 218.013 293.19C218.76 293.377 219.343 293.54 219.763 293.68C220.23 293.82 220.696 293.89 221.163 293.89C221.77 293.89 222.236 293.703 222.563 293.33C222.936 293.003 223.216 292.56 223.403 292C223.59 291.487 223.706 290.95 223.753 290.39C223.8 289.783 223.846 289.223 223.893 288.71C223.94 288.103 224.01 287.333 224.103 286.4C224.196 285.42 224.313 284.37 224.453 283.25C224.64 282.083 224.873 280.847 225.153 279.54C225.48 278.187 225.853 276.81 226.273 275.41C227.113 272.843 227.906 270.743 228.653 269.11C229.446 267.43 230.123 266.053 230.683 264.98C231.29 263.907 231.756 263.043 232.083 262.39C232.456 261.69 232.643 260.99 232.643 260.29C232.643 259.45 232.386 258.797 231.873 258.33C231.36 257.863 230.8 257.397 230.193 256.93C229.773 256.603 229.306 256.253 228.793 255.88C228.28 255.46 227.72 255.227 227.113 255.18C226.553 255.133 225.946 255.367 225.293 255.88C224.686 256.347 224.056 257.303 223.403 258.75C222.75 257.957 222.12 257.443 221.513 257.21C220.906 256.93 220.37 256.79 219.903 256.79C219.063 256.79 217.92 257.187 216.473 257.98C215.026 258.773 213.556 259.707 212.063 260.78C210.57 261.853 209.146 262.973 207.793 264.14C206.486 265.307 205.53 266.24 204.923 266.94C202.963 269.18 201.446 271.537 200.373 274.01C199.3 276.483 198.763 278.957 198.763 281.43C198.763 282.737 198.903 284.067 199.183 285.42C199.51 286.727 200 287.917 200.653 288.99C201.306 290.017 202.123 290.857 203.103 291.51C204.083 292.163 205.25 292.49 206.603 292.49C208.19 292.49 209.52 292.117 210.593 291.37C211.713 290.577 212.74 289.62 213.673 288.5L213.953 288.57ZM218.993 267.43C218.106 270.37 217.196 272.82 216.263 274.78C215.376 276.74 214.513 278.303 213.673 279.47C212.88 280.59 212.156 281.383 211.503 281.85C210.85 282.317 210.36 282.55 210.033 282.55C209.8 282.55 209.566 282.433 209.333 282.2C209.146 281.967 209.053 281.523 209.053 280.87C209.053 279.61 209.356 278.303 209.963 276.95C210.57 275.55 211.34 274.22 212.273 272.96C213.253 271.7 214.326 270.58 215.493 269.6C216.66 268.573 217.826 267.85 218.993 267.43ZM246.337 268.69C246.757 267.197 247.107 265.983 247.387 265.05C247.714 264.07 247.971 263.3 248.157 262.74C248.344 262.133 248.461 261.667 248.507 261.34C248.601 260.967 248.647 260.663 248.647 260.43C248.647 259.823 248.554 259.357 248.367 259.03C248.227 258.657 247.994 258.377 247.667 258.19C247.341 257.957 246.944 257.747 246.477 257.56C246.011 257.373 245.497 257.163 244.937 256.93C243.771 256.463 242.814 256.323 242.067 256.51C241.367 256.697 240.737 257.28 240.177 258.26C239.664 259.24 239.127 260.617 238.567 262.39C238.054 264.163 237.377 266.38 236.537 269.04C235.184 269.087 234.157 269.32 233.457 269.74C232.804 270.16 232.337 270.65 232.057 271.21C231.824 271.723 231.707 272.26 231.707 272.82C231.707 273.333 231.731 273.73 231.777 274.01C231.871 274.897 231.917 275.643 231.917 276.25C231.964 276.81 232.011 277.277 232.057 277.65C232.104 277.977 232.197 278.233 232.337 278.42C232.477 278.56 232.734 278.653 233.107 278.7C232.781 279.633 232.384 280.567 231.917 281.5C231.451 282.387 231.007 283.25 230.587 284.09C230.167 284.883 229.817 285.63 229.537 286.33C229.257 287.03 229.117 287.66 229.117 288.22C229.117 288.687 229.211 289.083 229.397 289.41C229.631 289.69 229.887 289.947 230.167 290.18C230.447 290.367 230.751 290.553 231.077 290.74C231.451 290.927 231.777 291.113 232.057 291.3C232.711 291.767 233.317 292.303 233.877 292.91C234.484 293.517 235.184 293.82 235.977 293.82C237.004 293.82 237.727 293.377 238.147 292.49C238.614 291.603 239.034 290.67 239.407 289.69C239.781 288.663 240.107 287.753 240.387 286.96C240.667 286.12 240.947 285.28 241.227 284.44C241.507 283.553 241.811 282.62 242.137 281.64C242.464 280.613 242.884 279.423 243.397 278.07C244.844 277.65 246.221 277.463 247.527 277.51C247.247 278.257 246.967 279.073 246.687 279.96C246.407 280.8 246.127 281.687 245.847 282.62C245.614 283.507 245.404 284.37 245.217 285.21C245.077 286.05 245.007 286.82 245.007 287.52C245.007 288.733 245.171 289.69 245.497 290.39C245.824 291.09 246.244 291.627 246.757 292C247.271 292.42 247.807 292.7 248.367 292.84C248.927 293.027 249.464 293.19 249.977 293.33C250.584 293.47 251.214 293.633 251.867 293.82C252.521 294.007 253.127 293.96 253.687 293.68C254.247 293.4 254.714 292.77 255.087 291.79C255.507 290.81 255.741 289.27 255.787 287.17C255.834 285.77 255.951 284.207 256.137 282.48C256.371 280.753 256.814 278.98 257.467 277.16C258.261 274.78 259.031 272.75 259.777 271.07C260.571 269.39 261.271 267.943 261.877 266.73C262.484 265.517 262.974 264.467 263.347 263.58C263.721 262.693 263.907 261.877 263.907 261.13C263.907 260.15 263.627 259.497 263.067 259.17C262.507 258.797 261.901 258.4 261.247 257.98C260.734 257.607 260.267 257.257 259.847 256.93C259.427 256.603 258.844 256.44 258.097 256.44C257.397 256.44 256.791 256.673 256.277 257.14C255.764 257.607 255.227 258.33 254.667 259.31C254.154 260.29 253.571 261.573 252.917 263.16C252.264 264.747 251.471 266.66 250.537 268.9C250.164 268.807 249.814 268.737 249.487 268.69C249.161 268.643 248.811 268.62 248.437 268.62C248.064 268.62 247.714 268.62 247.387 268.62C247.061 268.62 246.711 268.643 246.337 268.69ZM284.737 259.31C284.083 258.657 283.36 258.073 282.567 257.56C281.82 257.047 280.98 256.79 280.047 256.79C279.113 256.79 277.993 257.14 276.687 257.84C275.38 258.493 274.027 259.427 272.627 260.64C271.227 261.853 269.827 263.277 268.427 264.91C267.073 266.543 265.837 268.317 264.717 270.23C263.643 272.097 262.757 274.08 262.057 276.18C261.403 278.28 261.077 280.38 261.077 282.48C261.077 284.58 261.38 286.283 261.987 287.59C262.64 288.85 263.41 289.853 264.297 290.6C265.183 291.347 266.117 291.837 267.097 292.07C268.077 292.35 268.94 292.49 269.687 292.49C271.18 292.49 272.813 292.187 274.587 291.58C276.407 290.927 278.227 289.993 280.047 288.78C281.867 287.52 283.617 285.957 285.297 284.09C287.023 282.223 288.54 280.053 289.847 277.58C291.2 275.06 292.273 272.237 293.067 269.11C293.907 265.983 294.327 262.53 294.327 258.75C294.327 256.043 293.883 253.453 292.997 250.98C292.11 248.46 291.037 246.243 289.777 244.33C288.517 242.417 287.163 240.9 285.717 239.78C284.27 238.613 282.987 238.03 281.867 238.03C281.447 238.03 280.933 238.193 280.327 238.52C279.72 238.8 279.113 239.173 278.507 239.64C277.9 240.06 277.387 240.55 276.967 241.11C276.547 241.67 276.337 242.183 276.337 242.65C276.337 243.21 276.523 243.77 276.897 244.33C277.27 244.843 277.737 245.427 278.297 246.08C278.857 246.687 279.487 247.387 280.187 248.18C280.887 248.973 281.563 249.907 282.217 250.98C282.963 252.147 283.547 253.407 283.967 254.76C284.387 256.113 284.643 257.63 284.737 259.31ZM283.407 265.61C282.893 268.083 282.1 270.393 281.027 272.54C280 274.687 278.903 276.577 277.737 278.21C276.57 279.797 275.427 281.057 274.307 281.99C273.187 282.877 272.277 283.32 271.577 283.32C271.063 283.32 270.76 283.157 270.667 282.83C270.62 282.457 270.597 282.107 270.597 281.78C270.597 280.287 270.993 278.7 271.787 277.02C272.627 275.34 273.653 273.73 274.867 272.19C276.127 270.65 277.503 269.297 278.997 268.13C280.537 266.963 282.007 266.123 283.407 265.61ZM307.319 288.29C306.899 289.27 306.899 290.11 307.319 290.81C307.739 291.51 308.323 292.07 309.069 292.49C309.863 292.957 310.703 293.283 311.589 293.47C312.523 293.703 313.246 293.82 313.759 293.82C314.366 293.82 314.833 293.703 315.159 293.47C315.486 293.237 315.743 292.933 315.929 292.56C316.116 292.187 316.233 291.767 316.279 291.3C316.326 290.787 316.373 290.273 316.419 289.76C316.606 287.147 317.026 284.65 317.679 282.27C318.333 279.843 319.056 277.627 319.849 275.62C320.643 273.613 321.459 271.84 322.299 270.3C323.186 268.76 323.933 267.5 324.539 266.52C325.053 265.68 325.496 264.98 325.869 264.42C326.243 263.813 326.429 263.113 326.429 262.32C326.429 261.807 326.266 261.247 325.939 260.64C325.613 260.033 325.193 259.497 324.679 259.03C324.166 258.517 323.583 258.097 322.929 257.77C322.323 257.443 321.739 257.28 321.179 257.28C320.199 257.28 319.406 257.677 318.799 258.47C318.193 259.217 317.703 259.917 317.329 260.57C316.209 262.577 314.786 265.283 313.059 268.69C311.333 272.097 309.653 276.32 308.019 281.36C306.573 282.293 305.523 282.9 304.869 283.18C304.263 283.46 303.773 283.6 303.399 283.6C302.279 283.6 301.719 283.157 301.719 282.27C301.719 281.943 301.766 281.5 301.859 280.94C301.999 280.38 302.256 279.61 302.629 278.63C303.049 277.603 303.609 276.32 304.309 274.78C305.056 273.193 306.059 271.257 307.319 268.97C308.253 267.243 308.999 265.867 309.559 264.84C310.166 263.767 310.609 262.95 310.889 262.39C311.216 261.83 311.426 261.433 311.519 261.2C311.659 260.967 311.729 260.757 311.729 260.57C311.729 260.15 311.473 259.707 310.959 259.24C310.493 258.773 309.933 258.33 309.279 257.91C308.626 257.49 307.973 257.14 307.319 256.86C306.666 256.58 306.176 256.44 305.849 256.44C304.963 256.44 304.006 257.023 302.979 258.19C301.999 259.31 300.996 260.78 299.969 262.6C298.989 264.373 298.033 266.333 297.099 268.48C296.166 270.58 295.326 272.61 294.579 274.57C293.879 276.53 293.296 278.28 292.829 279.82C292.409 281.313 292.199 282.34 292.199 282.9C292.199 283.927 292.339 285 292.619 286.12C292.946 287.24 293.366 288.29 293.879 289.27C294.439 290.203 295.093 290.973 295.839 291.58C296.586 292.187 297.403 292.49 298.289 292.49C298.523 292.49 298.849 292.443 299.269 292.35C299.689 292.303 300.226 292.14 300.879 291.86C301.579 291.58 302.443 291.16 303.469 290.6C304.543 290.04 305.826 289.27 307.319 288.29ZM339.992 279.12C339.572 280.66 339.199 281.99 338.872 283.11C338.592 284.183 338.335 285.117 338.102 285.91C337.915 286.703 337.752 287.403 337.612 288.01C337.519 288.57 337.472 289.107 337.472 289.62C337.472 290.227 337.612 290.717 337.892 291.09C338.172 291.463 338.499 291.767 338.872 292C339.292 292.233 339.735 292.397 340.202 292.49C340.669 292.63 341.112 292.77 341.532 292.91C342.325 293.143 342.955 293.353 343.422 293.54C343.935 293.727 344.425 293.82 344.892 293.82C345.545 293.82 346.059 293.587 346.432 293.12C346.852 292.7 347.155 292.163 347.342 291.51C347.575 290.857 347.739 290.157 347.832 289.41C347.925 288.663 348.019 287.963 348.112 287.31C348.252 286.143 348.555 284.533 349.022 282.48C349.489 280.38 350.002 278.233 350.562 276.04C351.169 273.847 351.752 271.793 352.312 269.88C352.919 267.967 353.409 266.59 353.782 265.75C354.155 264.91 354.505 264.093 354.832 263.3C355.159 262.507 355.322 261.783 355.322 261.13C355.322 260.103 355.019 259.427 354.412 259.1C353.852 258.727 353.269 258.353 352.662 257.98C352.149 257.7 351.635 257.373 351.122 257C350.609 256.627 350.072 256.44 349.512 256.44C348.765 256.44 348.089 256.743 347.482 257.35C346.922 257.957 346.479 258.563 346.152 259.17C346.059 258.517 345.802 257.887 345.382 257.28C345.009 256.673 344.379 256.37 343.492 256.37C342.885 256.37 342.022 256.533 340.902 256.86C339.782 257.14 338.545 257.583 337.192 258.19C335.839 258.797 334.462 259.543 333.062 260.43C331.662 261.27 330.379 262.25 329.212 263.37C328.092 264.49 327.159 265.727 326.412 267.08C325.712 268.433 325.362 269.903 325.362 271.49C325.362 272.377 325.502 273.287 325.782 274.22C326.062 275.107 326.482 275.923 327.042 276.67C327.602 277.417 328.279 278.047 329.072 278.56C329.912 279.073 330.869 279.353 331.942 279.4C330.402 280.8 328.839 281.943 327.252 282.83C325.665 283.67 324.242 284.417 322.982 285.07C321.722 285.677 320.695 286.283 319.902 286.89C319.109 287.45 318.712 288.127 318.712 288.92C318.712 289.387 318.945 289.993 319.412 290.74C319.832 291.44 320.345 292.117 320.952 292.77C321.559 293.47 322.165 294.053 322.772 294.52C323.425 295.033 323.939 295.29 324.312 295.29C325.012 295.29 325.805 294.987 326.692 294.38C327.625 293.773 328.582 292.98 329.562 292C330.589 291.02 331.592 289.923 332.572 288.71C333.552 287.497 334.462 286.307 335.302 285.14C336.189 283.973 336.959 282.877 337.612 281.85C338.265 280.777 338.755 279.937 339.082 279.33L339.992 279.12ZM343.632 265.75C343.305 266.637 342.979 267.5 342.652 268.34C342.372 269.18 342.092 270.043 341.812 270.93C340.225 271.77 339.082 272.283 338.382 272.47C337.682 272.657 337.215 272.75 336.982 272.75C336.095 272.75 335.559 272.587 335.372 272.26C335.232 271.887 335.162 271.513 335.162 271.14C335.162 270.067 335.909 269.063 337.402 268.13C338.942 267.15 341.019 266.357 343.632 265.75Z" fill="#E70000"/>
<path d="M169.234 57.2H154.054V89H139.174V57.2H123.994V47H169.234V57.2ZM226.3 47L207.22 75.38V89H192.34V75.38L172.84 47H190.3L194.62 54.2C197.14 58.32 198.88 62.26 199.84 66.02H200.08C201.04 62.34 202.74 58.36 205.18 54.08L209.26 47H226.3ZM274.995 57.2H259.815V89H244.935V57.2H229.755V47H274.995V57.2ZM169.269 143H123.969V101H167.709V110.54H138.849V117.2H163.509V126.44H138.849V132.74H169.269V143ZM225.233 121.7C225.233 127.82 223.273 132.9 219.353 136.94C215.433 140.98 210.273 143 203.873 143H174.653V101H201.833C205.033 101 207.993 101.38 210.713 102.14C213.433 102.9 215.893 104.06 218.093 105.62C220.333 107.18 222.073 109.34 223.313 112.1C224.593 114.82 225.233 118.02 225.233 121.7ZM209.333 121.7C209.333 114.22 205.913 110.48 199.073 110.48H189.533V132.8H199.073C202.353 132.8 204.873 131.96 206.633 130.28C208.433 128.6 209.333 125.74 209.333 121.7ZM279.238 143H263.458L261.538 137.42H242.938L240.838 143H225.238L243.598 101H260.578L279.238 143ZM257.578 127.4L251.998 112.52L246.718 127.4H257.578Z" fill="#4FD420"/>
<line x1="51" y1="199.5" x2="349" y2="199.5" stroke="black"/>
</svg>
